<ttFont>
    <TTGlyph name=".notdef" xMin="2" yMin="0" xMax="507" yMax="701">
      <contour>
        <pt x="255" y="302" on="1"/>
        <pt x="251" y="302" on="1"/>
        <pt x="151" y="93" on="1"/>
        <pt x="91" y="93" on="1"/>
        <pt x="225" y="353" on="1"/>
        <pt x="91" y="608" on="1"/>
        <pt x="151" y="608" on="1"/>
        <pt x="256" y="402" on="1"/>
        <pt x="260" y="402" on="1"/>
        <pt x="360" y="608" on="1"/>
        <pt x="420" y="608" on="1"/>
        <pt x="285" y="347" on="1"/>
        <pt x="420" y="93" on="1"/>
        <pt x="360" y="93" on="1"/>
      </contour>
      <contour>
        <pt x="55" y="651" on="1"/>
        <pt x="55" y="50" on="1"/>
        <pt x="455" y="50" on="1"/>
        <pt x="455" y="651" on="1"/>
      </contour>
      <contour>
        <pt x="2" y="0" on="1"/>
        <pt x="2" y="701" on="1"/>
        <pt x="507" y="701" on="1"/>
        <pt x="507" y="0" on="1"/>
      </contour>
    </TTGlyph>
    <TTGlyph name="A" xMin="31" yMin="0" xMax="629" yMax="674">
      <contour>
        <pt x="519" y="0" on="1"/>
        <pt x="466" y="165" on="1"/>
        <pt x="194" y="165" on="1"/>
        <pt x="140" y="0" on="1"/>
        <pt x="31" y="0" on="1"/>
        <pt x="264" y="674" on="1"/>
        <pt x="399" y="674" on="1"/>
        <pt x="629" y="0" on="1"/>
      </contour>
      <contour>
        <pt x="222" y="251" on="1"/>
        <pt x="438" y="251" on="1"/>
        <pt x="351" y="520" on="0"/>
        <pt x="331" y="596" on="1"/>
        <pt x="324" y="567" on="0"/>
      </contour>
    </TTGlyph>
    <TTGlyph name="AE" xMin="19" yMin="0" xMax="845" yMax="674">
      <contour>
        <pt x="559" y="86" on="1"/>
        <pt x="845" y="86" on="1"/>
        <pt x="845" y="0" on="1"/>
        <pt x="459" y="0" on="1"/>
        <pt x="459" y="165" on="1"/>
        <pt x="218" y="165" on="1"/>
        <pt x="127" y="0" on="1"/>
        <pt x="19" y="0" on="1"/>
        <pt x="385" y="674" on="1"/>
        <pt x="840" y="674" on="1"/>
        <pt x="840" y="588" on="1"/>
        <pt x="559" y="588" on="1"/>
        <pt x="559" y="380" on="1"/>
        <pt x="808" y="380" on="1"/>
        <pt x="808" y="294" on="1"/>
        <pt x="559" y="294" on="1"/>
      </contour>
      <contour>
        <pt x="459" y="251" on="1"/>
        <pt x="459" y="608" on="1"/>
        <pt x="408" y="505" on="0"/>
        <pt x="266" y="251" on="1"/>
      </contour>
    </TTGlyph>
    <TTGlyph name="Aacute" xMin="31" yMin="0" xMax="629" yMax="887">
      <contour>
        <pt x="519" y="0" on="1"/>
        <pt x="466" y="165" on="1"/>
        <pt x="194" y="165" on="1"/>
        <pt x="140" y="0" on="1"/>
        <pt x="31" y="0" on="1"/>
        <pt x="264" y="674" on="1"/>
        <pt x="399" y="674" on="1"/>
        <pt x="629" y="0" on="1"/>
      </contour>
      <contour>
        <pt x="222" y="251" on="1"/>
        <pt x="438" y="251" on="1"/>
        <pt x="351" y="520" on="0"/>
        <pt x="331" y="596" on="1"/>
        <pt x="324" y="567" on="0"/>
      </contour>
      <contour>
        <pt x="502" y="887" on="1"/>
        <pt x="382" y="725" on="1"/>
        <pt x="298" y="725" on="1"/>
        <pt x="393" y="887" on="1"/>
      </contour>
    </TTGlyph>
    <TTGlyph name="Abreve" xMin="31" yMin="0" xMax="629" yMax="887">
      <contour>
        <pt x="519" y="0" on="1"/>
        <pt x="466" y="165" on="1"/>
        <pt x="194" y="165" on="1"/>
        <pt x="140" y="0" on="1"/>
        <pt x="31" y="0" on="1"/>
        <pt x="264" y="674" on="1"/>
        <pt x="399" y="674" on="1"/>
        <pt x="629" y="0" on="1"/>
      </contour>
      <contour>
        <pt x="222" y="251" on="1"/>
        <pt x="438" y="251" on="1"/>
        <pt x="351" y="520" on="0"/>
        <pt x="331" y="596" on="1"/>
        <pt x="324" y="567" on="0"/>
      </contour>
      <contour>
        <pt x="426" y="887" on="1"/>
        <pt x="504" y="887" on="1"/>
        <pt x="504" y="808" on="0"/>
        <pt x="414" y="722" on="0"/>
        <pt x="246" y="722" on="0"/>
        <pt x="156" y="808" on="0"/>
        <pt x="156" y="887" on="1"/>
        <pt x="234" y="887" on="1"/>
        <pt x="234" y="843" on="0"/>
        <pt x="282" y="789" on="0"/>
        <pt x="378" y="789" on="0"/>
        <pt x="426" y="843" on="0"/>
      </contour>
    </TTGlyph>
    <TTGlyph name="Acircumflex" xMin="31" yMin="0" xMax="629" yMax="887">
      <contour>
        <pt x="519" y="0" on="1"/>
        <pt x="466" y="165" on="1"/>
        <pt x="194" y="165" on="1"/>
        <pt x="140" y="0" on="1"/>
        <pt x="31" y="0" on="1"/>
        <pt x="264" y="674" on="1"/>
        <pt x="399" y="674" on="1"/>
        <pt x="629" y="0" on="1"/>
      </contour>
      <contour>
        <pt x="222" y="251" on="1"/>
        <pt x="438" y="251" on="1"/>
        <pt x="351" y="520" on="0"/>
        <pt x="331" y="596" on="1"/>
        <pt x="324" y="567" on="0"/>
      </contour>
      <contour>
        <pt x="332" y="827" on="1"/>
        <pt x="250" y="725" on="1"/>
        <pt x="153" y="725" on="1"/>
        <pt x="288" y="887" on="1"/>
        <pt x="378" y="887" on="1"/>
        <pt x="513" y="725" on="1"/>
        <pt x="416" y="725" on="1"/>
      </contour>
    </TTGlyph>
    <TTGlyph name="Adieresis" xMin="31" yMin="0" xMax="629" yMax="867">
      <contour>
        <pt x="519" y="0" on="1"/>
        <pt x="466" y="165" on="1"/>
        <pt x="194" y="165" on="1"/>
        <pt x="140" y="0" on="1"/>
        <pt x="31" y="0" on="1"/>
        <pt x="264" y="674" on="1"/>
        <pt x="399" y="674" on="1"/>
        <pt x="629" y="0" on="1"/>
      </contour>
      <contour>
        <pt x="222" y="251" on="1"/>
        <pt x="438" y="251" on="1"/>
        <pt x="351" y="520" on="0"/>
        <pt x="331" y="596" on="1"/>
        <pt x="324" y="567" on="0"/>
      </contour>
      <contour>
        <pt x="285" y="782" on="0"/>
        <pt x="250" y="747" on="0"/>
        <pt x="198" y="747" on="0"/>
        <pt x="164" y="781" on="0"/>
        <pt x="164" y="833" on="0"/>
        <pt x="198" y="867" on="0"/>
        <pt x="250" y="867" on="0"/>
        <pt x="285" y="832" on="0"/>
      </contour>
      <contour>
        <pt x="506" y="781" on="0"/>
        <pt x="471" y="747" on="0"/>
        <pt x="420" y="747" on="0"/>
        <pt x="385" y="782" on="0"/>
        <pt x="385" y="832" on="0"/>
        <pt x="420" y="867" on="0"/>
        <pt x="471" y="867" on="0"/>
        <pt x="506" y="833" on="0"/>
      </contour>
    </TTGlyph>
    <TTGlyph name="Agrave" xMin="31" yMin="0" xMax="629" yMax="887">
      <contour>
        <pt x="519" y="0" on="1"/>
        <pt x="466" y="165" on="1"/>
        <pt x="194" y="165" on="1"/>
        <pt x="140" y="0" on="1"/>
        <pt x="31" y="0" on="1"/>
        <pt x="264" y="674" on="1"/>
        <pt x="399" y="674" on="1"/>
        <pt x="629" y="0" on="1"/>
      </contour>
      <contour>
        <pt x="222" y="251" on="1"/>
        <pt x="438" y="251" on="1"/>
        <pt x="351" y="520" on="0"/>
        <pt x="331" y="596" on="1"/>
        <pt x="324" y="567" on="0"/>
      </contour>
      <contour>
        <pt x="369" y="725" on="1"/>
        <pt x="285" y="725" on="1"/>
        <pt x="165" y="887" on="1"/>
        <pt x="274" y="887" on="1"/>
      </contour>
    </TTGlyph>
    <TTGlyph name="Amacron" xMin="31" yMin="0" xMax="629" yMax="841">
      <contour>
        <pt x="519" y="0" on="1"/>
        <pt x="466" y="165" on="1"/>
        <pt x="194" y="165" on="1"/>
        <pt x="140" y="0" on="1"/>
        <pt x="31" y="0" on="1"/>
        <pt x="264" y="674" on="1"/>
        <pt x="399" y="674" on="1"/>
        <pt x="629" y="0" on="1"/>
      </contour>
      <contour>
        <pt x="222" y="251" on="1"/>
        <pt x="438" y="251" on="1"/>
        <pt x="351" y="520" on="0"/>
        <pt x="331" y="596" on="1"/>
        <pt x="324" y="567" on="0"/>
      </contour>
      <contour>
        <pt x="486" y="841" on="1"/>
        <pt x="486" y="773" on="1"/>
        <pt x="182" y="773" on="1"/>
        <pt x="182" y="841" on="1"/>
      </contour>
    </TTGlyph>
    <TTGlyph name="Aogonek" xMin="29" yMin="-247" xMax="645" yMax="674">
      <contour>
        <pt x="513" y="-127" on="1"/>
        <pt x="513" y="-178" on="0"/>
        <pt x="571" y="-178" on="1"/>
        <pt x="610" y="-178" on="0"/>
        <pt x="645" y="-154" on="1"/>
        <pt x="645" y="-226" on="1"/>
        <pt x="609" y="-247" on="0"/>
        <pt x="495" y="-247" on="0"/>
        <pt x="430" y="-184" on="0"/>
        <pt x="430" y="-135" on="1"/>
        <pt x="430" y="-54" on="0"/>
        <pt x="514" y="8" on="1"/>
        <pt x="464" y="165" on="1"/>
        <pt x="191" y="165" on="1"/>
        <pt x="138" y="0" on="1"/>
        <pt x="29" y="0" on="1"/>
        <pt x="261" y="674" on="1"/>
        <pt x="397" y="674" on="1"/>
        <pt x="627" y="0" on="1"/>
        <pt x="513" y="-60" on="0"/>
      </contour>
      <contour>
        <pt x="219" y="251" on="1"/>
        <pt x="436" y="251" on="1"/>
        <pt x="328" y="596" on="1"/>
        <pt x="318" y="549" on="0"/>
        <pt x="230" y="285" on="1"/>
      </contour>
    </TTGlyph>
    <TTGlyph name="Aring" xMin="31" yMin="0" xMax="629" yMax="945">
      <contour>
        <pt x="519" y="0" on="1"/>
        <pt x="466" y="165" on="1"/>
        <pt x="194" y="165" on="1"/>
        <pt x="140" y="0" on="1"/>
        <pt x="31" y="0" on="1"/>
        <pt x="264" y="674" on="1"/>
        <pt x="399" y="674" on="1"/>
        <pt x="629" y="0" on="1"/>
      </contour>
      <contour>
        <pt x="222" y="251" on="1"/>
        <pt x="438" y="251" on="1"/>
        <pt x="351" y="520" on="0"/>
        <pt x="331" y="596" on="1"/>
        <pt x="324" y="567" on="0"/>
      </contour>
      <contour>
        <pt x="449" y="782" on="0"/>
        <pt x="381" y="715" on="0"/>
        <pt x="286" y="715" on="0"/>
        <pt x="219" y="782" on="0"/>
        <pt x="219" y="877" on="0"/>
        <pt x="286" y="945" on="0"/>
        <pt x="381" y="945" on="0"/>
        <pt x="449" y="877" on="0"/>
      </contour>
      <contour>
        <pt x="387" y="853" on="0"/>
        <pt x="356" y="885" on="0"/>
        <pt x="311" y="885" on="0"/>
        <pt x="280" y="853" on="0"/>
        <pt x="280" y="809" on="0"/>
        <pt x="311" y="776" on="0"/>
        <pt x="356" y="776" on="0"/>
        <pt x="387" y="809" on="0"/>
      </contour>
    </TTGlyph>
    <TTGlyph name="Atilde" xMin="31" yMin="0" xMax="629" yMax="868">
      <contour>
        <pt x="519" y="0" on="1"/>
        <pt x="466" y="165" on="1"/>
        <pt x="194" y="165" on="1"/>
        <pt x="140" y="0" on="1"/>
        <pt x="31" y="0" on="1"/>
        <pt x="264" y="674" on="1"/>
        <pt x="399" y="674" on="1"/>
        <pt x="629" y="0" on="1"/>
      </contour>
      <contour>
        <pt x="222" y="251" on="1"/>
        <pt x="438" y="251" on="1"/>
        <pt x="351" y="520" on="0"/>
        <pt x="331" y="596" on="1"/>
        <pt x="324" y="567" on="0"/>
      </contour>
      <contour>
        <pt x="400" y="752" on="1"/>
        <pt x="371" y="752" on="0"/>
        <pt x="290" y="793" on="0"/>
        <pt x="270" y="793" on="1"/>
        <pt x="235" y="793" on="0"/>
        <pt x="204" y="747" on="1"/>
        <pt x="155" y="792" on="1"/>
        <pt x="169" y="823" on="0"/>
        <pt x="226" y="866" on="0"/>
        <pt x="292" y="866" on="0"/>
        <pt x="376" y="825" on="0"/>
        <pt x="395" y="825" on="1"/>
        <pt x="432" y="825" on="0"/>
        <pt x="453" y="868" on="1"/>
        <pt x="509" y="826" on="1"/>
        <pt x="474" y="752" on="0"/>
      </contour>
    </TTGlyph>
    <TTGlyph name="B" xMin="73" yMin="0" xMax="540" yMax="674">
      <contour>
        <pt x="73" y="674" on="1"/>
        <pt x="294" y="674" on="1"/>
        <pt x="400" y="674" on="0"/>
        <pt x="522" y="575" on="0"/>
        <pt x="522" y="494" on="1"/>
        <pt x="522" y="438" on="0"/>
        <pt x="459" y="354" on="0"/>
        <pt x="410" y="342" on="1"/>
        <pt x="465" y="332" on="0"/>
        <pt x="540" y="250" on="0"/>
        <pt x="540" y="101" on="0"/>
        <pt x="431" y="0" on="0"/>
        <pt x="332" y="0" on="1"/>
        <pt x="73" y="0" on="1"/>
      </contour>
      <contour>
        <pt x="176" y="589" on="1"/>
        <pt x="176" y="382" on="1"/>
        <pt x="269" y="382" on="1"/>
        <pt x="344" y="382" on="0"/>
        <pt x="417" y="443" on="0"/>
        <pt x="417" y="535" on="0"/>
        <pt x="352" y="589" on="0"/>
        <pt x="286" y="589" on="1"/>
      </contour>
      <contour>
        <pt x="176" y="85" on="1"/>
        <pt x="308" y="85" on="1"/>
        <pt x="435" y="85" on="0"/>
        <pt x="435" y="190" on="1"/>
        <pt x="435" y="241" on="0"/>
        <pt x="366" y="298" on="0"/>
        <pt x="298" y="298" on="1"/>
        <pt x="176" y="298" on="1"/>
      </contour>
    </TTGlyph>
    <TTGlyph name="C" xMin="46" yMin="-8" xMax="561" yMax="683">
      <contour>
        <pt x="390" y="588" on="1"/>
        <pt x="289" y="588" on="0"/>
        <pt x="154" y="451" on="0"/>
        <pt x="154" y="223" on="0"/>
        <pt x="288" y="87" on="0"/>
        <pt x="495" y="87" on="0"/>
        <pt x="561" y="137" on="1"/>
        <pt x="561" y="33" on="1"/>
        <pt x="499" y="-8" on="0"/>
        <pt x="389" y="-8" on="1"/>
        <pt x="238" y="-8" on="0"/>
        <pt x="46" y="180" on="0"/>
        <pt x="46" y="491" on="0"/>
        <pt x="239" y="683" on="0"/>
        <pt x="387" y="683" on="1"/>
        <pt x="495" y="683" on="0"/>
        <pt x="560" y="646" on="1"/>
        <pt x="560" y="545" on="1"/>
        <pt x="516" y="569" on="0"/>
        <pt x="445" y="588" on="0"/>
      </contour>
    </TTGlyph>
    <TTGlyph name="Cacute" xMin="46" yMin="-8" xMax="561" yMax="887">
      <contour>
        <pt x="323" y="725" on="1"/>
        <pt x="418" y="887" on="1"/>
        <pt x="527" y="887" on="1"/>
        <pt x="407" y="725" on="1"/>
      </contour>
      <contour>
        <pt x="390" y="588" on="1"/>
        <pt x="289" y="588" on="0"/>
        <pt x="154" y="451" on="0"/>
        <pt x="154" y="223" on="0"/>
        <pt x="288" y="87" on="0"/>
        <pt x="495" y="87" on="0"/>
        <pt x="561" y="137" on="1"/>
        <pt x="561" y="33" on="1"/>
        <pt x="499" y="-8" on="0"/>
        <pt x="389" y="-8" on="1"/>
        <pt x="238" y="-8" on="0"/>
        <pt x="46" y="180" on="0"/>
        <pt x="46" y="491" on="0"/>
        <pt x="239" y="683" on="0"/>
        <pt x="387" y="683" on="1"/>
        <pt x="495" y="683" on="0"/>
        <pt x="560" y="646" on="1"/>
        <pt x="560" y="545" on="1"/>
        <pt x="516" y="569" on="0"/>
        <pt x="445" y="588" on="0"/>
      </contour>
    </TTGlyph>
    <TTGlyph name="Ccaron" xMin="46" yMin="-8" xMax="561" yMax="887">
      <contour>
        <pt x="418" y="725" on="1"/>
        <pt x="328" y="725" on="1"/>
        <pt x="193" y="887" on="1"/>
        <pt x="290" y="887" on="1"/>
        <pt x="373" y="785" on="1"/>
        <pt x="456" y="887" on="1"/>
        <pt x="553" y="887" on="1"/>
      </contour>
      <contour>
        <pt x="390" y="588" on="1"/>
        <pt x="289" y="588" on="0"/>
        <pt x="154" y="451" on="0"/>
        <pt x="154" y="223" on="0"/>
        <pt x="288" y="87" on="0"/>
        <pt x="495" y="87" on="0"/>
        <pt x="561" y="137" on="1"/>
        <pt x="561" y="33" on="1"/>
        <pt x="499" y="-8" on="0"/>
        <pt x="389" y="-8" on="1"/>
        <pt x="238" y="-8" on="0"/>
        <pt x="46" y="180" on="0"/>
        <pt x="46" y="491" on="0"/>
        <pt x="239" y="683" on="0"/>
        <pt x="387" y="683" on="1"/>
        <pt x="495" y="683" on="0"/>
        <pt x="560" y="646" on="1"/>
        <pt x="560" y="545" on="1"/>
        <pt x="516" y="569" on="0"/>
        <pt x="445" y="588" on="0"/>
      </contour>
    </TTGlyph>
    <TTGlyph name="Ccedilla" xMin="46" yMin="-257" xMax="561" yMax="683">
      <contour>
        <pt x="390" y="588" on="1"/>
        <pt x="289" y="588" on="0"/>
        <pt x="154" y="451" on="0"/>
        <pt x="154" y="223" on="0"/>
        <pt x="288" y="87" on="0"/>
        <pt x="495" y="87" on="0"/>
        <pt x="561" y="137" on="1"/>
        <pt x="561" y="33" on="1"/>
        <pt x="499" y="-8" on="0"/>
        <pt x="389" y="-8" on="1"/>
        <pt x="238" y="-8" on="0"/>
        <pt x="46" y="180" on="0"/>
        <pt x="46" y="491" on="0"/>
        <pt x="239" y="683" on="0"/>
        <pt x="387" y="683" on="1"/>
        <pt x="495" y="683" on="0"/>
        <pt x="560" y="646" on="1"/>
        <pt x="560" y="545" on="1"/>
        <pt x="516" y="569" on="0"/>
        <pt x="445" y="588" on="0"/>
      </contour>
      <contour>
        <pt x="412" y="-51" on="1"/>
        <pt x="430" y="-76" on="0"/>
        <pt x="430" y="-179" on="0"/>
        <pt x="348" y="-256" on="0"/>
        <pt x="271" y="-257" on="1"/>
        <pt x="271" y="-189" on="1"/>
        <pt x="353" y="-184" on="0"/>
        <pt x="353" y="-120" on="1"/>
        <pt x="353" y="-88" on="0"/>
        <pt x="328" y="-51" on="1"/>
      </contour>
    </TTGlyph>
    <TTGlyph name="Ccircumflex" xMin="46" yMin="-8" xMax="561" yMax="887">
      <contour>
        <pt x="314" y="887" on="1"/>
        <pt x="404" y="887" on="1"/>
        <pt x="539" y="725" on="1"/>
        <pt x="442" y="725" on="1"/>
        <pt x="358" y="827" on="1"/>
        <pt x="276" y="725" on="1"/>
        <pt x="179" y="725" on="1"/>
      </contour>
      <contour>
        <pt x="390" y="588" on="1"/>
        <pt x="289" y="588" on="0"/>
        <pt x="154" y="451" on="0"/>
        <pt x="154" y="223" on="0"/>
        <pt x="288" y="87" on="0"/>
        <pt x="495" y="87" on="0"/>
        <pt x="561" y="137" on="1"/>
        <pt x="561" y="33" on="1"/>
        <pt x="499" y="-8" on="0"/>
        <pt x="389" y="-8" on="1"/>
        <pt x="238" y="-8" on="0"/>
        <pt x="46" y="180" on="0"/>
        <pt x="46" y="491" on="0"/>
        <pt x="239" y="683" on="0"/>
        <pt x="387" y="683" on="1"/>
        <pt x="495" y="683" on="0"/>
        <pt x="560" y="646" on="1"/>
        <pt x="560" y="545" on="1"/>
        <pt x="516" y="569" on="0"/>
        <pt x="445" y="588" on="0"/>
      </contour>
    </TTGlyph>
    <TTGlyph name="Cdotaccent" xMin="46" yMin="-8" xMax="561" yMax="869">
      <contour>
        <pt x="390" y="588" on="1"/>
        <pt x="289" y="588" on="0"/>
        <pt x="154" y="451" on="0"/>
        <pt x="154" y="223" on="0"/>
        <pt x="288" y="87" on="0"/>
        <pt x="495" y="87" on="0"/>
        <pt x="561" y="137" on="1"/>
        <pt x="561" y="33" on="1"/>
        <pt x="499" y="-8" on="0"/>
        <pt x="389" y="-8" on="1"/>
        <pt x="238" y="-8" on="0"/>
        <pt x="46" y="180" on="0"/>
        <pt x="46" y="491" on="0"/>
        <pt x="239" y="683" on="0"/>
        <pt x="387" y="683" on="1"/>
        <pt x="495" y="683" on="0"/>
        <pt x="560" y="646" on="1"/>
        <pt x="560" y="545" on="1"/>
        <pt x="516" y="569" on="0"/>
        <pt x="445" y="588" on="0"/>
      </contour>
      <contour>
        <pt x="312" y="783" on="0"/>
        <pt x="312" y="835" on="0"/>
        <pt x="347" y="869" on="0"/>
        <pt x="399" y="869" on="0"/>
        <pt x="433" y="835" on="0"/>
        <pt x="433" y="783" on="0"/>
        <pt x="399" y="749" on="0"/>
        <pt x="347" y="749" on="0"/>
      </contour>
    </TTGlyph>
    <TTGlyph name="D" xMin="73" yMin="0" xMax="625" yMax="674">
      <contour>
        <pt x="73" y="674" on="1"/>
        <pt x="283" y="674" on="1"/>
        <pt x="433" y="674" on="0"/>
        <pt x="625" y="488" on="0"/>
        <pt x="625" y="194" on="0"/>
        <pt x="444" y="0" on="0"/>
        <pt x="285" y="0" on="1"/>
        <pt x="73" y="0" on="1"/>
      </contour>
      <contour>
        <pt x="178" y="87" on="1"/>
        <pt x="284" y="87" on="1"/>
        <pt x="399" y="87" on="0"/>
        <pt x="519" y="231" on="0"/>
        <pt x="519" y="448" on="0"/>
        <pt x="389" y="586" on="0"/>
        <pt x="281" y="586" on="1"/>
        <pt x="178" y="586" on="1"/>
      </contour>
    </TTGlyph>
    <TTGlyph name="Dcaron" xMin="73" yMin="0" xMax="625" yMax="887">
      <contour>
        <pt x="73" y="674" on="1"/>
        <pt x="283" y="674" on="1"/>
        <pt x="433" y="674" on="0"/>
        <pt x="625" y="488" on="0"/>
        <pt x="625" y="194" on="0"/>
        <pt x="444" y="0" on="0"/>
        <pt x="285" y="0" on="1"/>
        <pt x="73" y="0" on="1"/>
      </contour>
      <contour>
        <pt x="178" y="87" on="1"/>
        <pt x="284" y="87" on="1"/>
        <pt x="399" y="87" on="0"/>
        <pt x="519" y="231" on="0"/>
        <pt x="519" y="448" on="0"/>
        <pt x="389" y="586" on="0"/>
        <pt x="281" y="586" on="1"/>
        <pt x="178" y="586" on="1"/>
      </contour>
      <contour>
        <pt x="355" y="725" on="1"/>
        <pt x="265" y="725" on="1"/>
        <pt x="130" y="887" on="1"/>
        <pt x="227" y="887" on="1"/>
        <pt x="310" y="785" on="1"/>
        <pt x="393" y="887" on="1"/>
        <pt x="490" y="887" on="1"/>
      </contour>
    </TTGlyph>
    <TTGlyph name="Dcroat" xMin="62" yMin="0" xMax="693" yMax="674">
      <contour>
        <pt x="142" y="674" on="1"/>
        <pt x="351" y="674" on="1"/>
        <pt x="501" y="674" on="0"/>
        <pt x="693" y="488" on="0"/>
        <pt x="693" y="194" on="0"/>
        <pt x="512" y="0" on="0"/>
        <pt x="353" y="0" on="1"/>
        <pt x="142" y="0" on="1"/>
        <pt x="142" y="294" on="1"/>
        <pt x="62" y="294" on="1"/>
        <pt x="62" y="378" on="1"/>
        <pt x="142" y="378" on="1"/>
      </contour>
      <contour>
        <pt x="246" y="87" on="1"/>
        <pt x="352" y="87" on="1"/>
        <pt x="468" y="87" on="0"/>
        <pt x="588" y="231" on="0"/>
        <pt x="588" y="448" on="0"/>
        <pt x="457" y="586" on="0"/>
        <pt x="349" y="586" on="1"/>
        <pt x="246" y="586" on="1"/>
        <pt x="246" y="378" on="1"/>
        <pt x="410" y="378" on="1"/>
        <pt x="410" y="294" on="1"/>
        <pt x="246" y="294" on="1"/>
      </contour>
    </TTGlyph>
    <TTGlyph name="Delta" xMin="32" yMin="0" xMax="604" yMax="674">
      <contour>
        <pt x="604" y="0" on="1"/>
        <pt x="32" y="0" on="1"/>
        <pt x="32" y="76" on="1"/>
        <pt x="252" y="674" on="1"/>
        <pt x="388" y="674" on="1"/>
        <pt x="604" y="76" on="1"/>
      </contour>
      <contour>
        <pt x="142" y="85" on="1"/>
        <pt x="494" y="85" on="1"/>
        <pt x="434" y="264" on="1"/>
        <pt x="319" y="597" on="1"/>
        <pt x="241" y="375" on="0"/>
      </contour>
    </TTGlyph>
    <TTGlyph name="E" xMin="73" yMin="0" xMax="462" yMax="674">
      <contour>
        <pt x="176" y="86" on="1"/>
        <pt x="462" y="86" on="1"/>
        <pt x="462" y="0" on="1"/>
        <pt x="73" y="0" on="1"/>
        <pt x="73" y="674" on="1"/>
        <pt x="457" y="674" on="1"/>
        <pt x="457" y="588" on="1"/>
        <pt x="176" y="588" on="1"/>
        <pt x="176" y="380" on="1"/>
        <pt x="425" y="380" on="1"/>
        <pt x="425" y="294" on="1"/>
        <pt x="176" y="294" on="1"/>
      </contour>
    </TTGlyph>
    <TTGlyph name="Eacute" xMin="73" yMin="0" xMax="462" yMax="887">
      <contour>
        <pt x="176" y="86" on="1"/>
        <pt x="462" y="86" on="1"/>
        <pt x="462" y="0" on="1"/>
        <pt x="73" y="0" on="1"/>
        <pt x="73" y="674" on="1"/>
        <pt x="457" y="674" on="1"/>
        <pt x="457" y="588" on="1"/>
        <pt x="176" y="588" on="1"/>
        <pt x="176" y="380" on="1"/>
        <pt x="425" y="380" on="1"/>
        <pt x="425" y="294" on="1"/>
        <pt x="176" y="294" on="1"/>
      </contour>
      <contour>
        <pt x="442" y="887" on="1"/>
        <pt x="322" y="725" on="1"/>
        <pt x="238" y="725" on="1"/>
        <pt x="333" y="887" on="1"/>
      </contour>
    </TTGlyph>
    <TTGlyph name="Ebreve" xMin="73" yMin="0" xMax="462" yMax="887">
      <contour>
        <pt x="176" y="86" on="1"/>
        <pt x="462" y="86" on="1"/>
        <pt x="462" y="0" on="1"/>
        <pt x="73" y="0" on="1"/>
        <pt x="73" y="674" on="1"/>
        <pt x="457" y="674" on="1"/>
        <pt x="457" y="588" on="1"/>
        <pt x="176" y="588" on="1"/>
        <pt x="176" y="380" on="1"/>
        <pt x="425" y="380" on="1"/>
        <pt x="425" y="294" on="1"/>
        <pt x="176" y="294" on="1"/>
      </contour>
      <contour>
        <pt x="369" y="887" on="1"/>
        <pt x="447" y="887" on="1"/>
        <pt x="447" y="808" on="0"/>
        <pt x="357" y="722" on="0"/>
        <pt x="189" y="722" on="0"/>
        <pt x="99" y="808" on="0"/>
        <pt x="99" y="887" on="1"/>
        <pt x="177" y="887" on="1"/>
        <pt x="177" y="843" on="0"/>
        <pt x="225" y="789" on="0"/>
        <pt x="321" y="789" on="0"/>
        <pt x="369" y="843" on="0"/>
      </contour>
    </TTGlyph>
    <TTGlyph name="Ecaron" xMin="73" yMin="0" xMax="462" yMax="887">
      <contour>
        <pt x="176" y="86" on="1"/>
        <pt x="462" y="86" on="1"/>
        <pt x="462" y="0" on="1"/>
        <pt x="73" y="0" on="1"/>
        <pt x="73" y="674" on="1"/>
        <pt x="457" y="674" on="1"/>
        <pt x="457" y="588" on="1"/>
        <pt x="176" y="588" on="1"/>
        <pt x="176" y="380" on="1"/>
        <pt x="425" y="380" on="1"/>
        <pt x="425" y="294" on="1"/>
        <pt x="176" y="294" on="1"/>
      </contour>
      <contour>
        <pt x="319" y="725" on="1"/>
        <pt x="229" y="725" on="1"/>
        <pt x="94" y="887" on="1"/>
        <pt x="191" y="887" on="1"/>
        <pt x="274" y="785" on="1"/>
        <pt x="357" y="887" on="1"/>
        <pt x="454" y="887" on="1"/>
      </contour>
    </TTGlyph>
    <TTGlyph name="Ecircumflex" xMin="73" yMin="0" xMax="462" yMax="887">
      <contour>
        <pt x="176" y="86" on="1"/>
        <pt x="462" y="86" on="1"/>
        <pt x="462" y="0" on="1"/>
        <pt x="73" y="0" on="1"/>
        <pt x="73" y="674" on="1"/>
        <pt x="457" y="674" on="1"/>
        <pt x="457" y="588" on="1"/>
        <pt x="176" y="588" on="1"/>
        <pt x="176" y="380" on="1"/>
        <pt x="425" y="380" on="1"/>
        <pt x="425" y="294" on="1"/>
        <pt x="176" y="294" on="1"/>
      </contour>
      <contour>
        <pt x="272" y="827" on="1"/>
        <pt x="190" y="725" on="1"/>
        <pt x="93" y="725" on="1"/>
        <pt x="228" y="887" on="1"/>
        <pt x="318" y="887" on="1"/>
        <pt x="453" y="725" on="1"/>
        <pt x="356" y="725" on="1"/>
      </contour>
    </TTGlyph>
    <TTGlyph name="Edieresis" xMin="73" yMin="0" xMax="462" yMax="866">
      <contour>
        <pt x="176" y="86" on="1"/>
        <pt x="462" y="86" on="1"/>
        <pt x="462" y="0" on="1"/>
        <pt x="73" y="0" on="1"/>
        <pt x="73" y="674" on="1"/>
        <pt x="457" y="674" on="1"/>
        <pt x="457" y="588" on="1"/>
        <pt x="176" y="588" on="1"/>
        <pt x="176" y="380" on="1"/>
        <pt x="425" y="380" on="1"/>
        <pt x="425" y="294" on="1"/>
        <pt x="176" y="294" on="1"/>
      </contour>
      <contour>
        <pt x="219" y="780" on="0"/>
        <pt x="184" y="746" on="0"/>
        <pt x="132" y="746" on="0"/>
        <pt x="98" y="780" on="0"/>
        <pt x="98" y="832" on="0"/>
        <pt x="132" y="866" on="0"/>
        <pt x="184" y="866" on="0"/>
        <pt x="219" y="832" on="0"/>
      </contour>
      <contour>
        <pt x="440" y="780" on="0"/>
        <pt x="405" y="746" on="0"/>
        <pt x="354" y="746" on="0"/>
        <pt x="319" y="780" on="0"/>
        <pt x="319" y="832" on="0"/>
        <pt x="354" y="866" on="0"/>
        <pt x="405" y="866" on="0"/>
        <pt x="440" y="832" on="0"/>
      </contour>
    </TTGlyph>
    <TTGlyph name="Edotaccent" xMin="73" yMin="0" xMax="462" yMax="868">
      <contour>
        <pt x="176" y="86" on="1"/>
        <pt x="462" y="86" on="1"/>
        <pt x="462" y="0" on="1"/>
        <pt x="73" y="0" on="1"/>
        <pt x="73" y="674" on="1"/>
        <pt x="457" y="674" on="1"/>
        <pt x="457" y="588" on="1"/>
        <pt x="176" y="588" on="1"/>
        <pt x="176" y="380" on="1"/>
        <pt x="425" y="380" on="1"/>
        <pt x="425" y="294" on="1"/>
        <pt x="176" y="294" on="1"/>
      </contour>
      <contour>
        <pt x="303" y="748" on="0"/>
        <pt x="251" y="748" on="0"/>
        <pt x="216" y="782" on="0"/>
        <pt x="216" y="834" on="0"/>
        <pt x="251" y="868" on="0"/>
        <pt x="303" y="868" on="0"/>
        <pt x="337" y="834" on="0"/>
        <pt x="337" y="782" on="0"/>
      </contour>
    </TTGlyph>
    <TTGlyph name="Egrave" xMin="73" yMin="0" xMax="462" yMax="887">
      <contour>
        <pt x="176" y="86" on="1"/>
        <pt x="462" y="86" on="1"/>
        <pt x="462" y="0" on="1"/>
        <pt x="73" y="0" on="1"/>
        <pt x="73" y="674" on="1"/>
        <pt x="457" y="674" on="1"/>
        <pt x="457" y="588" on="1"/>
        <pt x="176" y="588" on="1"/>
        <pt x="176" y="380" on="1"/>
        <pt x="425" y="380" on="1"/>
        <pt x="425" y="294" on="1"/>
        <pt x="176" y="294" on="1"/>
      </contour>
      <contour>
        <pt x="327" y="725" on="1"/>
        <pt x="243" y="725" on="1"/>
        <pt x="123" y="887" on="1"/>
        <pt x="232" y="887" on="1"/>
      </contour>
    </TTGlyph>
    <TTGlyph name="Emacron" xMin="73" yMin="0" xMax="462" yMax="842">
      <contour>
        <pt x="176" y="86" on="1"/>
        <pt x="462" y="86" on="1"/>
        <pt x="462" y="0" on="1"/>
        <pt x="73" y="0" on="1"/>
        <pt x="73" y="674" on="1"/>
        <pt x="457" y="674" on="1"/>
        <pt x="457" y="588" on="1"/>
        <pt x="176" y="588" on="1"/>
        <pt x="176" y="380" on="1"/>
        <pt x="425" y="380" on="1"/>
        <pt x="425" y="294" on="1"/>
        <pt x="176" y="294" on="1"/>
      </contour>
      <contour>
        <pt x="418" y="842" on="1"/>
        <pt x="418" y="774" on="1"/>
        <pt x="114" y="774" on="1"/>
        <pt x="114" y="842" on="1"/>
      </contour>
    </TTGlyph>
    <TTGlyph name="Eng" xMin="73" yMin="-199" xMax="607" yMax="674">
      <contour>
        <pt x="504" y="674" on="1"/>
        <pt x="607" y="674" on="1"/>
        <pt x="607" y="-16" on="1"/>
        <pt x="607" y="-110" on="0"/>
        <pt x="516" y="-199" on="0"/>
        <pt x="379" y="-199" on="0"/>
        <pt x="340" y="-177" on="1"/>
        <pt x="340" y="-82" on="1"/>
        <pt x="378" y="-107" on="0"/>
        <pt x="422" y="-107" on="1"/>
        <pt x="504" y="-107" on="0"/>
        <pt x="504" y="-20" on="1"/>
        <pt x="504" y="0" on="1"/>
        <pt x="485" y="0" on="1"/>
        <pt x="230" y="429" on="0"/>
        <pt x="168" y="551" on="1"/>
        <pt x="176" y="451" on="0"/>
        <pt x="176" y="282" on="1"/>
        <pt x="176" y="0" on="1"/>
        <pt x="73" y="0" on="1"/>
        <pt x="73" y="674" on="1"/>
        <pt x="195" y="674" on="1"/>
        <pt x="454" y="234" on="0"/>
        <pt x="510" y="124" on="1"/>
        <pt x="504" y="215" on="0"/>
        <pt x="504" y="391" on="1"/>
      </contour>
    </TTGlyph>
    <TTGlyph name="Eogonek" xMin="73" yMin="-247" xMax="462" yMax="674">
      <contour>
        <pt x="462" y="0" on="1"/>
        <pt x="399" y="0" on="1"/>
        <pt x="285" y="-61" on="0"/>
        <pt x="285" y="-127" on="1"/>
        <pt x="285" y="-178" on="0"/>
        <pt x="343" y="-178" on="1"/>
        <pt x="384" y="-178" on="0"/>
        <pt x="417" y="-154" on="1"/>
        <pt x="417" y="-226" on="1"/>
        <pt x="381" y="-247" on="0"/>
        <pt x="268" y="-247" on="0"/>
        <pt x="203" y="-184" on="0"/>
        <pt x="203" y="-135" on="1"/>
        <pt x="203" y="-61" on="0"/>
        <pt x="281" y="0" on="1"/>
        <pt x="73" y="0" on="1"/>
        <pt x="73" y="674" on="1"/>
        <pt x="457" y="674" on="1"/>
        <pt x="457" y="588" on="1"/>
        <pt x="176" y="588" on="1"/>
        <pt x="176" y="380" on="1"/>
        <pt x="425" y="380" on="1"/>
        <pt x="425" y="294" on="1"/>
        <pt x="176" y="294" on="1"/>
        <pt x="176" y="86" on="1"/>
        <pt x="462" y="86" on="1"/>
      </contour>
    </TTGlyph>
    <TTGlyph name="Eth" xMin="62" yMin="0" xMax="693" yMax="674">
      <contour>
        <pt x="142" y="674" on="1"/>
        <pt x="351" y="674" on="1"/>
        <pt x="501" y="674" on="0"/>
        <pt x="693" y="488" on="0"/>
        <pt x="693" y="194" on="0"/>
        <pt x="512" y="0" on="0"/>
        <pt x="353" y="0" on="1"/>
        <pt x="142" y="0" on="1"/>
        <pt x="142" y="294" on="1"/>
        <pt x="62" y="294" on="1"/>
        <pt x="62" y="378" on="1"/>
        <pt x="142" y="378" on="1"/>
      </contour>
      <contour>
        <pt x="246" y="87" on="1"/>
        <pt x="352" y="87" on="1"/>
        <pt x="468" y="87" on="0"/>
        <pt x="588" y="231" on="0"/>
        <pt x="588" y="448" on="0"/>
        <pt x="457" y="586" on="0"/>
        <pt x="349" y="586" on="1"/>
        <pt x="246" y="586" on="1"/>
        <pt x="246" y="378" on="1"/>
        <pt x="410" y="378" on="1"/>
        <pt x="410" y="294" on="1"/>
        <pt x="246" y="294" on="1"/>
      </contour>
    </TTGlyph>
    <TTGlyph name="Euro" xMin="48" yMin="-8" xMax="560" yMax="661">
      <contour>
        <pt x="560" y="536" on="1"/>
        <pt x="512" y="567" on="0"/>
        <pt x="376" y="567" on="0"/>
        <pt x="280" y="501" on="0"/>
        <pt x="257" y="439" on="1"/>
        <pt x="451" y="439" on="1"/>
        <pt x="451" y="372" on="1"/>
        <pt x="241" y="372" on="1"/>
        <pt x="238" y="348" on="0"/>
        <pt x="238" y="308" on="0"/>
        <pt x="240" y="282" on="1"/>
        <pt x="451" y="282" on="1"/>
        <pt x="451" y="215" on="1"/>
        <pt x="255" y="215" on="1"/>
        <pt x="278" y="152" on="0"/>
        <pt x="374" y="84" on="0"/>
        <pt x="510" y="84" on="0"/>
        <pt x="560" y="117" on="1"/>
        <pt x="560" y="19" on="1"/>
        <pt x="508" y="-8" on="0"/>
        <pt x="323" y="-8" on="0"/>
        <pt x="174" y="112" on="0"/>
        <pt x="147" y="215" on="1"/>
        <pt x="48" y="215" on="1"/>
        <pt x="48" y="282" on="1"/>
        <pt x="136" y="282" on="1"/>
        <pt x="134" y="308" on="0"/>
        <pt x="134" y="340" on="0"/>
        <pt x="136" y="372" on="1"/>
        <pt x="48" y="372" on="1"/>
        <pt x="48" y="439" on="1"/>
        <pt x="148" y="439" on="1"/>
        <pt x="177" y="544" on="0"/>
        <pt x="327" y="661" on="0"/>
        <pt x="508" y="661" on="0"/>
        <pt x="560" y="633" on="1"/>
      </contour>
    </TTGlyph>
    <TTGlyph name="F" xMin="73" yMin="0" xMax="455" yMax="674">
      <contour>
        <pt x="455" y="588" on="1"/>
        <pt x="176" y="588" on="1"/>
        <pt x="176" y="367" on="1"/>
        <pt x="421" y="367" on="1"/>
        <pt x="421" y="281" on="1"/>
        <pt x="176" y="281" on="1"/>
        <pt x="176" y="0" on="1"/>
        <pt x="73" y="0" on="1"/>
        <pt x="73" y="674" on="1"/>
        <pt x="455" y="674" on="1"/>
      </contour>
    </TTGlyph>
    <TTGlyph name="G" xMin="46" yMin="-8" xMax="615" yMax="686">
      <contour>
        <pt x="615" y="385" on="1"/>
        <pt x="615" y="62" on="1"/>
        <pt x="614" y="62" on="1"/>
        <pt x="615" y="55" on="1"/>
        <pt x="528" y="-8" on="0"/>
        <pt x="397" y="-8" on="1"/>
        <pt x="239" y="-8" on="0"/>
        <pt x="46" y="178" on="0"/>
        <pt x="46" y="493" on="0"/>
        <pt x="241" y="686" on="0"/>
        <pt x="391" y="686" on="1"/>
        <pt x="508" y="686" on="0"/>
        <pt x="587" y="641" on="1"/>
        <pt x="587" y="535" on="1"/>
        <pt x="501" y="589" on="0"/>
        <pt x="287" y="589" on="0"/>
        <pt x="154" y="451" on="0"/>
        <pt x="154" y="222" on="0"/>
        <pt x="285" y="88" on="0"/>
        <pt x="400" y="88" on="1"/>
        <pt x="460" y="88" on="0"/>
        <pt x="514" y="110" on="1"/>
        <pt x="514" y="296" on="1"/>
        <pt x="377" y="296" on="1"/>
        <pt x="377" y="385" on="1"/>
      </contour>
    </TTGlyph>
    <TTGlyph name="Gbreve" xMin="46" yMin="-8" xMax="615" yMax="887">
      <contour>
        <pt x="615" y="385" on="1"/>
        <pt x="615" y="62" on="1"/>
        <pt x="614" y="62" on="1"/>
        <pt x="615" y="55" on="1"/>
        <pt x="528" y="-8" on="0"/>
        <pt x="397" y="-8" on="1"/>
        <pt x="239" y="-8" on="0"/>
        <pt x="46" y="178" on="0"/>
        <pt x="46" y="493" on="0"/>
        <pt x="241" y="686" on="0"/>
        <pt x="391" y="686" on="1"/>
        <pt x="508" y="686" on="0"/>
        <pt x="587" y="641" on="1"/>
        <pt x="587" y="535" on="1"/>
        <pt x="501" y="589" on="0"/>
        <pt x="287" y="589" on="0"/>
        <pt x="154" y="451" on="0"/>
        <pt x="154" y="222" on="0"/>
        <pt x="285" y="88" on="0"/>
        <pt x="400" y="88" on="1"/>
        <pt x="460" y="88" on="0"/>
        <pt x="514" y="110" on="1"/>
        <pt x="514" y="296" on="1"/>
        <pt x="377" y="296" on="1"/>
        <pt x="377" y="385" on="1"/>
      </contour>
      <contour>
        <pt x="467" y="887" on="1"/>
        <pt x="545" y="887" on="1"/>
        <pt x="545" y="808" on="0"/>
        <pt x="455" y="722" on="0"/>
        <pt x="287" y="722" on="0"/>
        <pt x="197" y="808" on="0"/>
        <pt x="197" y="887" on="1"/>
        <pt x="275" y="887" on="1"/>
        <pt x="275" y="843" on="0"/>
        <pt x="323" y="789" on="0"/>
        <pt x="419" y="789" on="0"/>
        <pt x="467" y="843" on="0"/>
      </contour>
    </TTGlyph>
    <TTGlyph name="Gcircumflex" xMin="46" yMin="-8" xMax="615" yMax="887">
      <contour>
        <pt x="615" y="385" on="1"/>
        <pt x="615" y="62" on="1"/>
        <pt x="614" y="62" on="1"/>
        <pt x="615" y="55" on="1"/>
        <pt x="528" y="-8" on="0"/>
        <pt x="397" y="-8" on="1"/>
        <pt x="239" y="-8" on="0"/>
        <pt x="46" y="178" on="0"/>
        <pt x="46" y="493" on="0"/>
        <pt x="241" y="686" on="0"/>
        <pt x="391" y="686" on="1"/>
        <pt x="508" y="686" on="0"/>
        <pt x="587" y="641" on="1"/>
        <pt x="587" y="535" on="1"/>
        <pt x="501" y="589" on="0"/>
        <pt x="287" y="589" on="0"/>
        <pt x="154" y="451" on="0"/>
        <pt x="154" y="222" on="0"/>
        <pt x="285" y="88" on="0"/>
        <pt x="400" y="88" on="1"/>
        <pt x="460" y="88" on="0"/>
        <pt x="514" y="110" on="1"/>
        <pt x="514" y="296" on="1"/>
        <pt x="377" y="296" on="1"/>
        <pt x="377" y="385" on="1"/>
      </contour>
      <contour>
        <pt x="371" y="827" on="1"/>
        <pt x="289" y="725" on="1"/>
        <pt x="192" y="725" on="1"/>
        <pt x="327" y="887" on="1"/>
        <pt x="417" y="887" on="1"/>
        <pt x="552" y="725" on="1"/>
        <pt x="455" y="725" on="1"/>
      </contour>
    </TTGlyph>
    <TTGlyph name="Gdotaccent" xMin="46" yMin="-8" xMax="615" yMax="867">
      <contour>
        <pt x="615" y="385" on="1"/>
        <pt x="615" y="62" on="1"/>
        <pt x="614" y="62" on="1"/>
        <pt x="615" y="55" on="1"/>
        <pt x="528" y="-8" on="0"/>
        <pt x="397" y="-8" on="1"/>
        <pt x="239" y="-8" on="0"/>
        <pt x="46" y="178" on="0"/>
        <pt x="46" y="493" on="0"/>
        <pt x="241" y="686" on="0"/>
        <pt x="391" y="686" on="1"/>
        <pt x="508" y="686" on="0"/>
        <pt x="587" y="641" on="1"/>
        <pt x="587" y="535" on="1"/>
        <pt x="501" y="589" on="0"/>
        <pt x="287" y="589" on="0"/>
        <pt x="154" y="451" on="0"/>
        <pt x="154" y="222" on="0"/>
        <pt x="285" y="88" on="0"/>
        <pt x="400" y="88" on="1"/>
        <pt x="460" y="88" on="0"/>
        <pt x="514" y="110" on="1"/>
        <pt x="514" y="296" on="1"/>
        <pt x="377" y="296" on="1"/>
        <pt x="377" y="385" on="1"/>
      </contour>
      <contour>
        <pt x="404" y="747" on="0"/>
        <pt x="352" y="747" on="0"/>
        <pt x="317" y="781" on="0"/>
        <pt x="317" y="833" on="0"/>
        <pt x="352" y="867" on="0"/>
        <pt x="404" y="867" on="0"/>
        <pt x="438" y="833" on="0"/>
        <pt x="438" y="781" on="0"/>
      </contour>
    </TTGlyph>
    <TTGlyph name="H" xMin="73" yMin="0" xMax="582" yMax="674">
      <contour>
        <pt x="479" y="674" on="1"/>
        <pt x="582" y="674" on="1"/>
        <pt x="582" y="0" on="1"/>
        <pt x="479" y="0" on="1"/>
        <pt x="479" y="295" on="1"/>
        <pt x="176" y="295" on="1"/>
        <pt x="176" y="0" on="1"/>
        <pt x="73" y="0" on="1"/>
        <pt x="73" y="674" on="1"/>
        <pt x="176" y="674" on="1"/>
        <pt x="176" y="384" on="1"/>
        <pt x="479" y="384" on="1"/>
      </contour>
    </TTGlyph>
    <TTGlyph name="Hbar" xMin="37" yMin="0" xMax="695" yMax="674">
      <contour>
        <pt x="695" y="572" on="1"/>
        <pt x="695" y="508" on="1"/>
        <pt x="620" y="508" on="1"/>
        <pt x="620" y="0" on="1"/>
        <pt x="517" y="0" on="1"/>
        <pt x="517" y="295" on="1"/>
        <pt x="214" y="295" on="1"/>
        <pt x="214" y="0" on="1"/>
        <pt x="111" y="0" on="1"/>
        <pt x="111" y="508" on="1"/>
        <pt x="37" y="508" on="1"/>
        <pt x="37" y="572" on="1"/>
        <pt x="111" y="572" on="1"/>
        <pt x="111" y="674" on="1"/>
        <pt x="214" y="674" on="1"/>
        <pt x="214" y="572" on="1"/>
        <pt x="517" y="572" on="1"/>
        <pt x="517" y="674" on="1"/>
        <pt x="620" y="674" on="1"/>
        <pt x="620" y="572" on="1"/>
      </contour>
      <contour>
        <pt x="517" y="384" on="1"/>
        <pt x="517" y="508" on="1"/>
        <pt x="214" y="508" on="1"/>
        <pt x="214" y="384" on="1"/>
      </contour>
    </TTGlyph>
    <TTGlyph name="Hcircumflex" xMin="73" yMin="0" xMax="582" yMax="887">
      <contour>
        <pt x="479" y="674" on="1"/>
        <pt x="582" y="674" on="1"/>
        <pt x="582" y="0" on="1"/>
        <pt x="479" y="0" on="1"/>
        <pt x="479" y="295" on="1"/>
        <pt x="176" y="295" on="1"/>
        <pt x="176" y="0" on="1"/>
        <pt x="73" y="0" on="1"/>
        <pt x="73" y="674" on="1"/>
        <pt x="176" y="674" on="1"/>
        <pt x="176" y="384" on="1"/>
        <pt x="479" y="384" on="1"/>
      </contour>
      <contour>
        <pt x="329" y="827" on="1"/>
        <pt x="247" y="725" on="1"/>
        <pt x="150" y="725" on="1"/>
        <pt x="285" y="887" on="1"/>
        <pt x="375" y="887" on="1"/>
        <pt x="510" y="725" on="1"/>
        <pt x="413" y="725" on="1"/>
      </contour>
    </TTGlyph>
    <TTGlyph name="I" xMin="81" yMin="0" xMax="183" yMax="674">
      <contour>
        <pt x="81" y="0" on="1"/>
        <pt x="81" y="674" on="1"/>
        <pt x="183" y="674" on="1"/>
        <pt x="183" y="0" on="1"/>
      </contour>
    </TTGlyph>
    <TTGlyph name="IJ" xMin="81" yMin="0" xMax="524" yMax="674">
      <contour>
        <pt x="339" y="91" on="1"/>
        <pt x="421" y="91" on="0"/>
        <pt x="421" y="178" on="1"/>
        <pt x="421" y="674" on="1"/>
        <pt x="524" y="674" on="1"/>
        <pt x="524" y="182" on="1"/>
        <pt x="524" y="89" on="0"/>
        <pt x="433" y="0" on="0"/>
        <pt x="294" y="0" on="0"/>
        <pt x="257" y="21" on="1"/>
        <pt x="257" y="116" on="1"/>
        <pt x="298" y="91" on="0"/>
      </contour>
      <contour>
        <pt x="81" y="0" on="1"/>
        <pt x="81" y="674" on="1"/>
        <pt x="183" y="674" on="1"/>
        <pt x="183" y="0" on="1"/>
      </contour>
    </TTGlyph>
    <TTGlyph name="Iacute" xMin="81" yMin="0" xMax="298" yMax="887">
      <contour>
        <pt x="94" y="725" on="1"/>
        <pt x="189" y="887" on="1"/>
        <pt x="298" y="887" on="1"/>
        <pt x="178" y="725" on="1"/>
      </contour>
      <contour>
        <pt x="81" y="0" on="1"/>
        <pt x="81" y="674" on="1"/>
        <pt x="183" y="674" on="1"/>
        <pt x="183" y="0" on="1"/>
      </contour>
    </TTGlyph>
    <TTGlyph name="Ibreve" xMin="-41" yMin="0" xMax="307" yMax="887">
      <contour>
        <pt x="81" y="0" on="1"/>
        <pt x="81" y="674" on="1"/>
        <pt x="183" y="674" on="1"/>
        <pt x="183" y="0" on="1"/>
      </contour>
      <contour>
        <pt x="-41" y="887" on="1"/>
        <pt x="37" y="887" on="1"/>
        <pt x="37" y="843" on="0"/>
        <pt x="85" y="789" on="0"/>
        <pt x="181" y="789" on="0"/>
        <pt x="229" y="843" on="0"/>
        <pt x="229" y="887" on="1"/>
        <pt x="307" y="887" on="1"/>
        <pt x="307" y="808" on="0"/>
        <pt x="217" y="722" on="0"/>
        <pt x="49" y="722" on="0"/>
        <pt x="-41" y="808" on="0"/>
      </contour>
    </TTGlyph>
    <TTGlyph name="Icircumflex" xMin="-47" yMin="0" xMax="313" yMax="887">
      <contour>
        <pt x="81" y="0" on="1"/>
        <pt x="81" y="674" on="1"/>
        <pt x="183" y="674" on="1"/>
        <pt x="183" y="0" on="1"/>
      </contour>
      <contour>
        <pt x="88" y="887" on="1"/>
        <pt x="178" y="887" on="1"/>
        <pt x="313" y="725" on="1"/>
        <pt x="216" y="725" on="1"/>
        <pt x="132" y="827" on="1"/>
        <pt x="50" y="725" on="1"/>
        <pt x="-47" y="725" on="1"/>
      </contour>
    </TTGlyph>
    <TTGlyph name="Idieresis" xMin="-36" yMin="0" xMax="306" yMax="867">
      <contour>
        <pt x="185" y="782" on="0"/>
        <pt x="185" y="832" on="0"/>
        <pt x="220" y="867" on="0"/>
        <pt x="271" y="867" on="0"/>
        <pt x="306" y="833" on="0"/>
        <pt x="306" y="781" on="0"/>
        <pt x="271" y="747" on="0"/>
        <pt x="220" y="747" on="0"/>
      </contour>
      <contour>
        <pt x="-36" y="781" on="0"/>
        <pt x="-36" y="833" on="0"/>
        <pt x="-2" y="867" on="0"/>
        <pt x="50" y="867" on="0"/>
        <pt x="85" y="832" on="0"/>
        <pt x="85" y="782" on="0"/>
        <pt x="50" y="747" on="0"/>
        <pt x="-2" y="747" on="0"/>
      </contour>
      <contour>
        <pt x="81" y="0" on="1"/>
        <pt x="81" y="674" on="1"/>
        <pt x="183" y="674" on="1"/>
        <pt x="183" y="0" on="1"/>
      </contour>
    </TTGlyph>
    <TTGlyph name="Idotaccent" xMin="72" yMin="0" xMax="193" yMax="868">
      <contour>
        <pt x="72" y="782" on="0"/>
        <pt x="72" y="834" on="0"/>
        <pt x="107" y="868" on="0"/>
        <pt x="159" y="868" on="0"/>
        <pt x="193" y="834" on="0"/>
        <pt x="193" y="782" on="0"/>
        <pt x="159" y="748" on="0"/>
        <pt x="107" y="748" on="0"/>
      </contour>
      <contour>
        <pt x="81" y="0" on="1"/>
        <pt x="81" y="674" on="1"/>
        <pt x="183" y="674" on="1"/>
        <pt x="183" y="0" on="1"/>
      </contour>
    </TTGlyph>
    <TTGlyph name="Igrave" xMin="-35" yMin="0" xMax="183" yMax="887">
      <contour>
        <pt x="74" y="887" on="1"/>
        <pt x="169" y="725" on="1"/>
        <pt x="85" y="725" on="1"/>
        <pt x="-35" y="887" on="1"/>
      </contour>
      <contour>
        <pt x="81" y="0" on="1"/>
        <pt x="81" y="674" on="1"/>
        <pt x="183" y="674" on="1"/>
        <pt x="183" y="0" on="1"/>
      </contour>
    </TTGlyph>
    <TTGlyph name="Imacron" xMin="-20" yMin="0" xMax="284" yMax="840">
      <contour>
        <pt x="284" y="772" on="1"/>
        <pt x="-20" y="772" on="1"/>
        <pt x="-20" y="840" on="1"/>
        <pt x="284" y="840" on="1"/>
      </contour>
      <contour>
        <pt x="81" y="0" on="1"/>
        <pt x="81" y="674" on="1"/>
        <pt x="183" y="674" on="1"/>
        <pt x="183" y="0" on="1"/>
      </contour>
    </TTGlyph>
    <TTGlyph name="Iogonek" xMin="-13" yMin="-247" xMax="201" yMax="674">
      <contour>
        <pt x="183" y="674" on="1"/>
        <pt x="183" y="0" on="1"/>
        <pt x="69" y="-61" on="0"/>
        <pt x="69" y="-127" on="1"/>
        <pt x="69" y="-178" on="0"/>
        <pt x="127" y="-178" on="1"/>
        <pt x="168" y="-178" on="0"/>
        <pt x="201" y="-154" on="1"/>
        <pt x="201" y="-226" on="1"/>
        <pt x="165" y="-247" on="0"/>
        <pt x="52" y="-247" on="0"/>
        <pt x="-13" y="-184" on="0"/>
        <pt x="-13" y="-135" on="1"/>
        <pt x="-13" y="-52" on="0"/>
        <pt x="81" y="11" on="1"/>
        <pt x="81" y="674" on="1"/>
      </contour>
    </TTGlyph>
    <TTGlyph name="Itilde" xMin="-47" yMin="0" xMax="307" yMax="867">
      <contour>
        <pt x="198" y="751" on="1"/>
        <pt x="169" y="751" on="0"/>
        <pt x="88" y="792" on="0"/>
        <pt x="68" y="792" on="1"/>
        <pt x="33" y="792" on="0"/>
        <pt x="2" y="746" on="1"/>
        <pt x="-47" y="791" on="1"/>
        <pt x="-33" y="822" on="0"/>
        <pt x="24" y="865" on="0"/>
        <pt x="90" y="865" on="0"/>
        <pt x="174" y="824" on="0"/>
        <pt x="193" y="824" on="1"/>
        <pt x="230" y="824" on="0"/>
        <pt x="251" y="867" on="1"/>
        <pt x="307" y="825" on="1"/>
        <pt x="272" y="751" on="0"/>
      </contour>
      <contour>
        <pt x="81" y="0" on="1"/>
        <pt x="81" y="674" on="1"/>
        <pt x="183" y="674" on="1"/>
        <pt x="183" y="0" on="1"/>
      </contour>
    </TTGlyph>
    <TTGlyph name="J" xMin="30" yMin="0" xMax="297" yMax="674">
      <contour>
        <pt x="112" y="91" on="1"/>
        <pt x="194" y="91" on="0"/>
        <pt x="194" y="178" on="1"/>
        <pt x="194" y="674" on="1"/>
        <pt x="297" y="674" on="1"/>
        <pt x="297" y="182" on="1"/>
        <pt x="297" y="89" on="0"/>
        <pt x="206" y="0" on="0"/>
        <pt x="67" y="0" on="0"/>
        <pt x="30" y="21" on="1"/>
        <pt x="30" y="116" on="1"/>
        <pt x="71" y="91" on="0"/>
      </contour>
    </TTGlyph>
    <TTGlyph name="Jcircumflex" xMin="30" yMin="0" xMax="427" yMax="887">
      <contour>
        <pt x="202" y="887" on="1"/>
        <pt x="292" y="887" on="1"/>
        <pt x="427" y="725" on="1"/>
        <pt x="330" y="725" on="1"/>
        <pt x="246" y="827" on="1"/>
        <pt x="164" y="725" on="1"/>
        <pt x="67" y="725" on="1"/>
      </contour>
      <contour>
        <pt x="112" y="91" on="1"/>
        <pt x="194" y="91" on="0"/>
        <pt x="194" y="178" on="1"/>
        <pt x="194" y="674" on="1"/>
        <pt x="297" y="674" on="1"/>
        <pt x="297" y="182" on="1"/>
        <pt x="297" y="89" on="0"/>
        <pt x="206" y="0" on="0"/>
        <pt x="67" y="0" on="0"/>
        <pt x="30" y="21" on="1"/>
        <pt x="30" y="116" on="1"/>
        <pt x="71" y="91" on="0"/>
      </contour>
    </TTGlyph>
    <TTGlyph name="K" xMin="73" yMin="0" xMax="574" yMax="674">
      <contour>
        <pt x="312" y="334" on="1"/>
        <pt x="574" y="0" on="1"/>
        <pt x="444" y="0" on="1"/>
        <pt x="189" y="333" on="1"/>
        <pt x="434" y="674" on="1"/>
        <pt x="559" y="674" on="1"/>
      </contour>
      <contour>
        <pt x="73" y="0" on="1"/>
        <pt x="73" y="674" on="1"/>
        <pt x="176" y="674" on="1"/>
        <pt x="176" y="0" on="1"/>
      </contour>
    </TTGlyph>
    <TTGlyph name="L" xMin="73" yMin="0" xMax="452" yMax="674">
      <contour>
        <pt x="176" y="91" on="1"/>
        <pt x="452" y="91" on="1"/>
        <pt x="452" y="0" on="1"/>
        <pt x="73" y="0" on="1"/>
        <pt x="73" y="674" on="1"/>
        <pt x="176" y="674" on="1"/>
      </contour>
    </TTGlyph>
    <TTGlyph name="Lacute" xMin="73" yMin="0" xMax="460" yMax="887">
      <contour>
        <pt x="176" y="674" on="1"/>
        <pt x="176" y="91" on="1"/>
        <pt x="452" y="91" on="1"/>
        <pt x="452" y="0" on="1"/>
        <pt x="73" y="0" on="1"/>
        <pt x="73" y="674" on="1"/>
      </contour>
      <contour>
        <pt x="460" y="887" on="1"/>
        <pt x="340" y="725" on="1"/>
        <pt x="256" y="725" on="1"/>
        <pt x="351" y="887" on="1"/>
      </contour>
    </TTGlyph>
    <TTGlyph name="Lcaron" xMin="73" yMin="0" xMax="452" yMax="701">
      <contour>
        <pt x="176" y="91" on="1"/>
        <pt x="452" y="91" on="1"/>
        <pt x="452" y="0" on="1"/>
        <pt x="73" y="0" on="1"/>
        <pt x="73" y="674" on="1"/>
        <pt x="176" y="674" on="1"/>
      </contour>
      <contour>
        <pt x="447" y="701" on="1"/>
        <pt x="334" y="503" on="1"/>
        <pt x="257" y="503" on="1"/>
        <pt x="338" y="701" on="1"/>
      </contour>
    </TTGlyph>
    <TTGlyph name="Ldot" xMin="73" yMin="0" xMax="452" yMax="674">
      <contour>
        <pt x="176" y="91" on="1"/>
        <pt x="452" y="91" on="1"/>
        <pt x="452" y="0" on="1"/>
        <pt x="73" y="0" on="1"/>
        <pt x="73" y="674" on="1"/>
        <pt x="176" y="674" on="1"/>
      </contour>
      <contour>
        <pt x="367" y="310" on="0"/>
        <pt x="311" y="310" on="0"/>
        <pt x="275" y="347" on="0"/>
        <pt x="275" y="401" on="0"/>
        <pt x="312" y="439" on="0"/>
        <pt x="367" y="439" on="0"/>
        <pt x="404" y="401" on="0"/>
        <pt x="404" y="347" on="0"/>
      </contour>
    </TTGlyph>
    <TTGlyph name="Lslash" xMin="34" yMin="0" xMax="483" yMax="674">
      <contour>
        <pt x="207" y="91" on="1"/>
        <pt x="483" y="91" on="1"/>
        <pt x="483" y="0" on="1"/>
        <pt x="105" y="0" on="1"/>
        <pt x="105" y="233" on="1"/>
        <pt x="34" y="187" on="1"/>
        <pt x="34" y="277" on="1"/>
        <pt x="105" y="323" on="1"/>
        <pt x="105" y="674" on="1"/>
        <pt x="207" y="674" on="1"/>
        <pt x="207" y="389" on="1"/>
        <pt x="361" y="488" on="1"/>
        <pt x="361" y="398" on="1"/>
        <pt x="207" y="299" on="1"/>
      </contour>
    </TTGlyph>
    <TTGlyph name="M" xMin="64" yMin="0" xMax="804" yMax="674">
      <contour>
        <pt x="64" y="0" on="1"/>
        <pt x="116" y="674" on="1"/>
        <pt x="238" y="674" on="1"/>
        <pt x="381" y="282" on="0"/>
        <pt x="425" y="146" on="1"/>
        <pt x="477" y="300" on="0"/>
        <pt x="620" y="674" on="1"/>
        <pt x="742" y="674" on="1"/>
        <pt x="804" y="0" on="1"/>
        <pt x="702" y="0" on="1"/>
        <pt x="678" y="264" on="1"/>
        <pt x="657" y="534" on="1"/>
        <pt x="602" y="380" on="0"/>
        <pt x="465" y="13" on="1"/>
        <pt x="384" y="13" on="1"/>
        <pt x="293" y="264" on="1"/>
        <pt x="202" y="530" on="1"/>
        <pt x="202" y="475" on="0"/>
        <pt x="166" y="0" on="1"/>
      </contour>
    </TTGlyph>
    <TTGlyph name="N" xMin="73" yMin="0" xMax="607" yMax="674">
      <contour>
        <pt x="73" y="0" on="1"/>
        <pt x="73" y="674" on="1"/>
        <pt x="195" y="674" on="1"/>
        <pt x="454" y="234" on="0"/>
        <pt x="510" y="124" on="1"/>
        <pt x="504" y="215" on="0"/>
        <pt x="504" y="391" on="1"/>
        <pt x="504" y="674" on="1"/>
        <pt x="607" y="674" on="1"/>
        <pt x="607" y="0" on="1"/>
        <pt x="485" y="0" on="1"/>
        <pt x="230" y="429" on="0"/>
        <pt x="168" y="551" on="1"/>
        <pt x="176" y="451" on="0"/>
        <pt x="176" y="282" on="1"/>
        <pt x="176" y="0" on="1"/>
      </contour>
    </TTGlyph>
    <TTGlyph name="Nacute" xMin="73" yMin="0" xMax="607" yMax="887">
      <contour>
        <pt x="73" y="0" on="1"/>
        <pt x="73" y="674" on="1"/>
        <pt x="195" y="674" on="1"/>
        <pt x="454" y="234" on="0"/>
        <pt x="510" y="124" on="1"/>
        <pt x="504" y="215" on="0"/>
        <pt x="504" y="391" on="1"/>
        <pt x="504" y="674" on="1"/>
        <pt x="607" y="674" on="1"/>
        <pt x="607" y="0" on="1"/>
        <pt x="485" y="0" on="1"/>
        <pt x="230" y="429" on="0"/>
        <pt x="168" y="551" on="1"/>
        <pt x="176" y="451" on="0"/>
        <pt x="176" y="282" on="1"/>
        <pt x="176" y="0" on="1"/>
      </contour>
      <contour>
        <pt x="319" y="725" on="1"/>
        <pt x="414" y="887" on="1"/>
        <pt x="523" y="887" on="1"/>
        <pt x="403" y="725" on="1"/>
      </contour>
    </TTGlyph>
    <TTGlyph name="Ncaron" xMin="73" yMin="0" xMax="607" yMax="887">
      <contour>
        <pt x="398" y="725" on="1"/>
        <pt x="308" y="725" on="1"/>
        <pt x="173" y="887" on="1"/>
        <pt x="270" y="887" on="1"/>
        <pt x="353" y="785" on="1"/>
        <pt x="436" y="887" on="1"/>
        <pt x="533" y="887" on="1"/>
      </contour>
      <contour>
        <pt x="73" y="0" on="1"/>
        <pt x="73" y="674" on="1"/>
        <pt x="195" y="674" on="1"/>
        <pt x="454" y="234" on="0"/>
        <pt x="510" y="124" on="1"/>
        <pt x="504" y="215" on="0"/>
        <pt x="504" y="391" on="1"/>
        <pt x="504" y="674" on="1"/>
        <pt x="607" y="674" on="1"/>
        <pt x="607" y="0" on="1"/>
        <pt x="485" y="0" on="1"/>
        <pt x="230" y="429" on="0"/>
        <pt x="168" y="551" on="1"/>
        <pt x="176" y="451" on="0"/>
        <pt x="176" y="282" on="1"/>
        <pt x="176" y="0" on="1"/>
      </contour>
    </TTGlyph>
    <TTGlyph name="Ntilde" xMin="73" yMin="0" xMax="607" yMax="868">
      <contour>
        <pt x="416" y="752" on="1"/>
        <pt x="387" y="752" on="0"/>
        <pt x="306" y="793" on="0"/>
        <pt x="286" y="793" on="1"/>
        <pt x="251" y="793" on="0"/>
        <pt x="220" y="747" on="1"/>
        <pt x="171" y="792" on="1"/>
        <pt x="185" y="823" on="0"/>
        <pt x="242" y="866" on="0"/>
        <pt x="308" y="866" on="0"/>
        <pt x="392" y="825" on="0"/>
        <pt x="411" y="825" on="1"/>
        <pt x="448" y="825" on="0"/>
        <pt x="469" y="868" on="1"/>
        <pt x="525" y="826" on="1"/>
        <pt x="490" y="752" on="0"/>
      </contour>
      <contour>
        <pt x="73" y="0" on="1"/>
        <pt x="73" y="674" on="1"/>
        <pt x="195" y="674" on="1"/>
        <pt x="454" y="234" on="0"/>
        <pt x="510" y="124" on="1"/>
        <pt x="504" y="215" on="0"/>
        <pt x="504" y="391" on="1"/>
        <pt x="504" y="674" on="1"/>
        <pt x="607" y="674" on="1"/>
        <pt x="607" y="0" on="1"/>
        <pt x="485" y="0" on="1"/>
        <pt x="230" y="429" on="0"/>
        <pt x="168" y="551" on="1"/>
        <pt x="176" y="451" on="0"/>
        <pt x="176" y="282" on="1"/>
        <pt x="176" y="0" on="1"/>
      </contour>
    </TTGlyph>
    <TTGlyph name="O" xMin="46" yMin="-8" xMax="665" yMax="687">
      <contour>
        <pt x="154" y="456" on="0"/>
        <pt x="154" y="224" on="0"/>
        <pt x="264" y="88" on="0"/>
        <pt x="451" y="88" on="0"/>
        <pt x="557" y="222" on="0"/>
        <pt x="557" y="457" on="0"/>
        <pt x="450" y="591" on="0"/>
        <pt x="261" y="591" on="0"/>
      </contour>
      <contour>
        <pt x="215" y="-8" on="0"/>
        <pt x="46" y="182" on="0"/>
        <pt x="46" y="497" on="0"/>
        <pt x="214" y="687" on="0"/>
        <pt x="499" y="687" on="0"/>
        <pt x="665" y="498" on="0"/>
        <pt x="665" y="182" on="0"/>
        <pt x="498" y="-8" on="0"/>
      </contour>
    </TTGlyph>
    <TTGlyph name="OE" xMin="46" yMin="-8" xMax="937" yMax="687">
      <contour>
        <pt x="646" y="86" on="1"/>
        <pt x="937" y="86" on="1"/>
        <pt x="937" y="0" on="1"/>
        <pt x="548" y="0" on="1"/>
        <pt x="548" y="72" on="1"/>
        <pt x="470" y="-8" on="0"/>
        <pt x="351" y="-8" on="1"/>
        <pt x="211" y="-8" on="0"/>
        <pt x="46" y="182" on="0"/>
        <pt x="46" y="498" on="0"/>
        <pt x="209" y="687" on="0"/>
        <pt x="350" y="687" on="1"/>
        <pt x="471" y="687" on="0"/>
        <pt x="548" y="608" on="1"/>
        <pt x="548" y="674" on="1"/>
        <pt x="932" y="674" on="1"/>
        <pt x="932" y="588" on="1"/>
        <pt x="646" y="588" on="1"/>
        <pt x="646" y="380" on="1"/>
        <pt x="900" y="380" on="1"/>
        <pt x="900" y="294" on="1"/>
        <pt x="646" y="294" on="1"/>
      </contour>
      <contour>
        <pt x="154" y="223" on="0"/>
        <pt x="260" y="88" on="0"/>
        <pt x="445" y="88" on="0"/>
        <pt x="548" y="222" on="0"/>
        <pt x="548" y="458" on="0"/>
        <pt x="445" y="591" on="0"/>
        <pt x="257" y="591" on="0"/>
        <pt x="154" y="457" on="0"/>
      </contour>
    </TTGlyph>
    <TTGlyph name="Oacute" xMin="46" yMin="-8" xMax="665" yMax="887">
      <contour>
        <pt x="154" y="456" on="0"/>
        <pt x="154" y="224" on="0"/>
        <pt x="264" y="88" on="0"/>
        <pt x="451" y="88" on="0"/>
        <pt x="557" y="222" on="0"/>
        <pt x="557" y="457" on="0"/>
        <pt x="450" y="591" on="0"/>
        <pt x="261" y="591" on="0"/>
      </contour>
      <contour>
        <pt x="215" y="-8" on="0"/>
        <pt x="46" y="182" on="0"/>
        <pt x="46" y="497" on="0"/>
        <pt x="214" y="687" on="0"/>
        <pt x="499" y="687" on="0"/>
        <pt x="665" y="498" on="0"/>
        <pt x="665" y="182" on="0"/>
        <pt x="498" y="-8" on="0"/>
      </contour>
      <contour>
        <pt x="320" y="725" on="1"/>
        <pt x="415" y="887" on="1"/>
        <pt x="524" y="887" on="1"/>
        <pt x="404" y="725" on="1"/>
      </contour>
    </TTGlyph>
    <TTGlyph name="Obreve" xMin="46" yMin="-8" xMax="665" yMax="887">
      <contour>
        <pt x="215" y="-8" on="0"/>
        <pt x="46" y="182" on="0"/>
        <pt x="46" y="497" on="0"/>
        <pt x="214" y="687" on="0"/>
        <pt x="499" y="687" on="0"/>
        <pt x="665" y="498" on="0"/>
        <pt x="665" y="182" on="0"/>
        <pt x="498" y="-8" on="0"/>
      </contour>
      <contour>
        <pt x="154" y="456" on="0"/>
        <pt x="154" y="224" on="0"/>
        <pt x="264" y="88" on="0"/>
        <pt x="451" y="88" on="0"/>
        <pt x="557" y="222" on="0"/>
        <pt x="557" y="457" on="0"/>
        <pt x="450" y="591" on="0"/>
        <pt x="261" y="591" on="0"/>
      </contour>
      <contour>
        <pt x="189" y="887" on="1"/>
        <pt x="267" y="887" on="1"/>
        <pt x="267" y="843" on="0"/>
        <pt x="315" y="789" on="0"/>
        <pt x="411" y="789" on="0"/>
        <pt x="459" y="843" on="0"/>
        <pt x="459" y="887" on="1"/>
        <pt x="537" y="887" on="1"/>
        <pt x="537" y="808" on="0"/>
        <pt x="447" y="722" on="0"/>
        <pt x="279" y="722" on="0"/>
        <pt x="189" y="808" on="0"/>
      </contour>
    </TTGlyph>
    <TTGlyph name="Ocircumflex" xMin="46" yMin="-8" xMax="665" yMax="887">
      <contour>
        <pt x="317" y="887" on="1"/>
        <pt x="407" y="887" on="1"/>
        <pt x="542" y="725" on="1"/>
        <pt x="445" y="725" on="1"/>
        <pt x="361" y="827" on="1"/>
        <pt x="279" y="725" on="1"/>
        <pt x="182" y="725" on="1"/>
      </contour>
      <contour>
        <pt x="215" y="-8" on="0"/>
        <pt x="46" y="182" on="0"/>
        <pt x="46" y="497" on="0"/>
        <pt x="214" y="687" on="0"/>
        <pt x="499" y="687" on="0"/>
        <pt x="665" y="498" on="0"/>
        <pt x="665" y="182" on="0"/>
        <pt x="498" y="-8" on="0"/>
      </contour>
      <contour>
        <pt x="154" y="456" on="0"/>
        <pt x="154" y="224" on="0"/>
        <pt x="264" y="88" on="0"/>
        <pt x="451" y="88" on="0"/>
        <pt x="557" y="222" on="0"/>
        <pt x="557" y="457" on="0"/>
        <pt x="450" y="591" on="0"/>
        <pt x="261" y="591" on="0"/>
      </contour>
    </TTGlyph>
    <TTGlyph name="Odieresis" xMin="46" yMin="-8" xMax="665" yMax="867">
      <contour>
        <pt x="154" y="456" on="0"/>
        <pt x="154" y="224" on="0"/>
        <pt x="264" y="88" on="0"/>
        <pt x="451" y="88" on="0"/>
        <pt x="557" y="222" on="0"/>
        <pt x="557" y="457" on="0"/>
        <pt x="450" y="591" on="0"/>
        <pt x="261" y="591" on="0"/>
      </contour>
      <contour>
        <pt x="215" y="-8" on="0"/>
        <pt x="46" y="182" on="0"/>
        <pt x="46" y="497" on="0"/>
        <pt x="214" y="687" on="0"/>
        <pt x="499" y="687" on="0"/>
        <pt x="665" y="498" on="0"/>
        <pt x="665" y="182" on="0"/>
        <pt x="498" y="-8" on="0"/>
      </contour>
      <contour>
        <pt x="411" y="782" on="0"/>
        <pt x="411" y="832" on="0"/>
        <pt x="446" y="867" on="0"/>
        <pt x="497" y="867" on="0"/>
        <pt x="532" y="833" on="0"/>
        <pt x="532" y="781" on="0"/>
        <pt x="497" y="747" on="0"/>
        <pt x="446" y="747" on="0"/>
      </contour>
      <contour>
        <pt x="190" y="781" on="0"/>
        <pt x="190" y="833" on="0"/>
        <pt x="224" y="867" on="0"/>
        <pt x="276" y="867" on="0"/>
        <pt x="311" y="832" on="0"/>
        <pt x="311" y="782" on="0"/>
        <pt x="276" y="747" on="0"/>
        <pt x="224" y="747" on="0"/>
      </contour>
    </TTGlyph>
    <TTGlyph name="Ograve" xMin="46" yMin="-8" xMax="665" yMax="887">
      <contour>
        <pt x="312" y="887" on="1"/>
        <pt x="407" y="725" on="1"/>
        <pt x="323" y="725" on="1"/>
        <pt x="203" y="887" on="1"/>
      </contour>
      <contour>
        <pt x="154" y="456" on="0"/>
        <pt x="154" y="224" on="0"/>
        <pt x="264" y="88" on="0"/>
        <pt x="451" y="88" on="0"/>
        <pt x="557" y="222" on="0"/>
        <pt x="557" y="457" on="0"/>
        <pt x="450" y="591" on="0"/>
        <pt x="261" y="591" on="0"/>
      </contour>
      <contour>
        <pt x="215" y="-8" on="0"/>
        <pt x="46" y="182" on="0"/>
        <pt x="46" y="497" on="0"/>
        <pt x="214" y="687" on="0"/>
        <pt x="499" y="687" on="0"/>
        <pt x="665" y="498" on="0"/>
        <pt x="665" y="182" on="0"/>
        <pt x="498" y="-8" on="0"/>
      </contour>
    </TTGlyph>
    <TTGlyph name="Ohungarumlaut" xMin="46" yMin="-8" xMax="665" yMax="887">
      <contour>
        <pt x="154" y="456" on="0"/>
        <pt x="154" y="224" on="0"/>
        <pt x="264" y="88" on="0"/>
        <pt x="451" y="88" on="0"/>
        <pt x="557" y="222" on="0"/>
        <pt x="557" y="457" on="0"/>
        <pt x="450" y="591" on="0"/>
        <pt x="261" y="591" on="0"/>
      </contour>
      <contour>
        <pt x="215" y="-8" on="0"/>
        <pt x="46" y="182" on="0"/>
        <pt x="46" y="497" on="0"/>
        <pt x="214" y="687" on="0"/>
        <pt x="499" y="687" on="0"/>
        <pt x="665" y="498" on="0"/>
        <pt x="665" y="182" on="0"/>
        <pt x="498" y="-8" on="0"/>
      </contour>
      <contour>
        <pt x="248" y="725" on="1"/>
        <pt x="342" y="887" on="1"/>
        <pt x="445" y="887" on="1"/>
        <pt x="323" y="725" on="1"/>
      </contour>
      <contour>
        <pt x="413" y="725" on="1"/>
        <pt x="513" y="887" on="1"/>
        <pt x="622" y="887" on="1"/>
        <pt x="488" y="725" on="1"/>
      </contour>
    </TTGlyph>
    <TTGlyph name="Omacron" xMin="46" yMin="-8" xMax="665" yMax="840">
      <contour>
        <pt x="154" y="456" on="0"/>
        <pt x="154" y="224" on="0"/>
        <pt x="264" y="88" on="0"/>
        <pt x="451" y="88" on="0"/>
        <pt x="557" y="222" on="0"/>
        <pt x="557" y="457" on="0"/>
        <pt x="450" y="591" on="0"/>
        <pt x="261" y="591" on="0"/>
      </contour>
      <contour>
        <pt x="215" y="-8" on="0"/>
        <pt x="46" y="182" on="0"/>
        <pt x="46" y="497" on="0"/>
        <pt x="214" y="687" on="0"/>
        <pt x="499" y="687" on="0"/>
        <pt x="665" y="498" on="0"/>
        <pt x="665" y="182" on="0"/>
        <pt x="498" y="-8" on="0"/>
      </contour>
      <contour>
        <pt x="508" y="772" on="1"/>
        <pt x="204" y="772" on="1"/>
        <pt x="204" y="840" on="1"/>
        <pt x="508" y="840" on="1"/>
      </contour>
    </TTGlyph>
    <TTGlyph name="Oslash" xMin="40" yMin="-8" xMax="661" yMax="687">
      <contour>
        <pt x="585" y="583" on="1"/>
        <pt x="660" y="489" on="0"/>
        <pt x="660" y="182" on="0"/>
        <pt x="493" y="-8" on="0"/>
        <pt x="351" y="-8" on="1"/>
        <pt x="253" y="-8" on="0"/>
        <pt x="180" y="40" on="1"/>
        <pt x="144" y="-8" on="1"/>
        <pt x="40" y="-8" on="1"/>
        <pt x="117" y="96" on="1"/>
        <pt x="40" y="190" on="0"/>
        <pt x="40" y="497" on="0"/>
        <pt x="208" y="687" on="0"/>
        <pt x="350" y="687" on="1"/>
        <pt x="448" y="687" on="0"/>
        <pt x="522" y="640" on="1"/>
        <pt x="557" y="686" on="1"/>
        <pt x="661" y="686" on="1"/>
      </contour>
      <contour>
        <pt x="350" y="595" on="1"/>
        <pt x="255" y="595" on="0"/>
        <pt x="146" y="458" on="0"/>
        <pt x="146" y="246" on="0"/>
        <pt x="182" y="182" on="1"/>
        <pt x="464" y="562" on="1"/>
        <pt x="419" y="595" on="0"/>
      </contour>
      <contour>
        <pt x="351" y="84" on="1"/>
        <pt x="447" y="84" on="0"/>
        <pt x="554" y="221" on="0"/>
        <pt x="554" y="340" on="1"/>
        <pt x="554" y="434" on="0"/>
        <pt x="520" y="497" on="1"/>
        <pt x="238" y="118" on="1"/>
        <pt x="286" y="84" on="0"/>
      </contour>
    </TTGlyph>
    <TTGlyph name="Otilde" xMin="46" yMin="-8" xMax="665" yMax="869">
      <contour>
        <pt x="425" y="753" on="1"/>
        <pt x="396" y="753" on="0"/>
        <pt x="315" y="794" on="0"/>
        <pt x="296" y="794" on="1"/>
        <pt x="260" y="794" on="0"/>
        <pt x="229" y="748" on="1"/>
        <pt x="180" y="793" on="1"/>
        <pt x="194" y="824" on="0"/>
        <pt x="251" y="867" on="0"/>
        <pt x="317" y="867" on="0"/>
        <pt x="401" y="826" on="0"/>
        <pt x="420" y="826" on="1"/>
        <pt x="457" y="826" on="0"/>
        <pt x="478" y="869" on="1"/>
        <pt x="534" y="827" on="1"/>
        <pt x="499" y="753" on="0"/>
      </contour>
      <contour>
        <pt x="154" y="456" on="0"/>
        <pt x="154" y="224" on="0"/>
        <pt x="264" y="88" on="0"/>
        <pt x="451" y="88" on="0"/>
        <pt x="557" y="222" on="0"/>
        <pt x="557" y="457" on="0"/>
        <pt x="450" y="591" on="0"/>
        <pt x="261" y="591" on="0"/>
      </contour>
      <contour>
        <pt x="215" y="-8" on="0"/>
        <pt x="46" y="182" on="0"/>
        <pt x="46" y="497" on="0"/>
        <pt x="214" y="687" on="0"/>
        <pt x="499" y="687" on="0"/>
        <pt x="665" y="498" on="0"/>
        <pt x="665" y="182" on="0"/>
        <pt x="498" y="-8" on="0"/>
      </contour>
    </TTGlyph>
    <TTGlyph name="P" xMin="73" yMin="0" xMax="518" yMax="674">
      <contour>
        <pt x="73" y="674" on="1"/>
        <pt x="266" y="674" on="1"/>
        <pt x="382" y="674" on="0"/>
        <pt x="518" y="551" on="0"/>
        <pt x="518" y="359" on="0"/>
        <pt x="381" y="239" on="0"/>
        <pt x="272" y="239" on="1"/>
        <pt x="176" y="239" on="1"/>
        <pt x="176" y="0" on="1"/>
        <pt x="73" y="0" on="1"/>
      </contour>
      <contour>
        <pt x="176" y="324" on="1"/>
        <pt x="275" y="324" on="1"/>
        <pt x="340" y="326" on="0"/>
        <pt x="414" y="400" on="0"/>
        <pt x="414" y="513" on="0"/>
        <pt x="337" y="588" on="0"/>
        <pt x="269" y="589" on="1"/>
        <pt x="176" y="589" on="1"/>
      </contour>
    </TTGlyph>
    <TTGlyph name="Q" xMin="46" yMin="-144" xMax="699" yMax="687">
      <contour>
        <pt x="356" y="-8" on="1"/>
        <pt x="215" y="-8" on="0"/>
        <pt x="46" y="182" on="0"/>
        <pt x="46" y="497" on="0"/>
        <pt x="214" y="687" on="0"/>
        <pt x="499" y="687" on="0"/>
        <pt x="665" y="498" on="0"/>
        <pt x="665" y="340" on="1"/>
        <pt x="665" y="227" on="0"/>
        <pt x="577" y="61" on="0"/>
        <pt x="497" y="22" on="1"/>
        <pt x="699" y="-99" on="1"/>
        <pt x="585" y="-144" on="1"/>
        <pt x="388" y="-7" on="1"/>
        <pt x="377" y="-8" on="0"/>
      </contour>
      <contour>
        <pt x="154" y="456" on="0"/>
        <pt x="154" y="224" on="0"/>
        <pt x="264" y="88" on="0"/>
        <pt x="451" y="88" on="0"/>
        <pt x="557" y="222" on="0"/>
        <pt x="557" y="457" on="0"/>
        <pt x="450" y="591" on="0"/>
        <pt x="261" y="591" on="0"/>
      </contour>
    </TTGlyph>
    <TTGlyph name="R" xMin="73" yMin="0" xMax="546" yMax="674">
      <contour>
        <pt x="176" y="256" on="1"/>
        <pt x="176" y="0" on="1"/>
        <pt x="73" y="0" on="1"/>
        <pt x="73" y="674" on="1"/>
        <pt x="261" y="674" on="1"/>
        <pt x="377" y="674" on="0"/>
        <pt x="503" y="561" on="0"/>
        <pt x="503" y="464" on="1"/>
        <pt x="502" y="393" on="0"/>
        <pt x="432" y="294" on="0"/>
        <pt x="370" y="272" on="1"/>
        <pt x="546" y="0" on="1"/>
        <pt x="423" y="0" on="1"/>
        <pt x="265" y="256" on="1"/>
      </contour>
      <contour>
        <pt x="176" y="588" on="1"/>
        <pt x="176" y="342" on="1"/>
        <pt x="269" y="342" on="1"/>
        <pt x="333" y="342" on="0"/>
        <pt x="399" y="409" on="0"/>
        <pt x="399" y="465" on="1"/>
        <pt x="399" y="588" on="0"/>
        <pt x="264" y="588" on="1"/>
      </contour>
    </TTGlyph>
    <TTGlyph name="Racute" xMin="73" yMin="0" xMax="546" yMax="887">
      <contour>
        <pt x="176" y="256" on="1"/>
        <pt x="176" y="0" on="1"/>
        <pt x="73" y="0" on="1"/>
        <pt x="73" y="674" on="1"/>
        <pt x="261" y="674" on="1"/>
        <pt x="377" y="674" on="0"/>
        <pt x="503" y="561" on="0"/>
        <pt x="503" y="464" on="1"/>
        <pt x="502" y="393" on="0"/>
        <pt x="432" y="294" on="0"/>
        <pt x="370" y="272" on="1"/>
        <pt x="546" y="0" on="1"/>
        <pt x="423" y="0" on="1"/>
        <pt x="265" y="256" on="1"/>
      </contour>
      <contour>
        <pt x="176" y="588" on="1"/>
        <pt x="176" y="342" on="1"/>
        <pt x="269" y="342" on="1"/>
        <pt x="333" y="342" on="0"/>
        <pt x="399" y="409" on="0"/>
        <pt x="399" y="465" on="1"/>
        <pt x="399" y="588" on="0"/>
        <pt x="264" y="588" on="1"/>
      </contour>
      <contour>
        <pt x="440" y="887" on="1"/>
        <pt x="320" y="725" on="1"/>
        <pt x="236" y="725" on="1"/>
        <pt x="331" y="887" on="1"/>
      </contour>
    </TTGlyph>
    <TTGlyph name="Rcaron" xMin="73" yMin="0" xMax="546" yMax="887">
      <contour>
        <pt x="176" y="256" on="1"/>
        <pt x="176" y="0" on="1"/>
        <pt x="73" y="0" on="1"/>
        <pt x="73" y="674" on="1"/>
        <pt x="261" y="674" on="1"/>
        <pt x="377" y="674" on="0"/>
        <pt x="503" y="561" on="0"/>
        <pt x="503" y="464" on="1"/>
        <pt x="502" y="393" on="0"/>
        <pt x="432" y="294" on="0"/>
        <pt x="370" y="272" on="1"/>
        <pt x="546" y="0" on="1"/>
        <pt x="423" y="0" on="1"/>
        <pt x="265" y="256" on="1"/>
      </contour>
      <contour>
        <pt x="176" y="588" on="1"/>
        <pt x="176" y="342" on="1"/>
        <pt x="269" y="342" on="1"/>
        <pt x="333" y="342" on="0"/>
        <pt x="399" y="409" on="0"/>
        <pt x="399" y="465" on="1"/>
        <pt x="399" y="588" on="0"/>
        <pt x="264" y="588" on="1"/>
      </contour>
      <contour>
        <pt x="335" y="725" on="1"/>
        <pt x="245" y="725" on="1"/>
        <pt x="110" y="887" on="1"/>
        <pt x="207" y="887" on="1"/>
        <pt x="290" y="785" on="1"/>
        <pt x="373" y="887" on="1"/>
        <pt x="470" y="887" on="1"/>
      </contour>
    </TTGlyph>
    <TTGlyph name="S" xMin="58" yMin="-7" xMax="472" yMax="679">
      <contour>
        <pt x="285" y="587" on="1"/>
        <pt x="230" y="587" on="0"/>
        <pt x="167" y="538" on="0"/>
        <pt x="167" y="458" on="0"/>
        <pt x="229" y="410" on="0"/>
        <pt x="335" y="364" on="0"/>
        <pt x="382" y="338" on="0"/>
        <pt x="412" y="314" on="1"/>
        <pt x="472" y="269" on="0"/>
        <pt x="472" y="95" on="0"/>
        <pt x="346" y="-7" on="0"/>
        <pt x="135" y="-7" on="0"/>
        <pt x="62" y="36" on="1"/>
        <pt x="62" y="143" on="1"/>
        <pt x="141" y="84" on="0"/>
        <pt x="245" y="84" on="1"/>
        <pt x="300" y="84" on="0"/>
        <pt x="364" y="135" on="0"/>
        <pt x="364" y="180" on="1"/>
        <pt x="364" y="207" on="0"/>
        <pt x="326" y="252" on="0"/>
        <pt x="282" y="275" on="0"/>
        <pt x="212" y="307" on="0"/>
        <pt x="191" y="317" on="0"/>
        <pt x="143" y="343" on="0"/>
        <pt x="120" y="361" on="0"/>
        <pt x="86" y="393" on="0"/>
        <pt x="78" y="409" on="1"/>
        <pt x="58" y="453" on="0"/>
        <pt x="58" y="493" on="1"/>
        <pt x="58" y="579" on="0"/>
        <pt x="183" y="679" on="0"/>
        <pt x="373" y="679" on="0"/>
        <pt x="437" y="647" on="1"/>
        <pt x="437" y="545" on="1"/>
        <pt x="370" y="587" on="0"/>
      </contour>
    </TTGlyph>
    <TTGlyph name="Sacute" xMin="58" yMin="-7" xMax="472" yMax="887">
      <contour>
        <pt x="285" y="587" on="1"/>
        <pt x="230" y="587" on="0"/>
        <pt x="167" y="538" on="0"/>
        <pt x="167" y="458" on="0"/>
        <pt x="229" y="410" on="0"/>
        <pt x="335" y="364" on="0"/>
        <pt x="382" y="338" on="0"/>
        <pt x="412" y="314" on="1"/>
        <pt x="472" y="269" on="0"/>
        <pt x="472" y="95" on="0"/>
        <pt x="346" y="-7" on="0"/>
        <pt x="135" y="-7" on="0"/>
        <pt x="62" y="36" on="1"/>
        <pt x="62" y="143" on="1"/>
        <pt x="141" y="84" on="0"/>
        <pt x="245" y="84" on="1"/>
        <pt x="300" y="84" on="0"/>
        <pt x="364" y="135" on="0"/>
        <pt x="364" y="180" on="1"/>
        <pt x="364" y="207" on="0"/>
        <pt x="326" y="252" on="0"/>
        <pt x="282" y="275" on="0"/>
        <pt x="212" y="307" on="0"/>
        <pt x="191" y="317" on="0"/>
        <pt x="143" y="343" on="0"/>
        <pt x="120" y="361" on="0"/>
        <pt x="86" y="393" on="0"/>
        <pt x="78" y="409" on="1"/>
        <pt x="58" y="453" on="0"/>
        <pt x="58" y="493" on="1"/>
        <pt x="58" y="579" on="0"/>
        <pt x="183" y="679" on="0"/>
        <pt x="373" y="679" on="0"/>
        <pt x="437" y="647" on="1"/>
        <pt x="437" y="545" on="1"/>
        <pt x="370" y="587" on="0"/>
      </contour>
      <contour>
        <pt x="234" y="725" on="1"/>
        <pt x="329" y="887" on="1"/>
        <pt x="438" y="887" on="1"/>
        <pt x="318" y="725" on="1"/>
      </contour>
    </TTGlyph>
    <TTGlyph name="Scaron" xMin="58" yMin="-7" xMax="472" yMax="887">
      <contour>
        <pt x="309" y="725" on="1"/>
        <pt x="219" y="725" on="1"/>
        <pt x="84" y="887" on="1"/>
        <pt x="181" y="887" on="1"/>
        <pt x="264" y="785" on="1"/>
        <pt x="347" y="887" on="1"/>
        <pt x="444" y="887" on="1"/>
      </contour>
      <contour>
        <pt x="285" y="587" on="1"/>
        <pt x="230" y="587" on="0"/>
        <pt x="167" y="538" on="0"/>
        <pt x="167" y="458" on="0"/>
        <pt x="229" y="410" on="0"/>
        <pt x="335" y="364" on="0"/>
        <pt x="382" y="338" on="0"/>
        <pt x="412" y="314" on="1"/>
        <pt x="472" y="269" on="0"/>
        <pt x="472" y="95" on="0"/>
        <pt x="346" y="-7" on="0"/>
        <pt x="135" y="-7" on="0"/>
        <pt x="62" y="36" on="1"/>
        <pt x="62" y="143" on="1"/>
        <pt x="141" y="84" on="0"/>
        <pt x="245" y="84" on="1"/>
        <pt x="300" y="84" on="0"/>
        <pt x="364" y="135" on="0"/>
        <pt x="364" y="180" on="1"/>
        <pt x="364" y="207" on="0"/>
        <pt x="326" y="252" on="0"/>
        <pt x="282" y="275" on="0"/>
        <pt x="212" y="307" on="0"/>
        <pt x="191" y="317" on="0"/>
        <pt x="143" y="343" on="0"/>
        <pt x="120" y="361" on="0"/>
        <pt x="86" y="393" on="0"/>
        <pt x="78" y="409" on="1"/>
        <pt x="58" y="453" on="0"/>
        <pt x="58" y="493" on="1"/>
        <pt x="58" y="579" on="0"/>
        <pt x="183" y="679" on="0"/>
        <pt x="373" y="679" on="0"/>
        <pt x="437" y="647" on="1"/>
        <pt x="437" y="545" on="1"/>
        <pt x="370" y="587" on="0"/>
      </contour>
    </TTGlyph>
    <TTGlyph name="Scircumflex" xMin="58" yMin="-7" xMax="472" yMax="887">
      <contour>
        <pt x="216" y="887" on="1"/>
        <pt x="306" y="887" on="1"/>
        <pt x="441" y="725" on="1"/>
        <pt x="344" y="725" on="1"/>
        <pt x="260" y="827" on="1"/>
        <pt x="178" y="725" on="1"/>
        <pt x="81" y="725" on="1"/>
      </contour>
      <contour>
        <pt x="285" y="587" on="1"/>
        <pt x="230" y="587" on="0"/>
        <pt x="167" y="538" on="0"/>
        <pt x="167" y="458" on="0"/>
        <pt x="229" y="410" on="0"/>
        <pt x="335" y="364" on="0"/>
        <pt x="382" y="338" on="0"/>
        <pt x="412" y="314" on="1"/>
        <pt x="472" y="269" on="0"/>
        <pt x="472" y="95" on="0"/>
        <pt x="346" y="-7" on="0"/>
        <pt x="135" y="-7" on="0"/>
        <pt x="62" y="36" on="1"/>
        <pt x="62" y="143" on="1"/>
        <pt x="141" y="84" on="0"/>
        <pt x="245" y="84" on="1"/>
        <pt x="300" y="84" on="0"/>
        <pt x="364" y="135" on="0"/>
        <pt x="364" y="180" on="1"/>
        <pt x="364" y="207" on="0"/>
        <pt x="326" y="252" on="0"/>
        <pt x="282" y="275" on="0"/>
        <pt x="212" y="307" on="0"/>
        <pt x="191" y="317" on="0"/>
        <pt x="143" y="343" on="0"/>
        <pt x="120" y="361" on="0"/>
        <pt x="86" y="393" on="0"/>
        <pt x="78" y="409" on="1"/>
        <pt x="58" y="453" on="0"/>
        <pt x="58" y="493" on="1"/>
        <pt x="58" y="579" on="0"/>
        <pt x="183" y="679" on="0"/>
        <pt x="373" y="679" on="0"/>
        <pt x="437" y="647" on="1"/>
        <pt x="437" y="545" on="1"/>
        <pt x="370" y="587" on="0"/>
      </contour>
    </TTGlyph>
    <TTGlyph name="T" xMin="22" yMin="0" xMax="478" yMax="674">
      <contour>
        <pt x="478" y="674" on="1"/>
        <pt x="478" y="588" on="1"/>
        <pt x="301" y="588" on="1"/>
        <pt x="301" y="0" on="1"/>
        <pt x="198" y="0" on="1"/>
        <pt x="198" y="588" on="1"/>
        <pt x="22" y="588" on="1"/>
        <pt x="22" y="674" on="1"/>
      </contour>
    </TTGlyph>
    <TTGlyph name="Tbar" xMin="22" yMin="0" xMax="478" yMax="674">
      <contour>
        <pt x="478" y="588" on="1"/>
        <pt x="301" y="588" on="1"/>
        <pt x="301" y="369" on="1"/>
        <pt x="417" y="369" on="1"/>
        <pt x="417" y="290" on="1"/>
        <pt x="301" y="290" on="1"/>
        <pt x="301" y="0" on="1"/>
        <pt x="198" y="0" on="1"/>
        <pt x="198" y="290" on="1"/>
        <pt x="83" y="290" on="1"/>
        <pt x="83" y="369" on="1"/>
        <pt x="198" y="369" on="1"/>
        <pt x="198" y="588" on="1"/>
        <pt x="22" y="588" on="1"/>
        <pt x="22" y="674" on="1"/>
        <pt x="478" y="674" on="1"/>
      </contour>
    </TTGlyph>
    <TTGlyph name="Tcaron" xMin="22" yMin="0" xMax="478" yMax="887">
      <contour>
        <pt x="478" y="674" on="1"/>
        <pt x="478" y="588" on="1"/>
        <pt x="301" y="588" on="1"/>
        <pt x="301" y="0" on="1"/>
        <pt x="198" y="0" on="1"/>
        <pt x="198" y="588" on="1"/>
        <pt x="22" y="588" on="1"/>
        <pt x="22" y="674" on="1"/>
      </contour>
      <contour>
        <pt x="296" y="725" on="1"/>
        <pt x="206" y="725" on="1"/>
        <pt x="71" y="887" on="1"/>
        <pt x="168" y="887" on="1"/>
        <pt x="251" y="785" on="1"/>
        <pt x="334" y="887" on="1"/>
        <pt x="431" y="887" on="1"/>
      </contour>
    </TTGlyph>
    <TTGlyph name="Thorn" xMin="73" yMin="0" xMax="513" yMax="674">
      <contour>
        <pt x="176" y="554" on="1"/>
        <pt x="261" y="554" on="1"/>
        <pt x="380" y="554" on="0"/>
        <pt x="513" y="433" on="0"/>
        <pt x="513" y="238" on="0"/>
        <pt x="379" y="120" on="0"/>
        <pt x="267" y="120" on="1"/>
        <pt x="176" y="120" on="1"/>
        <pt x="176" y="0" on="1"/>
        <pt x="73" y="0" on="1"/>
        <pt x="73" y="674" on="1"/>
        <pt x="176" y="674" on="1"/>
      </contour>
      <contour>
        <pt x="176" y="205" on="1"/>
        <pt x="265" y="205" on="1"/>
        <pt x="337" y="205" on="0"/>
        <pt x="409" y="276" on="0"/>
        <pt x="409" y="394" on="0"/>
        <pt x="336" y="469" on="0"/>
        <pt x="259" y="469" on="1"/>
        <pt x="176" y="469" on="1"/>
      </contour>
    </TTGlyph>
    <TTGlyph name="U" xMin="71" yMin="-9" xMax="581" yMax="674">
      <contour>
        <pt x="478" y="256" on="1"/>
        <pt x="478" y="674" on="1"/>
        <pt x="581" y="674" on="1"/>
        <pt x="581" y="258" on="1"/>
        <pt x="581" y="127" on="0"/>
        <pt x="445" y="-9" on="0"/>
        <pt x="207" y="-9" on="0"/>
        <pt x="71" y="124" on="0"/>
        <pt x="71" y="250" on="1"/>
        <pt x="71" y="674" on="1"/>
        <pt x="174" y="674" on="1"/>
        <pt x="174" y="251" on="1"/>
        <pt x="174" y="165" on="0"/>
        <pt x="257" y="86" on="0"/>
        <pt x="325" y="86" on="1"/>
        <pt x="478" y="86" on="0"/>
      </contour>
    </TTGlyph>
    <TTGlyph name="Uacute" xMin="71" yMin="-9" xMax="581" yMax="887">
      <contour>
        <pt x="478" y="256" on="1"/>
        <pt x="478" y="674" on="1"/>
        <pt x="581" y="674" on="1"/>
        <pt x="581" y="258" on="1"/>
        <pt x="581" y="127" on="0"/>
        <pt x="445" y="-9" on="0"/>
        <pt x="207" y="-9" on="0"/>
        <pt x="71" y="124" on="0"/>
        <pt x="71" y="250" on="1"/>
        <pt x="71" y="674" on="1"/>
        <pt x="174" y="674" on="1"/>
        <pt x="174" y="251" on="1"/>
        <pt x="174" y="165" on="0"/>
        <pt x="257" y="86" on="0"/>
        <pt x="325" y="86" on="1"/>
        <pt x="478" y="86" on="0"/>
      </contour>
      <contour>
        <pt x="297" y="725" on="1"/>
        <pt x="392" y="887" on="1"/>
        <pt x="501" y="887" on="1"/>
        <pt x="381" y="725" on="1"/>
      </contour>
    </TTGlyph>
    <TTGlyph name="Ubreve" xMin="71" yMin="-9" xMax="581" yMax="887">
      <contour>
        <pt x="478" y="256" on="1"/>
        <pt x="478" y="674" on="1"/>
        <pt x="581" y="674" on="1"/>
        <pt x="581" y="258" on="1"/>
        <pt x="581" y="127" on="0"/>
        <pt x="445" y="-9" on="0"/>
        <pt x="207" y="-9" on="0"/>
        <pt x="71" y="124" on="0"/>
        <pt x="71" y="250" on="1"/>
        <pt x="71" y="674" on="1"/>
        <pt x="174" y="674" on="1"/>
        <pt x="174" y="251" on="1"/>
        <pt x="174" y="165" on="0"/>
        <pt x="257" y="86" on="0"/>
        <pt x="325" y="86" on="1"/>
        <pt x="478" y="86" on="0"/>
      </contour>
      <contour>
        <pt x="153" y="887" on="1"/>
        <pt x="231" y="887" on="1"/>
        <pt x="231" y="843" on="0"/>
        <pt x="279" y="789" on="0"/>
        <pt x="375" y="789" on="0"/>
        <pt x="423" y="843" on="0"/>
        <pt x="423" y="887" on="1"/>
        <pt x="501" y="887" on="1"/>
        <pt x="501" y="808" on="0"/>
        <pt x="411" y="722" on="0"/>
        <pt x="243" y="722" on="0"/>
        <pt x="153" y="808" on="0"/>
      </contour>
    </TTGlyph>
    <TTGlyph name="Ucircumflex" xMin="71" yMin="-9" xMax="581" yMax="887">
      <contour>
        <pt x="282" y="887" on="1"/>
        <pt x="372" y="887" on="1"/>
        <pt x="507" y="725" on="1"/>
        <pt x="410" y="725" on="1"/>
        <pt x="326" y="827" on="1"/>
        <pt x="244" y="725" on="1"/>
        <pt x="147" y="725" on="1"/>
      </contour>
      <contour>
        <pt x="478" y="256" on="1"/>
        <pt x="478" y="674" on="1"/>
        <pt x="581" y="674" on="1"/>
        <pt x="581" y="258" on="1"/>
        <pt x="581" y="127" on="0"/>
        <pt x="445" y="-9" on="0"/>
        <pt x="207" y="-9" on="0"/>
        <pt x="71" y="124" on="0"/>
        <pt x="71" y="250" on="1"/>
        <pt x="71" y="674" on="1"/>
        <pt x="174" y="674" on="1"/>
        <pt x="174" y="251" on="1"/>
        <pt x="174" y="165" on="0"/>
        <pt x="257" y="86" on="0"/>
        <pt x="325" y="86" on="1"/>
        <pt x="478" y="86" on="0"/>
      </contour>
    </TTGlyph>
    <TTGlyph name="Udieresis" xMin="71" yMin="-9" xMax="581" yMax="867">
      <contour>
        <pt x="478" y="256" on="1"/>
        <pt x="478" y="674" on="1"/>
        <pt x="581" y="674" on="1"/>
        <pt x="581" y="258" on="1"/>
        <pt x="581" y="127" on="0"/>
        <pt x="445" y="-9" on="0"/>
        <pt x="207" y="-9" on="0"/>
        <pt x="71" y="124" on="0"/>
        <pt x="71" y="250" on="1"/>
        <pt x="71" y="674" on="1"/>
        <pt x="174" y="674" on="1"/>
        <pt x="174" y="251" on="1"/>
        <pt x="174" y="165" on="0"/>
        <pt x="257" y="86" on="0"/>
        <pt x="325" y="86" on="1"/>
        <pt x="478" y="86" on="0"/>
      </contour>
      <contour>
        <pt x="378" y="782" on="0"/>
        <pt x="378" y="832" on="0"/>
        <pt x="412" y="867" on="0"/>
        <pt x="464" y="867" on="0"/>
        <pt x="499" y="833" on="0"/>
        <pt x="499" y="781" on="0"/>
        <pt x="464" y="747" on="0"/>
        <pt x="412" y="747" on="0"/>
      </contour>
      <contour>
        <pt x="157" y="781" on="0"/>
        <pt x="157" y="833" on="0"/>
        <pt x="191" y="867" on="0"/>
        <pt x="244" y="867" on="0"/>
        <pt x="278" y="832" on="0"/>
        <pt x="278" y="782" on="0"/>
        <pt x="244" y="747" on="0"/>
        <pt x="191" y="747" on="0"/>
      </contour>
    </TTGlyph>
    <TTGlyph name="Ugrave" xMin="71" yMin="-9" xMax="581" yMax="887">
      <contour>
        <pt x="277" y="887" on="1"/>
        <pt x="372" y="725" on="1"/>
        <pt x="288" y="725" on="1"/>
        <pt x="168" y="887" on="1"/>
      </contour>
      <contour>
        <pt x="478" y="256" on="1"/>
        <pt x="478" y="674" on="1"/>
        <pt x="581" y="674" on="1"/>
        <pt x="581" y="258" on="1"/>
        <pt x="581" y="127" on="0"/>
        <pt x="445" y="-9" on="0"/>
        <pt x="207" y="-9" on="0"/>
        <pt x="71" y="124" on="0"/>
        <pt x="71" y="250" on="1"/>
        <pt x="71" y="674" on="1"/>
        <pt x="174" y="674" on="1"/>
        <pt x="174" y="251" on="1"/>
        <pt x="174" y="165" on="0"/>
        <pt x="257" y="86" on="0"/>
        <pt x="325" y="86" on="1"/>
        <pt x="478" y="86" on="0"/>
      </contour>
    </TTGlyph>
    <TTGlyph name="Uhungarumlaut" xMin="71" yMin="-9" xMax="581" yMax="887">
      <contour>
        <pt x="204" y="725" on="1"/>
        <pt x="298" y="887" on="1"/>
        <pt x="401" y="887" on="1"/>
        <pt x="279" y="725" on="1"/>
      </contour>
      <contour>
        <pt x="369" y="725" on="1"/>
        <pt x="469" y="887" on="1"/>
        <pt x="578" y="887" on="1"/>
        <pt x="444" y="725" on="1"/>
      </contour>
      <contour>
        <pt x="478" y="256" on="1"/>
        <pt x="478" y="674" on="1"/>
        <pt x="581" y="674" on="1"/>
        <pt x="581" y="258" on="1"/>
        <pt x="581" y="127" on="0"/>
        <pt x="445" y="-9" on="0"/>
        <pt x="207" y="-9" on="0"/>
        <pt x="71" y="124" on="0"/>
        <pt x="71" y="250" on="1"/>
        <pt x="71" y="674" on="1"/>
        <pt x="174" y="674" on="1"/>
        <pt x="174" y="251" on="1"/>
        <pt x="174" y="165" on="0"/>
        <pt x="257" y="86" on="0"/>
        <pt x="325" y="86" on="1"/>
        <pt x="478" y="86" on="0"/>
      </contour>
    </TTGlyph>
    <TTGlyph name="Umacron" xMin="71" yMin="-9" xMax="581" yMax="840">
      <contour>
        <pt x="483" y="772" on="1"/>
        <pt x="179" y="772" on="1"/>
        <pt x="179" y="840" on="1"/>
        <pt x="483" y="840" on="1"/>
      </contour>
      <contour>
        <pt x="478" y="256" on="1"/>
        <pt x="478" y="674" on="1"/>
        <pt x="581" y="674" on="1"/>
        <pt x="581" y="258" on="1"/>
        <pt x="581" y="127" on="0"/>
        <pt x="445" y="-9" on="0"/>
        <pt x="207" y="-9" on="0"/>
        <pt x="71" y="124" on="0"/>
        <pt x="71" y="250" on="1"/>
        <pt x="71" y="674" on="1"/>
        <pt x="174" y="674" on="1"/>
        <pt x="174" y="251" on="1"/>
        <pt x="174" y="165" on="0"/>
        <pt x="257" y="86" on="0"/>
        <pt x="325" y="86" on="1"/>
        <pt x="478" y="86" on="0"/>
      </contour>
    </TTGlyph>
    <TTGlyph name="Uogonek" xMin="71" yMin="-240" xMax="581" yMax="674">
      <contour>
        <pt x="478" y="674" on="1"/>
        <pt x="581" y="674" on="1"/>
        <pt x="581" y="258" on="1"/>
        <pt x="581" y="59" on="0"/>
        <pt x="427" y="6" on="1"/>
        <pt x="314" y="-54" on="0"/>
        <pt x="314" y="-120" on="1"/>
        <pt x="314" y="-171" on="0"/>
        <pt x="372" y="-171" on="1"/>
        <pt x="413" y="-171" on="0"/>
        <pt x="446" y="-147" on="1"/>
        <pt x="446" y="-219" on="1"/>
        <pt x="410" y="-240" on="0"/>
        <pt x="297" y="-240" on="0"/>
        <pt x="232" y="-177" on="0"/>
        <pt x="232" y="-128" on="1"/>
        <pt x="232" y="-62" on="0"/>
        <pt x="293" y="-8" on="1"/>
        <pt x="189" y="1" on="0"/>
        <pt x="71" y="133" on="0"/>
        <pt x="71" y="250" on="1"/>
        <pt x="71" y="674" on="1"/>
        <pt x="174" y="674" on="1"/>
        <pt x="174" y="251" on="1"/>
        <pt x="174" y="165" on="0"/>
        <pt x="257" y="86" on="0"/>
        <pt x="325" y="86" on="1"/>
        <pt x="478" y="86" on="0"/>
        <pt x="478" y="256" on="1"/>
      </contour>
    </TTGlyph>
    <TTGlyph name="Uring" xMin="71" yMin="-9" xMax="581" yMax="945">
      <contour>
        <pt x="478" y="256" on="1"/>
        <pt x="478" y="674" on="1"/>
        <pt x="581" y="674" on="1"/>
        <pt x="581" y="258" on="1"/>
        <pt x="581" y="127" on="0"/>
        <pt x="445" y="-9" on="0"/>
        <pt x="207" y="-9" on="0"/>
        <pt x="71" y="124" on="0"/>
        <pt x="71" y="250" on="1"/>
        <pt x="71" y="674" on="1"/>
        <pt x="174" y="674" on="1"/>
        <pt x="174" y="251" on="1"/>
        <pt x="174" y="165" on="0"/>
        <pt x="257" y="86" on="0"/>
        <pt x="325" y="86" on="1"/>
        <pt x="478" y="86" on="0"/>
      </contour>
      <contour>
        <pt x="275" y="853" on="0"/>
        <pt x="275" y="809" on="0"/>
        <pt x="306" y="776" on="0"/>
        <pt x="351" y="776" on="0"/>
        <pt x="382" y="809" on="0"/>
        <pt x="382" y="853" on="0"/>
        <pt x="351" y="885" on="0"/>
        <pt x="306" y="885" on="0"/>
      </contour>
      <contour>
        <pt x="281" y="715" on="0"/>
        <pt x="214" y="782" on="0"/>
        <pt x="214" y="877" on="0"/>
        <pt x="281" y="945" on="0"/>
        <pt x="376" y="945" on="0"/>
        <pt x="444" y="877" on="0"/>
        <pt x="444" y="782" on="0"/>
        <pt x="376" y="715" on="0"/>
      </contour>
    </TTGlyph>
    <TTGlyph name="Utilde" xMin="71" yMin="-9" xMax="581" yMax="867">
      <contour>
        <pt x="401" y="751" on="1"/>
        <pt x="372" y="751" on="0"/>
        <pt x="291" y="792" on="0"/>
        <pt x="272" y="792" on="1"/>
        <pt x="236" y="792" on="0"/>
        <pt x="205" y="746" on="1"/>
        <pt x="156" y="791" on="1"/>
        <pt x="170" y="822" on="0"/>
        <pt x="227" y="865" on="0"/>
        <pt x="293" y="865" on="0"/>
        <pt x="377" y="824" on="0"/>
        <pt x="396" y="824" on="1"/>
        <pt x="433" y="824" on="0"/>
        <pt x="454" y="867" on="1"/>
        <pt x="510" y="825" on="1"/>
        <pt x="475" y="751" on="0"/>
      </contour>
      <contour>
        <pt x="478" y="256" on="1"/>
        <pt x="478" y="674" on="1"/>
        <pt x="581" y="674" on="1"/>
        <pt x="581" y="258" on="1"/>
        <pt x="581" y="127" on="0"/>
        <pt x="445" y="-9" on="0"/>
        <pt x="207" y="-9" on="0"/>
        <pt x="71" y="124" on="0"/>
        <pt x="71" y="250" on="1"/>
        <pt x="71" y="674" on="1"/>
        <pt x="174" y="674" on="1"/>
        <pt x="174" y="251" on="1"/>
        <pt x="174" y="165" on="0"/>
        <pt x="257" y="86" on="0"/>
        <pt x="325" y="86" on="1"/>
        <pt x="478" y="86" on="0"/>
      </contour>
    </TTGlyph>
    <TTGlyph name="V" xMin="31" yMin="0" xMax="613" yMax="674">
      <contour>
        <pt x="613" y="674" on="1"/>
        <pt x="380" y="0" on="1"/>
        <pt x="258" y="0" on="1"/>
        <pt x="31" y="674" on="1"/>
        <pt x="141" y="674" on="1"/>
        <pt x="281" y="238" on="0"/>
        <pt x="320" y="92" on="1"/>
        <pt x="352" y="212" on="0"/>
        <pt x="416" y="406" on="1"/>
        <pt x="503" y="674" on="1"/>
      </contour>
    </TTGlyph>
    <TTGlyph name="W" xMin="31" yMin="0" xMax="917" yMax="674">
      <contour>
        <pt x="432" y="664" on="1"/>
        <pt x="523" y="664" on="1"/>
        <pt x="594" y="424" on="1"/>
        <pt x="685" y="107" on="1"/>
        <pt x="721" y="285" on="0"/>
        <pt x="813" y="674" on="1"/>
        <pt x="917" y="674" on="1"/>
        <pt x="752" y="0" on="1"/>
        <pt x="629" y="0" on="1"/>
        <pt x="565" y="213" on="1"/>
        <pt x="478" y="514" on="1"/>
        <pt x="460" y="440" on="0"/>
        <pt x="332" y="0" on="1"/>
        <pt x="208" y="0" on="1"/>
        <pt x="31" y="674" on="1"/>
        <pt x="138" y="674" on="1"/>
        <pt x="201" y="425" on="1"/>
        <pt x="275" y="109" on="1"/>
        <pt x="317" y="264" on="0"/>
      </contour>
    </TTGlyph>
    <TTGlyph name="Wacute" xMin="31" yMin="0" xMax="917" yMax="887">
      <contour>
        <pt x="446" y="725" on="1"/>
        <pt x="541" y="887" on="1"/>
        <pt x="650" y="887" on="1"/>
        <pt x="530" y="725" on="1"/>
      </contour>
      <contour>
        <pt x="432" y="664" on="1"/>
        <pt x="523" y="664" on="1"/>
        <pt x="594" y="424" on="1"/>
        <pt x="685" y="107" on="1"/>
        <pt x="721" y="285" on="0"/>
        <pt x="813" y="674" on="1"/>
        <pt x="917" y="674" on="1"/>
        <pt x="752" y="0" on="1"/>
        <pt x="629" y="0" on="1"/>
        <pt x="565" y="213" on="1"/>
        <pt x="478" y="514" on="1"/>
        <pt x="460" y="440" on="0"/>
        <pt x="332" y="0" on="1"/>
        <pt x="208" y="0" on="1"/>
        <pt x="31" y="674" on="1"/>
        <pt x="138" y="674" on="1"/>
        <pt x="201" y="425" on="1"/>
        <pt x="275" y="109" on="1"/>
        <pt x="317" y="264" on="0"/>
      </contour>
    </TTGlyph>
    <TTGlyph name="Wcircumflex" xMin="31" yMin="0" xMax="917" yMax="887">
      <contour>
        <pt x="435" y="887" on="1"/>
        <pt x="525" y="887" on="1"/>
        <pt x="660" y="725" on="1"/>
        <pt x="563" y="725" on="1"/>
        <pt x="479" y="827" on="1"/>
        <pt x="397" y="725" on="1"/>
        <pt x="300" y="725" on="1"/>
      </contour>
      <contour>
        <pt x="432" y="664" on="1"/>
        <pt x="523" y="664" on="1"/>
        <pt x="594" y="424" on="1"/>
        <pt x="685" y="107" on="1"/>
        <pt x="721" y="285" on="0"/>
        <pt x="813" y="674" on="1"/>
        <pt x="917" y="674" on="1"/>
        <pt x="752" y="0" on="1"/>
        <pt x="629" y="0" on="1"/>
        <pt x="565" y="213" on="1"/>
        <pt x="478" y="514" on="1"/>
        <pt x="460" y="440" on="0"/>
        <pt x="332" y="0" on="1"/>
        <pt x="208" y="0" on="1"/>
        <pt x="31" y="674" on="1"/>
        <pt x="138" y="674" on="1"/>
        <pt x="201" y="425" on="1"/>
        <pt x="275" y="109" on="1"/>
        <pt x="317" y="264" on="0"/>
      </contour>
    </TTGlyph>
    <TTGlyph name="Wdieresis" xMin="31" yMin="0" xMax="917" yMax="866">
      <contour>
        <pt x="307" y="780" on="0"/>
        <pt x="307" y="832" on="0"/>
        <pt x="341" y="866" on="0"/>
        <pt x="394" y="866" on="0"/>
        <pt x="428" y="832" on="0"/>
        <pt x="428" y="780" on="0"/>
        <pt x="394" y="746" on="0"/>
        <pt x="341" y="746" on="0"/>
      </contour>
      <contour>
        <pt x="528" y="780" on="0"/>
        <pt x="528" y="832" on="0"/>
        <pt x="562" y="866" on="0"/>
        <pt x="614" y="866" on="0"/>
        <pt x="649" y="832" on="0"/>
        <pt x="649" y="780" on="0"/>
        <pt x="614" y="746" on="0"/>
        <pt x="562" y="746" on="0"/>
      </contour>
      <contour>
        <pt x="432" y="664" on="1"/>
        <pt x="523" y="664" on="1"/>
        <pt x="594" y="424" on="1"/>
        <pt x="685" y="107" on="1"/>
        <pt x="721" y="285" on="0"/>
        <pt x="813" y="674" on="1"/>
        <pt x="917" y="674" on="1"/>
        <pt x="752" y="0" on="1"/>
        <pt x="629" y="0" on="1"/>
        <pt x="565" y="213" on="1"/>
        <pt x="478" y="514" on="1"/>
        <pt x="460" y="440" on="0"/>
        <pt x="332" y="0" on="1"/>
        <pt x="208" y="0" on="1"/>
        <pt x="31" y="674" on="1"/>
        <pt x="138" y="674" on="1"/>
        <pt x="201" y="425" on="1"/>
        <pt x="275" y="109" on="1"/>
        <pt x="317" y="264" on="0"/>
      </contour>
    </TTGlyph>
    <TTGlyph name="Wgrave" xMin="31" yMin="0" xMax="917" yMax="887">
      <contour>
        <pt x="432" y="664" on="1"/>
        <pt x="523" y="664" on="1"/>
        <pt x="594" y="424" on="1"/>
        <pt x="685" y="107" on="1"/>
        <pt x="721" y="285" on="0"/>
        <pt x="813" y="674" on="1"/>
        <pt x="917" y="674" on="1"/>
        <pt x="752" y="0" on="1"/>
        <pt x="629" y="0" on="1"/>
        <pt x="565" y="213" on="1"/>
        <pt x="478" y="514" on="1"/>
        <pt x="460" y="440" on="0"/>
        <pt x="332" y="0" on="1"/>
        <pt x="208" y="0" on="1"/>
        <pt x="31" y="674" on="1"/>
        <pt x="138" y="674" on="1"/>
        <pt x="201" y="425" on="1"/>
        <pt x="275" y="109" on="1"/>
        <pt x="317" y="264" on="0"/>
      </contour>
      <contour>
        <pt x="420" y="887" on="1"/>
        <pt x="515" y="725" on="1"/>
        <pt x="431" y="725" on="1"/>
        <pt x="311" y="887" on="1"/>
      </contour>
    </TTGlyph>
    <TTGlyph name="X" xMin="35" yMin="0" xMax="592" yMax="674">
      <contour>
        <pt x="311" y="253" on="1"/>
        <pt x="158" y="0" on="1"/>
        <pt x="35" y="0" on="1"/>
        <pt x="251" y="341" on="1"/>
        <pt x="47" y="674" on="1"/>
        <pt x="166" y="674" on="1"/>
        <pt x="309" y="432" on="1"/>
        <pt x="450" y="674" on="1"/>
        <pt x="573" y="674" on="1"/>
        <pt x="369" y="340" on="1"/>
        <pt x="592" y="0" on="1"/>
        <pt x="471" y="0" on="1"/>
      </contour>
    </TTGlyph>
    <TTGlyph name="Y" xMin="23" yMin="0" xMax="585" yMax="674">
      <contour>
        <pt x="354" y="0" on="1"/>
        <pt x="251" y="0" on="1"/>
        <pt x="251" y="251" on="1"/>
        <pt x="23" y="674" on="1"/>
        <pt x="141" y="674" on="1"/>
        <pt x="284" y="378" on="0"/>
        <pt x="302" y="335" on="1"/>
        <pt x="311" y="365" on="0"/>
        <pt x="418" y="575" on="1"/>
        <pt x="467" y="674" on="1"/>
        <pt x="585" y="674" on="1"/>
        <pt x="354" y="251" on="1"/>
      </contour>
    </TTGlyph>
    <TTGlyph name="Yacute" xMin="23" yMin="0" xMax="585" yMax="887">
      <contour>
        <pt x="354" y="0" on="1"/>
        <pt x="251" y="0" on="1"/>
        <pt x="251" y="251" on="1"/>
        <pt x="23" y="674" on="1"/>
        <pt x="141" y="674" on="1"/>
        <pt x="284" y="378" on="0"/>
        <pt x="302" y="335" on="1"/>
        <pt x="311" y="365" on="0"/>
        <pt x="418" y="575" on="1"/>
        <pt x="467" y="674" on="1"/>
        <pt x="585" y="674" on="1"/>
        <pt x="354" y="251" on="1"/>
      </contour>
      <contour>
        <pt x="482" y="887" on="1"/>
        <pt x="362" y="725" on="1"/>
        <pt x="278" y="725" on="1"/>
        <pt x="373" y="887" on="1"/>
      </contour>
    </TTGlyph>
    <TTGlyph name="Ycircumflex" xMin="23" yMin="0" xMax="585" yMax="887">
      <contour>
        <pt x="354" y="0" on="1"/>
        <pt x="251" y="0" on="1"/>
        <pt x="251" y="251" on="1"/>
        <pt x="23" y="674" on="1"/>
        <pt x="141" y="674" on="1"/>
        <pt x="284" y="378" on="0"/>
        <pt x="302" y="335" on="1"/>
        <pt x="311" y="365" on="0"/>
        <pt x="418" y="575" on="1"/>
        <pt x="467" y="674" on="1"/>
        <pt x="585" y="674" on="1"/>
        <pt x="354" y="251" on="1"/>
      </contour>
      <contour>
        <pt x="303" y="827" on="1"/>
        <pt x="221" y="725" on="1"/>
        <pt x="124" y="725" on="1"/>
        <pt x="259" y="887" on="1"/>
        <pt x="349" y="887" on="1"/>
        <pt x="484" y="725" on="1"/>
        <pt x="387" y="725" on="1"/>
      </contour>
    </TTGlyph>
    <TTGlyph name="Ydieresis" xMin="23" yMin="0" xMax="585" yMax="866">
      <contour>
        <pt x="354" y="0" on="1"/>
        <pt x="251" y="0" on="1"/>
        <pt x="251" y="251" on="1"/>
        <pt x="23" y="674" on="1"/>
        <pt x="141" y="674" on="1"/>
        <pt x="284" y="378" on="0"/>
        <pt x="302" y="335" on="1"/>
        <pt x="311" y="365" on="0"/>
        <pt x="418" y="575" on="1"/>
        <pt x="467" y="674" on="1"/>
        <pt x="585" y="674" on="1"/>
        <pt x="354" y="251" on="1"/>
      </contour>
      <contour>
        <pt x="257" y="780" on="0"/>
        <pt x="222" y="746" on="0"/>
        <pt x="170" y="746" on="0"/>
        <pt x="136" y="780" on="0"/>
        <pt x="136" y="832" on="0"/>
        <pt x="170" y="866" on="0"/>
        <pt x="222" y="866" on="0"/>
        <pt x="257" y="832" on="0"/>
      </contour>
      <contour>
        <pt x="478" y="780" on="0"/>
        <pt x="443" y="746" on="0"/>
        <pt x="392" y="746" on="0"/>
        <pt x="357" y="780" on="0"/>
        <pt x="357" y="832" on="0"/>
        <pt x="392" y="866" on="0"/>
        <pt x="443" y="866" on="0"/>
        <pt x="478" y="832" on="0"/>
      </contour>
    </TTGlyph>
    <TTGlyph name="Ygrave" xMin="23" yMin="0" xMax="585" yMax="887">
      <contour>
        <pt x="354" y="0" on="1"/>
        <pt x="251" y="0" on="1"/>
        <pt x="251" y="251" on="1"/>
        <pt x="23" y="674" on="1"/>
        <pt x="141" y="674" on="1"/>
        <pt x="284" y="378" on="0"/>
        <pt x="302" y="335" on="1"/>
        <pt x="311" y="365" on="0"/>
        <pt x="418" y="575" on="1"/>
        <pt x="467" y="674" on="1"/>
        <pt x="585" y="674" on="1"/>
        <pt x="354" y="251" on="1"/>
      </contour>
      <contour>
        <pt x="355" y="725" on="1"/>
        <pt x="271" y="725" on="1"/>
        <pt x="151" y="887" on="1"/>
        <pt x="260" y="887" on="1"/>
      </contour>
    </TTGlyph>
    <TTGlyph name="Z" xMin="54" yMin="0" xMax="530" yMax="674">
      <contour>
        <pt x="516" y="674" on="1"/>
        <pt x="516" y="595" on="1"/>
        <pt x="175" y="85" on="1"/>
        <pt x="530" y="85" on="1"/>
        <pt x="530" y="0" on="1"/>
        <pt x="54" y="0" on="1"/>
        <pt x="54" y="81" on="1"/>
        <pt x="394" y="589" on="1"/>
        <pt x="59" y="589" on="1"/>
        <pt x="59" y="674" on="1"/>
      </contour>
    </TTGlyph>
    <TTGlyph name="Zacute" xMin="54" yMin="0" xMax="530" yMax="887">
      <contour>
        <pt x="516" y="674" on="1"/>
        <pt x="516" y="595" on="1"/>
        <pt x="175" y="85" on="1"/>
        <pt x="530" y="85" on="1"/>
        <pt x="530" y="0" on="1"/>
        <pt x="54" y="0" on="1"/>
        <pt x="54" y="81" on="1"/>
        <pt x="394" y="589" on="1"/>
        <pt x="59" y="589" on="1"/>
        <pt x="59" y="674" on="1"/>
      </contour>
      <contour>
        <pt x="266" y="725" on="1"/>
        <pt x="361" y="887" on="1"/>
        <pt x="470" y="887" on="1"/>
        <pt x="350" y="725" on="1"/>
      </contour>
    </TTGlyph>
    <TTGlyph name="Zcaron" xMin="54" yMin="0" xMax="530" yMax="887">
      <contour>
        <pt x="339" y="725" on="1"/>
        <pt x="249" y="725" on="1"/>
        <pt x="114" y="887" on="1"/>
        <pt x="211" y="887" on="1"/>
        <pt x="294" y="785" on="1"/>
        <pt x="377" y="887" on="1"/>
        <pt x="474" y="887" on="1"/>
      </contour>
      <contour>
        <pt x="516" y="674" on="1"/>
        <pt x="516" y="595" on="1"/>
        <pt x="175" y="85" on="1"/>
        <pt x="530" y="85" on="1"/>
        <pt x="530" y="0" on="1"/>
        <pt x="54" y="0" on="1"/>
        <pt x="54" y="81" on="1"/>
        <pt x="394" y="589" on="1"/>
        <pt x="59" y="589" on="1"/>
        <pt x="59" y="674" on="1"/>
      </contour>
    </TTGlyph>
    <TTGlyph name="Zdotaccent" xMin="54" yMin="0" xMax="530" yMax="868">
      <contour>
        <pt x="242" y="782" on="0"/>
        <pt x="242" y="834" on="0"/>
        <pt x="277" y="868" on="0"/>
        <pt x="329" y="868" on="0"/>
        <pt x="363" y="834" on="0"/>
        <pt x="363" y="782" on="0"/>
        <pt x="329" y="748" on="0"/>
        <pt x="277" y="748" on="0"/>
      </contour>
      <contour>
        <pt x="516" y="674" on="1"/>
        <pt x="516" y="595" on="1"/>
        <pt x="175" y="85" on="1"/>
        <pt x="530" y="85" on="1"/>
        <pt x="530" y="0" on="1"/>
        <pt x="54" y="0" on="1"/>
        <pt x="54" y="81" on="1"/>
        <pt x="394" y="589" on="1"/>
        <pt x="59" y="589" on="1"/>
        <pt x="59" y="674" on="1"/>
      </contour>
    </TTGlyph>
    <TTGlyph name="a" xMin="43" yMin="-4" xMax="436" yMax="515">
      <contour>
        <pt x="237" y="515" on="1"/>
        <pt x="436" y="515" on="0"/>
        <pt x="436" y="322" on="1"/>
        <pt x="436" y="0" on="1"/>
        <pt x="339" y="0" on="1"/>
        <pt x="339" y="60" on="1"/>
        <pt x="300" y="-4" on="0"/>
        <pt x="202" y="-4" on="1"/>
        <pt x="130" y="-4" on="0"/>
        <pt x="43" y="79" on="0"/>
        <pt x="43" y="216" on="0"/>
        <pt x="153" y="297" on="0"/>
        <pt x="252" y="297" on="1"/>
        <pt x="336" y="297" on="1"/>
        <pt x="336" y="326" on="1"/>
        <pt x="336" y="378" on="0"/>
        <pt x="286" y="431" on="0"/>
        <pt x="228" y="431" on="1"/>
        <pt x="147" y="431" on="0"/>
        <pt x="81" y="386" on="1"/>
        <pt x="81" y="481" on="1"/>
        <pt x="140" y="515" on="0"/>
      </contour>
      <contour>
        <pt x="336" y="226" on="1"/>
        <pt x="260" y="226" on="1"/>
        <pt x="204" y="226" on="0"/>
        <pt x="147" y="182" on="0"/>
        <pt x="147" y="113" on="0"/>
        <pt x="191" y="73" on="0"/>
        <pt x="281" y="73" on="0"/>
        <pt x="336" y="126" on="0"/>
        <pt x="336" y="169" on="1"/>
      </contour>
    </TTGlyph>
    <TTGlyph name="aacute" xMin="43" yMin="-4" xMax="436" yMax="720">
      <contour>
        <pt x="237" y="515" on="1"/>
        <pt x="436" y="515" on="0"/>
        <pt x="436" y="322" on="1"/>
        <pt x="436" y="0" on="1"/>
        <pt x="339" y="0" on="1"/>
        <pt x="339" y="60" on="1"/>
        <pt x="300" y="-4" on="0"/>
        <pt x="202" y="-4" on="1"/>
        <pt x="130" y="-4" on="0"/>
        <pt x="43" y="79" on="0"/>
        <pt x="43" y="216" on="0"/>
        <pt x="153" y="297" on="0"/>
        <pt x="252" y="297" on="1"/>
        <pt x="336" y="297" on="1"/>
        <pt x="336" y="326" on="1"/>
        <pt x="336" y="378" on="0"/>
        <pt x="286" y="431" on="0"/>
        <pt x="228" y="431" on="1"/>
        <pt x="147" y="431" on="0"/>
        <pt x="81" y="386" on="1"/>
        <pt x="81" y="481" on="1"/>
        <pt x="140" y="515" on="0"/>
      </contour>
      <contour>
        <pt x="336" y="226" on="1"/>
        <pt x="260" y="226" on="1"/>
        <pt x="204" y="226" on="0"/>
        <pt x="147" y="182" on="0"/>
        <pt x="147" y="113" on="0"/>
        <pt x="191" y="73" on="0"/>
        <pt x="281" y="73" on="0"/>
        <pt x="336" y="126" on="0"/>
        <pt x="336" y="169" on="1"/>
      </contour>
      <contour>
        <pt x="419" y="720" on="1"/>
        <pt x="299" y="558" on="1"/>
        <pt x="215" y="558" on="1"/>
        <pt x="310" y="720" on="1"/>
      </contour>
    </TTGlyph>
    <TTGlyph name="abreve" xMin="43" yMin="-4" xMax="436" yMax="719">
      <contour>
        <pt x="237" y="515" on="1"/>
        <pt x="436" y="515" on="0"/>
        <pt x="436" y="322" on="1"/>
        <pt x="436" y="0" on="1"/>
        <pt x="339" y="0" on="1"/>
        <pt x="339" y="60" on="1"/>
        <pt x="300" y="-4" on="0"/>
        <pt x="202" y="-4" on="1"/>
        <pt x="130" y="-4" on="0"/>
        <pt x="43" y="79" on="0"/>
        <pt x="43" y="216" on="0"/>
        <pt x="153" y="297" on="0"/>
        <pt x="252" y="297" on="1"/>
        <pt x="336" y="297" on="1"/>
        <pt x="336" y="326" on="1"/>
        <pt x="336" y="378" on="0"/>
        <pt x="286" y="431" on="0"/>
        <pt x="228" y="431" on="1"/>
        <pt x="147" y="431" on="0"/>
        <pt x="81" y="386" on="1"/>
        <pt x="81" y="481" on="1"/>
        <pt x="140" y="515" on="0"/>
      </contour>
      <contour>
        <pt x="336" y="226" on="1"/>
        <pt x="260" y="226" on="1"/>
        <pt x="204" y="226" on="0"/>
        <pt x="147" y="182" on="0"/>
        <pt x="147" y="113" on="0"/>
        <pt x="191" y="73" on="0"/>
        <pt x="281" y="73" on="0"/>
        <pt x="336" y="126" on="0"/>
        <pt x="336" y="169" on="1"/>
      </contour>
      <contour>
        <pt x="347" y="719" on="1"/>
        <pt x="425" y="719" on="1"/>
        <pt x="425" y="640" on="0"/>
        <pt x="335" y="554" on="0"/>
        <pt x="167" y="554" on="0"/>
        <pt x="77" y="640" on="0"/>
        <pt x="77" y="719" on="1"/>
        <pt x="155" y="719" on="1"/>
        <pt x="155" y="675" on="0"/>
        <pt x="203" y="621" on="0"/>
        <pt x="299" y="621" on="0"/>
        <pt x="347" y="675" on="0"/>
      </contour>
    </TTGlyph>
    <TTGlyph name="acircumflex" xMin="43" yMin="-4" xMax="436" yMax="720">
      <contour>
        <pt x="237" y="515" on="1"/>
        <pt x="436" y="515" on="0"/>
        <pt x="436" y="322" on="1"/>
        <pt x="436" y="0" on="1"/>
        <pt x="339" y="0" on="1"/>
        <pt x="339" y="60" on="1"/>
        <pt x="300" y="-4" on="0"/>
        <pt x="202" y="-4" on="1"/>
        <pt x="130" y="-4" on="0"/>
        <pt x="43" y="79" on="0"/>
        <pt x="43" y="216" on="0"/>
        <pt x="153" y="297" on="0"/>
        <pt x="252" y="297" on="1"/>
        <pt x="336" y="297" on="1"/>
        <pt x="336" y="326" on="1"/>
        <pt x="336" y="378" on="0"/>
        <pt x="286" y="431" on="0"/>
        <pt x="228" y="431" on="1"/>
        <pt x="147" y="431" on="0"/>
        <pt x="81" y="386" on="1"/>
        <pt x="81" y="481" on="1"/>
        <pt x="140" y="515" on="0"/>
      </contour>
      <contour>
        <pt x="336" y="226" on="1"/>
        <pt x="260" y="226" on="1"/>
        <pt x="204" y="226" on="0"/>
        <pt x="147" y="182" on="0"/>
        <pt x="147" y="113" on="0"/>
        <pt x="191" y="73" on="0"/>
        <pt x="281" y="73" on="0"/>
        <pt x="336" y="126" on="0"/>
        <pt x="336" y="169" on="1"/>
      </contour>
      <contour>
        <pt x="254" y="660" on="1"/>
        <pt x="172" y="558" on="1"/>
        <pt x="75" y="558" on="1"/>
        <pt x="210" y="720" on="1"/>
        <pt x="300" y="720" on="1"/>
        <pt x="435" y="558" on="1"/>
        <pt x="338" y="558" on="1"/>
      </contour>
    </TTGlyph>
    <TTGlyph name="acute" xMin="121" yMin="636" xMax="325" yMax="798">
      <contour>
        <pt x="121" y="636" on="1"/>
        <pt x="216" y="798" on="1"/>
        <pt x="325" y="798" on="1"/>
        <pt x="205" y="636" on="1"/>
      </contour>
    </TTGlyph>
    <TTGlyph name="adieresis" xMin="43" yMin="-4" xMax="436" yMax="698">
      <contour>
        <pt x="237" y="515" on="1"/>
        <pt x="436" y="515" on="0"/>
        <pt x="436" y="322" on="1"/>
        <pt x="436" y="0" on="1"/>
        <pt x="339" y="0" on="1"/>
        <pt x="339" y="60" on="1"/>
        <pt x="300" y="-4" on="0"/>
        <pt x="202" y="-4" on="1"/>
        <pt x="130" y="-4" on="0"/>
        <pt x="43" y="79" on="0"/>
        <pt x="43" y="216" on="0"/>
        <pt x="153" y="297" on="0"/>
        <pt x="252" y="297" on="1"/>
        <pt x="336" y="297" on="1"/>
        <pt x="336" y="326" on="1"/>
        <pt x="336" y="378" on="0"/>
        <pt x="286" y="431" on="0"/>
        <pt x="228" y="431" on="1"/>
        <pt x="147" y="431" on="0"/>
        <pt x="81" y="386" on="1"/>
        <pt x="81" y="481" on="1"/>
        <pt x="140" y="515" on="0"/>
      </contour>
      <contour>
        <pt x="336" y="226" on="1"/>
        <pt x="260" y="226" on="1"/>
        <pt x="204" y="226" on="0"/>
        <pt x="147" y="182" on="0"/>
        <pt x="147" y="113" on="0"/>
        <pt x="191" y="73" on="0"/>
        <pt x="281" y="73" on="0"/>
        <pt x="336" y="126" on="0"/>
        <pt x="336" y="169" on="1"/>
      </contour>
      <contour>
        <pt x="206" y="612" on="0"/>
        <pt x="172" y="578" on="0"/>
        <pt x="119" y="578" on="0"/>
        <pt x="85" y="612" on="0"/>
        <pt x="85" y="664" on="0"/>
        <pt x="119" y="698" on="0"/>
        <pt x="172" y="698" on="0"/>
        <pt x="206" y="664" on="0"/>
      </contour>
      <contour>
        <pt x="392" y="578" on="0"/>
        <pt x="340" y="578" on="0"/>
        <pt x="306" y="612" on="0"/>
        <pt x="306" y="664" on="0"/>
        <pt x="340" y="698" on="0"/>
        <pt x="392" y="698" on="0"/>
        <pt x="427" y="664" on="0"/>
        <pt x="427" y="612" on="0"/>
      </contour>
    </TTGlyph>
    <TTGlyph name="ae" xMin="48" yMin="-5" xMax="776" yMax="515">
      <contour>
        <pt x="450" y="147" on="0"/>
        <pt x="541" y="77" on="0"/>
        <pt x="687" y="77" on="0"/>
        <pt x="741" y="115" on="1"/>
        <pt x="741" y="27" on="1"/>
        <pt x="685" y="-5" on="0"/>
        <pt x="535" y="-5" on="0"/>
        <pt x="424" y="48" on="0"/>
        <pt x="395" y="96" on="1"/>
        <pt x="376" y="52" on="0"/>
        <pt x="285" y="-5" on="0"/>
        <pt x="139" y="-5" on="0"/>
        <pt x="48" y="75" on="0"/>
        <pt x="48" y="216" on="0"/>
        <pt x="159" y="298" on="0"/>
        <pt x="259" y="298" on="1"/>
        <pt x="341" y="298" on="1"/>
        <pt x="341" y="326" on="1"/>
        <pt x="341" y="378" on="0"/>
        <pt x="291" y="431" on="0"/>
        <pt x="153" y="431" on="0"/>
        <pt x="86" y="387" on="1"/>
        <pt x="86" y="480" on="1"/>
        <pt x="144" y="515" on="0"/>
        <pt x="238" y="515" on="1"/>
        <pt x="363" y="515" on="0"/>
        <pt x="398" y="430" on="1"/>
        <pt x="454" y="513" on="0"/>
        <pt x="568" y="513" on="1"/>
        <pt x="667" y="513" on="0"/>
        <pt x="776" y="391" on="0"/>
        <pt x="776" y="275" on="1"/>
        <pt x="776" y="247" on="0"/>
        <pt x="770" y="213" on="1"/>
        <pt x="439" y="213" on="1"/>
      </contour>
      <contour>
        <pt x="681" y="290" on="1"/>
        <pt x="681" y="308" on="1"/>
        <pt x="680" y="367" on="0"/>
        <pt x="620" y="432" on="0"/>
        <pt x="519" y="432" on="0"/>
        <pt x="446" y="360" on="0"/>
        <pt x="437" y="290" on="1"/>
      </contour>
      <contour>
        <pt x="341" y="175" on="1"/>
        <pt x="341" y="225" on="1"/>
        <pt x="274" y="225" on="1"/>
        <pt x="151" y="225" on="0"/>
        <pt x="151" y="147" on="1"/>
        <pt x="151" y="113" on="0"/>
        <pt x="195" y="74" on="0"/>
        <pt x="282" y="74" on="0"/>
        <pt x="341" y="129" on="0"/>
      </contour>
    </TTGlyph>
    <TTGlyph name="agrave" xMin="43" yMin="-4" xMax="436" yMax="720">
      <contour>
        <pt x="237" y="515" on="1"/>
        <pt x="436" y="515" on="0"/>
        <pt x="436" y="322" on="1"/>
        <pt x="436" y="0" on="1"/>
        <pt x="339" y="0" on="1"/>
        <pt x="339" y="60" on="1"/>
        <pt x="300" y="-4" on="0"/>
        <pt x="202" y="-4" on="1"/>
        <pt x="130" y="-4" on="0"/>
        <pt x="43" y="79" on="0"/>
        <pt x="43" y="216" on="0"/>
        <pt x="153" y="297" on="0"/>
        <pt x="252" y="297" on="1"/>
        <pt x="336" y="297" on="1"/>
        <pt x="336" y="326" on="1"/>
        <pt x="336" y="378" on="0"/>
        <pt x="286" y="431" on="0"/>
        <pt x="228" y="431" on="1"/>
        <pt x="147" y="431" on="0"/>
        <pt x="81" y="386" on="1"/>
        <pt x="81" y="481" on="1"/>
        <pt x="140" y="515" on="0"/>
      </contour>
      <contour>
        <pt x="336" y="226" on="1"/>
        <pt x="260" y="226" on="1"/>
        <pt x="204" y="226" on="0"/>
        <pt x="147" y="182" on="0"/>
        <pt x="147" y="113" on="0"/>
        <pt x="191" y="73" on="0"/>
        <pt x="281" y="73" on="0"/>
        <pt x="336" y="126" on="0"/>
        <pt x="336" y="169" on="1"/>
      </contour>
      <contour>
        <pt x="301" y="558" on="1"/>
        <pt x="217" y="558" on="1"/>
        <pt x="97" y="720" on="1"/>
        <pt x="206" y="720" on="1"/>
      </contour>
    </TTGlyph>
    <TTGlyph name="amacron" xMin="43" yMin="-4" xMax="436" yMax="673">
      <contour>
        <pt x="237" y="515" on="1"/>
        <pt x="436" y="515" on="0"/>
        <pt x="436" y="322" on="1"/>
        <pt x="436" y="0" on="1"/>
        <pt x="339" y="0" on="1"/>
        <pt x="339" y="60" on="1"/>
        <pt x="300" y="-4" on="0"/>
        <pt x="202" y="-4" on="1"/>
        <pt x="130" y="-4" on="0"/>
        <pt x="43" y="79" on="0"/>
        <pt x="43" y="216" on="0"/>
        <pt x="153" y="297" on="0"/>
        <pt x="252" y="297" on="1"/>
        <pt x="336" y="297" on="1"/>
        <pt x="336" y="326" on="1"/>
        <pt x="336" y="378" on="0"/>
        <pt x="286" y="431" on="0"/>
        <pt x="228" y="431" on="1"/>
        <pt x="147" y="431" on="0"/>
        <pt x="81" y="386" on="1"/>
        <pt x="81" y="481" on="1"/>
        <pt x="140" y="515" on="0"/>
      </contour>
      <contour>
        <pt x="336" y="226" on="1"/>
        <pt x="260" y="226" on="1"/>
        <pt x="204" y="226" on="0"/>
        <pt x="147" y="182" on="0"/>
        <pt x="147" y="113" on="0"/>
        <pt x="191" y="73" on="0"/>
        <pt x="281" y="73" on="0"/>
        <pt x="336" y="126" on="0"/>
        <pt x="336" y="169" on="1"/>
      </contour>
      <contour>
        <pt x="403" y="673" on="1"/>
        <pt x="403" y="605" on="1"/>
        <pt x="99" y="605" on="1"/>
        <pt x="99" y="673" on="1"/>
      </contour>
    </TTGlyph>
    <TTGlyph name="ampersand" xMin="61" yMin="-8" xMax="712" yMax="690">
      <contour>
        <pt x="525" y="55" on="1"/>
        <pt x="443" y="-8" on="0"/>
        <pt x="204" y="-8" on="0"/>
        <pt x="61" y="98" on="0"/>
        <pt x="61" y="178" on="1"/>
        <pt x="61" y="296" on="0"/>
        <pt x="216" y="351" on="1"/>
        <pt x="130" y="440" on="0"/>
        <pt x="130" y="596" on="0"/>
        <pt x="238" y="690" on="0"/>
        <pt x="415" y="690" on="0"/>
        <pt x="524" y="591" on="0"/>
        <pt x="524" y="512" on="1"/>
        <pt x="524" y="454" on="0"/>
        <pt x="453" y="362" on="0"/>
        <pt x="370" y="324" on="1"/>
        <pt x="518" y="182" on="1"/>
        <pt x="541" y="224" on="0"/>
        <pt x="544" y="277" on="1"/>
        <pt x="636" y="277" on="1"/>
        <pt x="632" y="189" on="0"/>
        <pt x="585" y="119" on="1"/>
        <pt x="614" y="92" on="0"/>
        <pt x="705" y="6" on="0"/>
        <pt x="712" y="0" on="1"/>
        <pt x="584" y="0" on="1"/>
      </contour>
      <contour>
        <pt x="424" y="551" on="0"/>
        <pt x="372" y="604" on="0"/>
        <pt x="283" y="604" on="0"/>
        <pt x="231" y="558" on="0"/>
        <pt x="231" y="487" on="0"/>
        <pt x="269" y="426" on="0"/>
        <pt x="311" y="381" on="1"/>
        <pt x="424" y="436" on="0"/>
        <pt x="424" y="509" on="1"/>
      </contour>
      <contour>
        <pt x="216" y="269" on="0"/>
        <pt x="162" y="218" on="0"/>
        <pt x="162" y="134" on="0"/>
        <pt x="252" y="78" on="0"/>
        <pt x="400" y="78" on="0"/>
        <pt x="459" y="117" on="1"/>
        <pt x="275" y="291" on="1"/>
      </contour>
    </TTGlyph>
    <TTGlyph name="aogonek" xMin="43" yMin="-247" xMax="454" yMax="515">
      <contour>
        <pt x="436" y="322" on="1"/>
        <pt x="436" y="0" on="1"/>
        <pt x="322" y="-61" on="0"/>
        <pt x="322" y="-127" on="1"/>
        <pt x="322" y="-178" on="0"/>
        <pt x="380" y="-178" on="1"/>
        <pt x="419" y="-178" on="0"/>
        <pt x="454" y="-154" on="1"/>
        <pt x="454" y="-226" on="1"/>
        <pt x="418" y="-247" on="0"/>
        <pt x="304" y="-247" on="0"/>
        <pt x="239" y="-184" on="0"/>
        <pt x="239" y="-135" on="1"/>
        <pt x="239" y="-48" on="0"/>
        <pt x="339" y="15" on="1"/>
        <pt x="339" y="63" on="1"/>
        <pt x="292" y="-4" on="0"/>
        <pt x="202" y="-4" on="1"/>
        <pt x="130" y="-4" on="0"/>
        <pt x="43" y="77" on="0"/>
        <pt x="43" y="216" on="0"/>
        <pt x="154" y="298" on="0"/>
        <pt x="254" y="298" on="1"/>
        <pt x="336" y="298" on="1"/>
        <pt x="336" y="326" on="1"/>
        <pt x="336" y="378" on="0"/>
        <pt x="286" y="431" on="0"/>
        <pt x="148" y="431" on="0"/>
        <pt x="81" y="387" on="1"/>
        <pt x="81" y="480" on="1"/>
        <pt x="139" y="515" on="0"/>
        <pt x="237" y="515" on="1"/>
        <pt x="436" y="515" on="0"/>
      </contour>
      <contour>
        <pt x="336" y="225" on="1"/>
        <pt x="269" y="225" on="1"/>
        <pt x="146" y="225" on="0"/>
        <pt x="146" y="147" on="1"/>
        <pt x="146" y="113" on="0"/>
        <pt x="190" y="74" on="0"/>
        <pt x="279" y="74" on="0"/>
        <pt x="336" y="127" on="0"/>
        <pt x="336" y="165" on="1"/>
      </contour>
    </TTGlyph>
    <TTGlyph name="approxequal" xMin="42" yMin="164" xMax="566" yMax="514">
      <contour>
        <pt x="420" y="366" on="1"/>
        <pt x="372" y="366" on="0"/>
        <pt x="241" y="431" on="0"/>
        <pt x="213" y="431" on="1"/>
        <pt x="152" y="431" on="0"/>
        <pt x="105" y="367" on="1"/>
        <pt x="42" y="420" on="1"/>
        <pt x="110" y="514" on="0"/>
        <pt x="196" y="514" on="1"/>
        <pt x="250" y="514" on="0"/>
        <pt x="380" y="450" on="0"/>
        <pt x="408" y="450" on="1"/>
        <pt x="460" y="450" on="0"/>
        <pt x="499" y="507" on="1"/>
        <pt x="566" y="457" on="1"/>
        <pt x="507" y="366" on="0"/>
      </contour>
      <contour>
        <pt x="420" y="164" on="1"/>
        <pt x="372" y="164" on="0"/>
        <pt x="241" y="230" on="0"/>
        <pt x="213" y="230" on="1"/>
        <pt x="152" y="230" on="0"/>
        <pt x="105" y="166" on="1"/>
        <pt x="42" y="219" on="1"/>
        <pt x="110" y="313" on="0"/>
        <pt x="196" y="313" on="1"/>
        <pt x="250" y="313" on="0"/>
        <pt x="380" y="249" on="0"/>
        <pt x="408" y="249" on="1"/>
        <pt x="460" y="249" on="0"/>
        <pt x="499" y="306" on="1"/>
        <pt x="566" y="256" on="1"/>
        <pt x="506" y="164" on="0"/>
      </contour>
    </TTGlyph>
    <TTGlyph name="aring" xMin="43" yMin="-4" xMax="436" yMax="778">
      <contour>
        <pt x="237" y="515" on="1"/>
        <pt x="436" y="515" on="0"/>
        <pt x="436" y="322" on="1"/>
        <pt x="436" y="0" on="1"/>
        <pt x="339" y="0" on="1"/>
        <pt x="339" y="60" on="1"/>
        <pt x="300" y="-4" on="0"/>
        <pt x="202" y="-4" on="1"/>
        <pt x="130" y="-4" on="0"/>
        <pt x="43" y="79" on="0"/>
        <pt x="43" y="216" on="0"/>
        <pt x="153" y="297" on="0"/>
        <pt x="252" y="297" on="1"/>
        <pt x="336" y="297" on="1"/>
        <pt x="336" y="326" on="1"/>
        <pt x="336" y="378" on="0"/>
        <pt x="286" y="431" on="0"/>
        <pt x="228" y="431" on="1"/>
        <pt x="147" y="431" on="0"/>
        <pt x="81" y="386" on="1"/>
        <pt x="81" y="481" on="1"/>
        <pt x="140" y="515" on="0"/>
      </contour>
      <contour>
        <pt x="336" y="226" on="1"/>
        <pt x="260" y="226" on="1"/>
        <pt x="204" y="226" on="0"/>
        <pt x="147" y="182" on="0"/>
        <pt x="147" y="113" on="0"/>
        <pt x="191" y="73" on="0"/>
        <pt x="281" y="73" on="0"/>
        <pt x="336" y="126" on="0"/>
        <pt x="336" y="169" on="1"/>
      </contour>
      <contour>
        <pt x="372" y="615" on="0"/>
        <pt x="304" y="548" on="0"/>
        <pt x="209" y="548" on="0"/>
        <pt x="142" y="615" on="0"/>
        <pt x="142" y="710" on="0"/>
        <pt x="209" y="778" on="0"/>
        <pt x="304" y="778" on="0"/>
        <pt x="372" y="710" on="0"/>
      </contour>
      <contour>
        <pt x="310" y="686" on="0"/>
        <pt x="279" y="718" on="0"/>
        <pt x="234" y="718" on="0"/>
        <pt x="203" y="686" on="0"/>
        <pt x="203" y="642" on="0"/>
        <pt x="234" y="609" on="0"/>
        <pt x="279" y="609" on="0"/>
        <pt x="310" y="642" on="0"/>
      </contour>
    </TTGlyph>
    <TTGlyph name="asciicircum" xMin="41" yMin="332" xMax="428" yMax="594">
      <contour>
        <pt x="428" y="332" on="1"/>
        <pt x="333" y="332" on="1"/>
        <pt x="236" y="522" on="1"/>
        <pt x="137" y="332" on="1"/>
        <pt x="41" y="332" on="1"/>
        <pt x="186" y="594" on="1"/>
        <pt x="286" y="594" on="1"/>
      </contour>
    </TTGlyph>
    <TTGlyph name="asciitilde" xMin="34" yMin="192" xMax="581" yMax="348">
      <contour>
        <pt x="429" y="192" on="1"/>
        <pt x="378" y="192" on="0"/>
        <pt x="241" y="259" on="0"/>
        <pt x="212" y="259" on="1"/>
        <pt x="149" y="259" on="0"/>
        <pt x="100" y="193" on="1"/>
        <pt x="34" y="249" on="1"/>
        <pt x="103" y="348" on="0"/>
        <pt x="194" y="348" on="1"/>
        <pt x="239" y="348" on="0"/>
        <pt x="321" y="315" on="0"/>
        <pt x="388" y="282" on="0"/>
        <pt x="415" y="282" on="1"/>
        <pt x="470" y="282" on="0"/>
        <pt x="510" y="341" on="1"/>
        <pt x="581" y="288" on="1"/>
        <pt x="518" y="192" on="0"/>
      </contour>
    </TTGlyph>
    <TTGlyph name="asterisk" xMin="29" yMin="313" xMax="408" yMax="674">
      <contour>
        <pt x="276" y="471" on="1"/>
        <pt x="271" y="471" on="1"/>
        <pt x="289" y="460" on="0"/>
        <pt x="304" y="439" on="1"/>
        <pt x="360" y="360" on="1"/>
        <pt x="296" y="313" on="1"/>
        <pt x="239" y="391" on="1"/>
        <pt x="227" y="408" on="0"/>
        <pt x="219" y="431" on="1"/>
        <pt x="215" y="413" on="0"/>
        <pt x="199" y="391" on="1"/>
        <pt x="141" y="313" on="1"/>
        <pt x="76" y="360" on="1"/>
        <pt x="134" y="438" on="1"/>
        <pt x="148" y="457" on="0"/>
        <pt x="167" y="470" on="1"/>
        <pt x="161" y="470" on="1"/>
        <pt x="139" y="470" on="0"/>
        <pt x="121" y="476" on="1"/>
        <pt x="29" y="507" on="1"/>
        <pt x="53" y="583" on="1"/>
        <pt x="146" y="553" on="1"/>
        <pt x="171" y="544" on="0"/>
        <pt x="187" y="530" on="1"/>
        <pt x="178" y="553" on="0"/>
        <pt x="178" y="577" on="1"/>
        <pt x="178" y="674" on="1"/>
        <pt x="258" y="674" on="1"/>
        <pt x="258" y="577" on="1"/>
        <pt x="258" y="551" on="0"/>
        <pt x="250" y="532" on="1"/>
        <pt x="268" y="546" on="0"/>
        <pt x="291" y="554" on="1"/>
        <pt x="383" y="583" on="1"/>
        <pt x="408" y="507" on="1"/>
        <pt x="316" y="477" on="1"/>
        <pt x="298" y="471" on="0"/>
      </contour>
    </TTGlyph>
    <TTGlyph name="at" xMin="54" yMin="-182" xMax="883" yMax="630">
      <contour>
        <pt x="573" y="356" on="1"/>
        <pt x="573" y="371" on="0"/>
        <pt x="577" y="419" on="1"/>
        <pt x="657" y="419" on="1"/>
        <pt x="640" y="244" on="0"/>
        <pt x="640" y="196" on="1"/>
        <pt x="640" y="93" on="0"/>
        <pt x="702" y="93" on="1"/>
        <pt x="743" y="93" on="0"/>
        <pt x="798" y="186" on="0"/>
        <pt x="798" y="261" on="1"/>
        <pt x="798" y="399" on="0"/>
        <pt x="628" y="548" on="0"/>
        <pt x="350" y="548" on="0"/>
        <pt x="145" y="344" on="0"/>
        <pt x="145" y="56" on="0"/>
        <pt x="311" y="-99" on="0"/>
        <pt x="431" y="-99" on="1"/>
        <pt x="532" y="-99" on="0"/>
        <pt x="615" y="-55" on="1"/>
        <pt x="611" y="-146" on="1"/>
        <pt x="536" y="-182" on="0"/>
        <pt x="430" y="-182" on="1"/>
        <pt x="256" y="-182" on="0"/>
        <pt x="54" y="33" on="0"/>
        <pt x="54" y="197" on="1"/>
        <pt x="54" y="319" on="0"/>
        <pt x="175" y="519" on="0"/>
        <pt x="379" y="630" on="0"/>
        <pt x="499" y="630" on="1"/>
        <pt x="660" y="630" on="0"/>
        <pt x="883" y="431" on="0"/>
        <pt x="883" y="267" on="1"/>
        <pt x="883" y="152" on="0"/>
        <pt x="771" y="15" on="0"/>
        <pt x="698" y="15" on="1"/>
        <pt x="598" y="15" on="0"/>
        <pt x="570" y="108" on="1"/>
        <pt x="522" y="13" on="0"/>
        <pt x="421" y="13" on="1"/>
        <pt x="345" y="13" on="0"/>
        <pt x="257" y="123" on="0"/>
        <pt x="257" y="299" on="0"/>
        <pt x="371" y="423" on="0"/>
        <pt x="535" y="423" on="0"/>
      </contour>
      <contour>
        <pt x="348" y="150" on="0"/>
        <pt x="401" y="89" on="0"/>
        <pt x="481" y="89" on="0"/>
        <pt x="548" y="144" on="0"/>
        <pt x="562" y="193" on="1"/>
        <pt x="564" y="217" on="0"/>
        <pt x="565" y="244" on="1"/>
        <pt x="549" y="347" on="0"/>
        <pt x="463" y="347" on="1"/>
        <pt x="413" y="347" on="0"/>
        <pt x="348" y="264" on="0"/>
      </contour>
    </TTGlyph>
    <TTGlyph name="atilde" xMin="43" yMin="-4" xMax="436" yMax="701">
      <contour>
        <pt x="237" y="515" on="1"/>
        <pt x="436" y="515" on="0"/>
        <pt x="436" y="322" on="1"/>
        <pt x="436" y="0" on="1"/>
        <pt x="339" y="0" on="1"/>
        <pt x="339" y="60" on="1"/>
        <pt x="300" y="-4" on="0"/>
        <pt x="202" y="-4" on="1"/>
        <pt x="130" y="-4" on="0"/>
        <pt x="43" y="79" on="0"/>
        <pt x="43" y="216" on="0"/>
        <pt x="153" y="297" on="0"/>
        <pt x="252" y="297" on="1"/>
        <pt x="336" y="297" on="1"/>
        <pt x="336" y="326" on="1"/>
        <pt x="336" y="378" on="0"/>
        <pt x="286" y="431" on="0"/>
        <pt x="228" y="431" on="1"/>
        <pt x="147" y="431" on="0"/>
        <pt x="81" y="386" on="1"/>
        <pt x="81" y="481" on="1"/>
        <pt x="140" y="515" on="0"/>
      </contour>
      <contour>
        <pt x="336" y="226" on="1"/>
        <pt x="260" y="226" on="1"/>
        <pt x="204" y="226" on="0"/>
        <pt x="147" y="182" on="0"/>
        <pt x="147" y="113" on="0"/>
        <pt x="191" y="73" on="0"/>
        <pt x="281" y="73" on="0"/>
        <pt x="336" y="126" on="0"/>
        <pt x="336" y="169" on="1"/>
      </contour>
      <contour>
        <pt x="320" y="585" on="1"/>
        <pt x="291" y="585" on="0"/>
        <pt x="210" y="626" on="0"/>
        <pt x="190" y="626" on="1"/>
        <pt x="155" y="626" on="0"/>
        <pt x="124" y="580" on="1"/>
        <pt x="75" y="625" on="1"/>
        <pt x="89" y="656" on="0"/>
        <pt x="146" y="699" on="0"/>
        <pt x="212" y="699" on="0"/>
        <pt x="296" y="658" on="0"/>
        <pt x="315" y="658" on="1"/>
        <pt x="352" y="658" on="0"/>
        <pt x="373" y="701" on="1"/>
        <pt x="429" y="659" on="1"/>
        <pt x="394" y="585" on="0"/>
      </contour>
    </TTGlyph>
    <TTGlyph name="b" xMin="71" yMin="-7" xMax="541" yMax="707">
      <contour>
        <pt x="170" y="707" on="1"/>
        <pt x="170" y="430" on="1"/>
        <pt x="224" y="514" on="0"/>
        <pt x="419" y="514" on="0"/>
        <pt x="541" y="370" on="0"/>
        <pt x="541" y="144" on="0"/>
        <pt x="425" y="-7" on="0"/>
        <pt x="223" y="-7" on="0"/>
        <pt x="170" y="77" on="1"/>
        <pt x="170" y="0" on="1"/>
        <pt x="71" y="0" on="1"/>
        <pt x="71" y="707" on="1"/>
      </contour>
      <contour>
        <pt x="170" y="167" on="0"/>
        <pt x="250" y="79" on="0"/>
        <pt x="364" y="79" on="0"/>
        <pt x="440" y="174" on="0"/>
        <pt x="440" y="335" on="0"/>
        <pt x="364" y="428" on="0"/>
        <pt x="253" y="428" on="0"/>
        <pt x="170" y="344" on="0"/>
      </contour>
    </TTGlyph>
    <TTGlyph name="backslash" xMin="-37" yMin="-103" xMax="428" yMax="707">
      <contour>
        <pt x="65" y="707" on="1"/>
        <pt x="428" y="-103" on="1"/>
        <pt x="327" y="-103" on="1"/>
        <pt x="-37" y="707" on="1"/>
      </contour>
    </TTGlyph>
    <TTGlyph name="bar" xMin="76" yMin="-194" xMax="167" yMax="695">
      <contour>
        <pt x="76" y="-194" on="1"/>
        <pt x="76" y="695" on="1"/>
        <pt x="167" y="695" on="1"/>
        <pt x="167" y="-194" on="1"/>
      </contour>
    </TTGlyph>
    <TTGlyph name="braceleft" xMin="46" yMin="-194" xMax="331" yMax="713">
      <contour>
        <pt x="46" y="212" on="1"/>
        <pt x="46" y="308" on="1"/>
        <pt x="60" y="308" on="0"/>
        <pt x="71" y="309" on="1"/>
        <pt x="112" y="313" on="0"/>
        <pt x="158" y="377" on="0"/>
        <pt x="158" y="420" on="1"/>
        <pt x="158" y="441" on="0"/>
        <pt x="140" y="530" on="0"/>
        <pt x="140" y="555" on="1"/>
        <pt x="140" y="625" on="0"/>
        <pt x="220" y="713" on="0"/>
        <pt x="278" y="713" on="1"/>
        <pt x="304" y="713" on="0"/>
        <pt x="331" y="704" on="1"/>
        <pt x="331" y="610" on="1"/>
        <pt x="314" y="619" on="0"/>
        <pt x="270" y="619" on="0"/>
        <pt x="239" y="581" on="0"/>
        <pt x="239" y="528" on="0"/>
        <pt x="257" y="433" on="0"/>
        <pt x="257" y="405" on="1"/>
        <pt x="257" y="348" on="0"/>
        <pt x="192" y="268" on="0"/>
        <pt x="137" y="260" on="1"/>
        <pt x="192" y="252" on="0"/>
        <pt x="257" y="171" on="0"/>
        <pt x="257" y="114" on="1"/>
        <pt x="257" y="86" on="0"/>
        <pt x="239" y="-9" on="0"/>
        <pt x="239" y="-61" on="0"/>
        <pt x="270" y="-100" on="0"/>
        <pt x="314" y="-100" on="0"/>
        <pt x="331" y="-91" on="1"/>
        <pt x="331" y="-185" on="1"/>
        <pt x="304" y="-194" on="0"/>
        <pt x="278" y="-194" on="1"/>
        <pt x="220" y="-194" on="0"/>
        <pt x="140" y="-106" on="0"/>
        <pt x="140" y="-36" on="1"/>
        <pt x="140" y="-11" on="0"/>
        <pt x="158" y="78" on="0"/>
        <pt x="158" y="99" on="1"/>
        <pt x="158" y="142" on="0"/>
        <pt x="136" y="174" on="1"/>
        <pt x="109" y="212" on="0"/>
      </contour>
    </TTGlyph>
    <TTGlyph name="braceright" xMin="17" yMin="-194" xMax="302" yMax="713">
      <contour>
        <pt x="69" y="713" on="1"/>
        <pt x="128" y="713" on="0"/>
        <pt x="207" y="626" on="0"/>
        <pt x="207" y="555" on="1"/>
        <pt x="207" y="530" on="0"/>
        <pt x="189" y="441" on="0"/>
        <pt x="189" y="420" on="1"/>
        <pt x="189" y="377" on="0"/>
        <pt x="235" y="313" on="0"/>
        <pt x="277" y="309" on="1"/>
        <pt x="287" y="308" on="0"/>
        <pt x="302" y="308" on="1"/>
        <pt x="302" y="212" on="1"/>
        <pt x="238" y="212" on="0"/>
        <pt x="189" y="142" on="0"/>
        <pt x="189" y="99" on="1"/>
        <pt x="189" y="78" on="0"/>
        <pt x="207" y="-11" on="0"/>
        <pt x="207" y="-36" on="1"/>
        <pt x="207" y="-107" on="0"/>
        <pt x="128" y="-194" on="0"/>
        <pt x="69" y="-194" on="1"/>
        <pt x="44" y="-194" on="0"/>
        <pt x="17" y="-185" on="1"/>
        <pt x="17" y="-91" on="1"/>
        <pt x="32" y="-100" on="0"/>
        <pt x="77" y="-100" on="0"/>
        <pt x="109" y="-61" on="0"/>
        <pt x="109" y="-9" on="0"/>
        <pt x="91" y="86" on="0"/>
        <pt x="91" y="114" on="1"/>
        <pt x="91" y="171" on="0"/>
        <pt x="155" y="252" on="0"/>
        <pt x="210" y="260" on="1"/>
        <pt x="155" y="268" on="0"/>
        <pt x="91" y="348" on="0"/>
        <pt x="91" y="405" on="1"/>
        <pt x="91" y="433" on="0"/>
        <pt x="109" y="528" on="0"/>
        <pt x="109" y="580" on="0"/>
        <pt x="77" y="619" on="0"/>
        <pt x="32" y="619" on="0"/>
        <pt x="17" y="610" on="1"/>
        <pt x="17" y="704" on="1"/>
        <pt x="44" y="713" on="0"/>
      </contour>
    </TTGlyph>
    <TTGlyph name="bracketleft" xMin="73" yMin="-186" xMax="319" yMax="707">
      <contour>
        <pt x="319" y="620" on="1"/>
        <pt x="169" y="620" on="1"/>
        <pt x="169" y="-99" on="1"/>
        <pt x="319" y="-99" on="1"/>
        <pt x="319" y="-186" on="1"/>
        <pt x="73" y="-186" on="1"/>
        <pt x="73" y="707" on="1"/>
        <pt x="319" y="707" on="1"/>
      </contour>
    </TTGlyph>
    <TTGlyph name="bracketright" xMin="7" yMin="-186" xMax="252" yMax="707">
      <contour>
        <pt x="252" y="707" on="1"/>
        <pt x="252" y="-186" on="1"/>
        <pt x="7" y="-186" on="1"/>
        <pt x="7" y="-99" on="1"/>
        <pt x="157" y="-99" on="1"/>
        <pt x="157" y="620" on="1"/>
        <pt x="7" y="620" on="1"/>
        <pt x="7" y="707" on="1"/>
      </contour>
    </TTGlyph>
    <TTGlyph name="breve" xMin="48" yMin="633" xMax="396" yMax="798">
      <contour>
        <pt x="48" y="798" on="1"/>
        <pt x="126" y="798" on="1"/>
        <pt x="126" y="754" on="0"/>
        <pt x="174" y="700" on="0"/>
        <pt x="270" y="700" on="0"/>
        <pt x="318" y="754" on="0"/>
        <pt x="318" y="798" on="1"/>
        <pt x="396" y="798" on="1"/>
        <pt x="396" y="719" on="0"/>
        <pt x="306" y="633" on="0"/>
        <pt x="138" y="633" on="0"/>
        <pt x="48" y="719" on="0"/>
      </contour>
    </TTGlyph>
    <TTGlyph name="brokenbar" xMin="76" yMin="-160" xMax="167" yMax="700">
      <contour>
        <pt x="167" y="-160" on="1"/>
        <pt x="76" y="-160" on="1"/>
        <pt x="76" y="173" on="1"/>
        <pt x="167" y="173" on="1"/>
      </contour>
      <contour>
        <pt x="167" y="367" on="1"/>
        <pt x="76" y="367" on="1"/>
        <pt x="76" y="700" on="1"/>
        <pt x="167" y="700" on="1"/>
      </contour>
    </TTGlyph>
    <TTGlyph name="bullet" xMin="88" yMin="223" xMax="353" yMax="489">
      <contour>
        <pt x="88" y="299" on="0"/>
        <pt x="88" y="413" on="0"/>
        <pt x="163" y="489" on="0"/>
        <pt x="276" y="489" on="0"/>
        <pt x="353" y="412" on="0"/>
        <pt x="353" y="300" on="0"/>
        <pt x="277" y="223" on="0"/>
        <pt x="164" y="223" on="0"/>
      </contour>
    </TTGlyph>
    <TTGlyph name="c" xMin="41" yMin="-10" xMax="427" yMax="516">
      <contour>
        <pt x="315" y="75" on="1"/>
        <pt x="375" y="75" on="0"/>
        <pt x="427" y="108" on="1"/>
        <pt x="427" y="20" on="1"/>
        <pt x="378" y="-10" on="0"/>
        <pt x="302" y="-10" on="1"/>
        <pt x="183" y="-10" on="0"/>
        <pt x="41" y="140" on="0"/>
        <pt x="41" y="361" on="0"/>
        <pt x="184" y="516" on="0"/>
        <pt x="306" y="516" on="1"/>
        <pt x="372" y="516" on="0"/>
        <pt x="427" y="488" on="1"/>
        <pt x="427" y="398" on="1"/>
        <pt x="378" y="429" on="0"/>
        <pt x="237" y="429" on="0"/>
        <pt x="142" y="329" on="0"/>
        <pt x="142" y="251" on="1"/>
        <pt x="144" y="174" on="0"/>
        <pt x="234" y="75" on="0"/>
      </contour>
    </TTGlyph>
    <TTGlyph name="cacute" xMin="41" yMin="-10" xMax="457" yMax="719">
      <contour>
        <pt x="315" y="75" on="1"/>
        <pt x="375" y="75" on="0"/>
        <pt x="427" y="108" on="1"/>
        <pt x="427" y="20" on="1"/>
        <pt x="378" y="-10" on="0"/>
        <pt x="302" y="-10" on="1"/>
        <pt x="183" y="-10" on="0"/>
        <pt x="41" y="140" on="0"/>
        <pt x="41" y="361" on="0"/>
        <pt x="184" y="516" on="0"/>
        <pt x="306" y="516" on="1"/>
        <pt x="372" y="516" on="0"/>
        <pt x="427" y="488" on="1"/>
        <pt x="427" y="398" on="1"/>
        <pt x="378" y="429" on="0"/>
        <pt x="237" y="429" on="0"/>
        <pt x="142" y="329" on="0"/>
        <pt x="142" y="251" on="1"/>
        <pt x="144" y="174" on="0"/>
        <pt x="234" y="75" on="0"/>
      </contour>
      <contour>
        <pt x="253" y="557" on="1"/>
        <pt x="348" y="719" on="1"/>
        <pt x="457" y="719" on="1"/>
        <pt x="337" y="557" on="1"/>
      </contour>
    </TTGlyph>
    <TTGlyph name="caron" xMin="42" yMin="636" xMax="402" yMax="798">
      <contour>
        <pt x="267" y="636" on="1"/>
        <pt x="177" y="636" on="1"/>
        <pt x="42" y="798" on="1"/>
        <pt x="139" y="798" on="1"/>
        <pt x="222" y="696" on="1"/>
        <pt x="305" y="798" on="1"/>
        <pt x="402" y="798" on="1"/>
      </contour>
    </TTGlyph>
    <TTGlyph name="ccaron" xMin="41" yMin="-10" xMax="456" yMax="720">
      <contour>
        <pt x="321" y="558" on="1"/>
        <pt x="231" y="558" on="1"/>
        <pt x="96" y="720" on="1"/>
        <pt x="193" y="720" on="1"/>
        <pt x="276" y="618" on="1"/>
        <pt x="359" y="720" on="1"/>
        <pt x="456" y="720" on="1"/>
      </contour>
      <contour>
        <pt x="427" y="398" on="1"/>
        <pt x="378" y="429" on="0"/>
        <pt x="237" y="429" on="0"/>
        <pt x="142" y="329" on="0"/>
        <pt x="142" y="251" on="1"/>
        <pt x="144" y="174" on="0"/>
        <pt x="234" y="75" on="0"/>
        <pt x="315" y="75" on="1"/>
        <pt x="375" y="75" on="0"/>
        <pt x="427" y="108" on="1"/>
        <pt x="427" y="20" on="1"/>
        <pt x="378" y="-10" on="0"/>
        <pt x="302" y="-10" on="1"/>
        <pt x="183" y="-10" on="0"/>
        <pt x="41" y="140" on="0"/>
        <pt x="41" y="361" on="0"/>
        <pt x="184" y="516" on="0"/>
        <pt x="306" y="516" on="1"/>
        <pt x="372" y="516" on="0"/>
        <pt x="427" y="488" on="1"/>
      </contour>
    </TTGlyph>
    <TTGlyph name="ccedilla" xMin="41" yMin="-257" xMax="427" yMax="516">
      <contour>
        <pt x="330" y="-51" on="1"/>
        <pt x="348" y="-76" on="0"/>
        <pt x="348" y="-179" on="0"/>
        <pt x="266" y="-256" on="0"/>
        <pt x="189" y="-257" on="1"/>
        <pt x="189" y="-189" on="1"/>
        <pt x="271" y="-184" on="0"/>
        <pt x="271" y="-120" on="1"/>
        <pt x="271" y="-88" on="0"/>
        <pt x="246" y="-51" on="1"/>
      </contour>
      <contour>
        <pt x="315" y="75" on="1"/>
        <pt x="375" y="75" on="0"/>
        <pt x="427" y="108" on="1"/>
        <pt x="427" y="20" on="1"/>
        <pt x="378" y="-10" on="0"/>
        <pt x="302" y="-10" on="1"/>
        <pt x="183" y="-10" on="0"/>
        <pt x="41" y="140" on="0"/>
        <pt x="41" y="361" on="0"/>
        <pt x="184" y="516" on="0"/>
        <pt x="306" y="516" on="1"/>
        <pt x="372" y="516" on="0"/>
        <pt x="427" y="488" on="1"/>
        <pt x="427" y="398" on="1"/>
        <pt x="378" y="429" on="0"/>
        <pt x="237" y="429" on="0"/>
        <pt x="142" y="329" on="0"/>
        <pt x="142" y="251" on="1"/>
        <pt x="144" y="174" on="0"/>
        <pt x="234" y="75" on="0"/>
      </contour>
    </TTGlyph>
    <TTGlyph name="ccircumflex" xMin="41" yMin="-10" xMax="449" yMax="720">
      <contour>
        <pt x="224" y="720" on="1"/>
        <pt x="314" y="720" on="1"/>
        <pt x="449" y="558" on="1"/>
        <pt x="352" y="558" on="1"/>
        <pt x="268" y="660" on="1"/>
        <pt x="186" y="558" on="1"/>
        <pt x="89" y="558" on="1"/>
      </contour>
      <contour>
        <pt x="427" y="398" on="1"/>
        <pt x="378" y="429" on="0"/>
        <pt x="237" y="429" on="0"/>
        <pt x="142" y="329" on="0"/>
        <pt x="142" y="251" on="1"/>
        <pt x="144" y="174" on="0"/>
        <pt x="234" y="75" on="0"/>
        <pt x="315" y="75" on="1"/>
        <pt x="375" y="75" on="0"/>
        <pt x="427" y="108" on="1"/>
        <pt x="427" y="20" on="1"/>
        <pt x="378" y="-10" on="0"/>
        <pt x="302" y="-10" on="1"/>
        <pt x="183" y="-10" on="0"/>
        <pt x="41" y="140" on="0"/>
        <pt x="41" y="361" on="0"/>
        <pt x="184" y="516" on="0"/>
        <pt x="306" y="516" on="1"/>
        <pt x="372" y="516" on="0"/>
        <pt x="427" y="488" on="1"/>
      </contour>
    </TTGlyph>
    <TTGlyph name="cdotaccent" xMin="41" yMin="-10" xMax="427" yMax="700">
      <contour>
        <pt x="235" y="614" on="0"/>
        <pt x="235" y="666" on="0"/>
        <pt x="270" y="700" on="0"/>
        <pt x="322" y="700" on="0"/>
        <pt x="356" y="666" on="0"/>
        <pt x="356" y="614" on="0"/>
        <pt x="322" y="580" on="0"/>
        <pt x="270" y="580" on="0"/>
      </contour>
      <contour>
        <pt x="315" y="75" on="1"/>
        <pt x="375" y="75" on="0"/>
        <pt x="427" y="108" on="1"/>
        <pt x="427" y="20" on="1"/>
        <pt x="378" y="-10" on="0"/>
        <pt x="302" y="-10" on="1"/>
        <pt x="183" y="-10" on="0"/>
        <pt x="41" y="140" on="0"/>
        <pt x="41" y="361" on="0"/>
        <pt x="184" y="516" on="0"/>
        <pt x="306" y="516" on="1"/>
        <pt x="372" y="516" on="0"/>
        <pt x="427" y="488" on="1"/>
        <pt x="427" y="398" on="1"/>
        <pt x="378" y="429" on="0"/>
        <pt x="237" y="429" on="0"/>
        <pt x="142" y="329" on="0"/>
        <pt x="142" y="251" on="1"/>
        <pt x="144" y="174" on="0"/>
        <pt x="234" y="75" on="0"/>
      </contour>
    </TTGlyph>
    <TTGlyph name="cedilla" xMin="142" yMin="-257" xMax="301" yMax="-51">
      <contour>
        <pt x="283" y="-51" on="1"/>
        <pt x="301" y="-76" on="0"/>
        <pt x="301" y="-179" on="0"/>
        <pt x="219" y="-256" on="0"/>
        <pt x="142" y="-257" on="1"/>
        <pt x="142" y="-189" on="1"/>
        <pt x="224" y="-184" on="0"/>
        <pt x="224" y="-120" on="1"/>
        <pt x="224" y="-88" on="0"/>
        <pt x="199" y="-51" on="1"/>
      </contour>
    </TTGlyph>
    <TTGlyph name="cent" xMin="41" yMin="-111" xMax="420" yMax="617">
      <contour>
        <pt x="318" y="427" on="1"/>
        <pt x="239" y="427" on="0"/>
        <pt x="143" y="328" on="0"/>
        <pt x="142" y="251" on="1"/>
        <pt x="144" y="175" on="0"/>
        <pt x="237" y="77" on="0"/>
        <pt x="318" y="77" on="1"/>
        <pt x="372" y="77" on="0"/>
        <pt x="420" y="105" on="1"/>
        <pt x="420" y="17" on="1"/>
        <pt x="386" y="1" on="0"/>
        <pt x="341" y="-6" on="1"/>
        <pt x="341" y="-111" on="1"/>
        <pt x="257" y="-111" on="1"/>
        <pt x="257" y="-5" on="1"/>
        <pt x="158" y="11" on="0"/>
        <pt x="41" y="153" on="0"/>
        <pt x="42" y="349" on="0"/>
        <pt x="157" y="493" on="0"/>
        <pt x="257" y="509" on="1"/>
        <pt x="257" y="617" on="1"/>
        <pt x="341" y="617" on="1"/>
        <pt x="341" y="511" on="1"/>
        <pt x="383" y="506" on="0"/>
        <pt x="420" y="488" on="1"/>
        <pt x="420" y="400" on="1"/>
        <pt x="372" y="427" on="0"/>
      </contour>
    </TTGlyph>
    <TTGlyph name="circumflex" xMin="42" yMin="636" xMax="402" yMax="798">
      <contour>
        <pt x="177" y="798" on="1"/>
        <pt x="267" y="798" on="1"/>
        <pt x="402" y="636" on="1"/>
        <pt x="305" y="636" on="1"/>
        <pt x="221" y="738" on="1"/>
        <pt x="139" y="636" on="1"/>
        <pt x="42" y="636" on="1"/>
      </contour>
    </TTGlyph>
    <TTGlyph name="colon" xMin="58" yMin="-1" xMax="192" yMax="458">
      <contour>
        <pt x="58" y="38" on="0"/>
        <pt x="58" y="94" on="0"/>
        <pt x="97" y="133" on="0"/>
        <pt x="153" y="133" on="0"/>
        <pt x="192" y="94" on="0"/>
        <pt x="192" y="38" on="0"/>
        <pt x="153" y="-1" on="0"/>
        <pt x="96" y="-1" on="0"/>
      </contour>
      <contour>
        <pt x="96" y="324" on="0"/>
        <pt x="58" y="362" on="0"/>
        <pt x="58" y="419" on="0"/>
        <pt x="97" y="458" on="0"/>
        <pt x="153" y="458" on="0"/>
        <pt x="192" y="419" on="0"/>
        <pt x="192" y="363" on="0"/>
        <pt x="153" y="324" on="0"/>
      </contour>
    </TTGlyph>
    <TTGlyph name="comma" xMin="-8" yMin="-124" xMax="209" yMax="110">
      <contour>
        <pt x="-8" y="-124" on="1"/>
        <pt x="88" y="110" on="1"/>
        <pt x="209" y="110" on="1"/>
        <pt x="78" y="-124" on="1"/>
      </contour>
    </TTGlyph>
    <TTGlyph name="commaaccent" xMin="122" yMin="-249" xMax="312" yMax="-51">
      <contour>
        <pt x="122" y="-249" on="1"/>
        <pt x="203" y="-51" on="1"/>
        <pt x="312" y="-51" on="1"/>
        <pt x="199" y="-249" on="1"/>
      </contour>
    </TTGlyph>
    <TTGlyph name="copyright" xMin="41" yMin="-9" xMax="731" yMax="682">
      <contour>
        <pt x="306" y="287" on="0"/>
        <pt x="366" y="224" on="0"/>
        <pt x="458" y="224" on="0"/>
        <pt x="493" y="249" on="1"/>
        <pt x="493" y="175" on="1"/>
        <pt x="457" y="154" on="0"/>
        <pt x="405" y="154" on="1"/>
        <pt x="325" y="154" on="0"/>
        <pt x="223" y="258" on="0"/>
        <pt x="223" y="412" on="0"/>
        <pt x="323" y="519" on="0"/>
        <pt x="408" y="519" on="1"/>
        <pt x="455" y="519" on="0"/>
        <pt x="493" y="498" on="1"/>
        <pt x="493" y="425" on="1"/>
        <pt x="459" y="447" on="0"/>
        <pt x="367" y="447" on="0"/>
        <pt x="305" y="386" on="0"/>
      </contour>
      <contour>
        <pt x="116" y="449" on="0"/>
        <pt x="116" y="223" on="0"/>
        <pt x="273" y="66" on="0"/>
        <pt x="500" y="66" on="0"/>
        <pt x="656" y="223" on="0"/>
        <pt x="656" y="449" on="0"/>
        <pt x="499" y="607" on="0"/>
        <pt x="273" y="607" on="0"/>
      </contour>
      <contour>
        <pt x="41" y="195" on="0"/>
        <pt x="41" y="479" on="0"/>
        <pt x="244" y="682" on="0"/>
        <pt x="528" y="682" on="0"/>
        <pt x="731" y="479" on="0"/>
        <pt x="731" y="195" on="0"/>
        <pt x="528" y="-9" on="0"/>
        <pt x="244" y="-9" on="0"/>
      </contour>
    </TTGlyph>
    <TTGlyph name="currency" xMin="32" yMin="71" xMax="519" yMax="551">
      <contour>
        <pt x="140" y="370" on="0"/>
        <pt x="140" y="254" on="0"/>
        <pt x="217" y="175" on="0"/>
        <pt x="336" y="175" on="0"/>
        <pt x="412" y="253" on="0"/>
        <pt x="412" y="370" on="0"/>
        <pt x="335" y="449" on="0"/>
        <pt x="217" y="449" on="0"/>
      </contour>
      <contour>
        <pt x="91" y="188" on="1"/>
        <pt x="56" y="238" on="0"/>
        <pt x="56" y="376" on="0"/>
        <pt x="92" y="432" on="1"/>
        <pt x="32" y="492" on="1"/>
        <pt x="93" y="551" on="1"/>
        <pt x="153" y="491" on="1"/>
        <pt x="207" y="528" on="0"/>
        <pt x="344" y="528" on="0"/>
        <pt x="401" y="494" on="1"/>
        <pt x="459" y="551" on="1"/>
        <pt x="519" y="492" on="1"/>
        <pt x="461" y="434" on="1"/>
        <pt x="496" y="379" on="0"/>
        <pt x="496" y="246" on="0"/>
        <pt x="458" y="190" on="1"/>
        <pt x="519" y="130" on="1"/>
        <pt x="459" y="71" on="1"/>
        <pt x="397" y="131" on="1"/>
        <pt x="345" y="96" on="0"/>
        <pt x="202" y="96" on="0"/>
        <pt x="151" y="129" on="1"/>
        <pt x="93" y="71" on="1"/>
        <pt x="32" y="130" on="1"/>
      </contour>
    </TTGlyph>
    <TTGlyph name="d" xMin="41" yMin="-7" xMax="511" yMax="707">
      <contour>
        <pt x="412" y="707" on="1"/>
        <pt x="511" y="707" on="1"/>
        <pt x="511" y="0" on="1"/>
        <pt x="412" y="0" on="1"/>
        <pt x="412" y="77" on="1"/>
        <pt x="359" y="-7" on="0"/>
        <pt x="157" y="-7" on="0"/>
        <pt x="41" y="144" on="0"/>
        <pt x="41" y="370" on="0"/>
        <pt x="163" y="514" on="0"/>
        <pt x="358" y="514" on="0"/>
        <pt x="412" y="430" on="1"/>
      </contour>
      <contour>
        <pt x="142" y="173" on="0"/>
        <pt x="217" y="79" on="0"/>
        <pt x="332" y="79" on="0"/>
        <pt x="412" y="167" on="0"/>
        <pt x="412" y="344" on="0"/>
        <pt x="329" y="428" on="0"/>
        <pt x="218" y="428" on="0"/>
        <pt x="142" y="335" on="0"/>
      </contour>
    </TTGlyph>
    <TTGlyph name="dagger" xMin="38" yMin="0" xMax="495" yMax="674">
      <contour>
        <pt x="495" y="509" on="1"/>
        <pt x="495" y="426" on="1"/>
        <pt x="309" y="426" on="1"/>
        <pt x="309" y="0" on="1"/>
        <pt x="220" y="0" on="1"/>
        <pt x="220" y="426" on="1"/>
        <pt x="38" y="426" on="1"/>
        <pt x="38" y="509" on="1"/>
        <pt x="220" y="509" on="1"/>
        <pt x="220" y="674" on="1"/>
        <pt x="309" y="674" on="1"/>
        <pt x="309" y="509" on="1"/>
      </contour>
    </TTGlyph>
    <TTGlyph name="daggerdbl" xMin="45" yMin="0" xMax="502" yMax="674">
      <contour>
        <pt x="502" y="426" on="1"/>
        <pt x="315" y="426" on="1"/>
        <pt x="315" y="256" on="1"/>
        <pt x="502" y="256" on="1"/>
        <pt x="502" y="172" on="1"/>
        <pt x="315" y="172" on="1"/>
        <pt x="315" y="0" on="1"/>
        <pt x="226" y="0" on="1"/>
        <pt x="226" y="172" on="1"/>
        <pt x="45" y="172" on="1"/>
        <pt x="45" y="256" on="1"/>
        <pt x="226" y="256" on="1"/>
        <pt x="226" y="426" on="1"/>
        <pt x="45" y="426" on="1"/>
        <pt x="45" y="509" on="1"/>
        <pt x="226" y="509" on="1"/>
        <pt x="226" y="674" on="1"/>
        <pt x="315" y="674" on="1"/>
        <pt x="315" y="509" on="1"/>
        <pt x="502" y="509" on="1"/>
      </contour>
    </TTGlyph>
    <TTGlyph name="dcaron" xMin="41" yMin="-7" xMax="755" yMax="707">
      <contour>
        <pt x="646" y="707" on="1"/>
        <pt x="755" y="707" on="1"/>
        <pt x="642" y="510" on="1"/>
        <pt x="565" y="510" on="1"/>
      </contour>
      <contour>
        <pt x="412" y="707" on="1"/>
        <pt x="511" y="707" on="1"/>
        <pt x="511" y="0" on="1"/>
        <pt x="412" y="0" on="1"/>
        <pt x="412" y="77" on="1"/>
        <pt x="359" y="-7" on="0"/>
        <pt x="157" y="-7" on="0"/>
        <pt x="41" y="144" on="0"/>
        <pt x="41" y="370" on="0"/>
        <pt x="163" y="514" on="0"/>
        <pt x="358" y="514" on="0"/>
        <pt x="412" y="430" on="1"/>
      </contour>
      <contour>
        <pt x="142" y="173" on="0"/>
        <pt x="217" y="79" on="0"/>
        <pt x="332" y="79" on="0"/>
        <pt x="412" y="167" on="0"/>
        <pt x="412" y="344" on="0"/>
        <pt x="329" y="428" on="0"/>
        <pt x="218" y="428" on="0"/>
        <pt x="142" y="335" on="0"/>
      </contour>
    </TTGlyph>
    <TTGlyph name="dcroat" xMin="41" yMin="-7" xMax="578" yMax="707">
      <contour>
        <pt x="578" y="643" on="1"/>
        <pt x="578" y="580" on="1"/>
        <pt x="511" y="580" on="1"/>
        <pt x="511" y="0" on="1"/>
        <pt x="412" y="0" on="1"/>
        <pt x="412" y="77" on="1"/>
        <pt x="359" y="-7" on="0"/>
        <pt x="157" y="-7" on="0"/>
        <pt x="41" y="144" on="0"/>
        <pt x="41" y="370" on="0"/>
        <pt x="163" y="514" on="0"/>
        <pt x="358" y="514" on="0"/>
        <pt x="412" y="430" on="1"/>
        <pt x="412" y="580" on="1"/>
        <pt x="231" y="580" on="1"/>
        <pt x="231" y="643" on="1"/>
        <pt x="412" y="643" on="1"/>
        <pt x="412" y="707" on="1"/>
        <pt x="511" y="707" on="1"/>
        <pt x="511" y="643" on="1"/>
      </contour>
      <contour>
        <pt x="142" y="173" on="0"/>
        <pt x="217" y="79" on="0"/>
        <pt x="332" y="79" on="0"/>
        <pt x="412" y="167" on="0"/>
        <pt x="412" y="344" on="0"/>
        <pt x="329" y="428" on="0"/>
        <pt x="218" y="428" on="0"/>
        <pt x="142" y="335" on="0"/>
      </contour>
    </TTGlyph>
    <TTGlyph name="degree" xMin="30" yMin="363" xMax="350" yMax="679">
      <contour>
        <pt x="105" y="557" on="0"/>
        <pt x="105" y="485" on="0"/>
        <pt x="155" y="434" on="0"/>
        <pt x="227" y="434" on="0"/>
        <pt x="275" y="485" on="0"/>
        <pt x="275" y="557" on="0"/>
        <pt x="225" y="608" on="0"/>
        <pt x="153" y="608" on="0"/>
      </contour>
      <contour>
        <pt x="121" y="363" on="0"/>
        <pt x="30" y="452" on="0"/>
        <pt x="30" y="587" on="0"/>
        <pt x="123" y="679" on="0"/>
        <pt x="259" y="679" on="0"/>
        <pt x="350" y="589" on="0"/>
        <pt x="350" y="454" on="0"/>
        <pt x="257" y="363" on="0"/>
      </contour>
    </TTGlyph>
    <TTGlyph name="dieresis" xMin="51" yMin="659" xMax="393" yMax="779">
      <contour>
        <pt x="272" y="694" on="0"/>
        <pt x="272" y="744" on="0"/>
        <pt x="306" y="779" on="0"/>
        <pt x="358" y="779" on="0"/>
        <pt x="393" y="745" on="0"/>
        <pt x="393" y="693" on="0"/>
        <pt x="358" y="659" on="0"/>
        <pt x="306" y="659" on="0"/>
      </contour>
      <contour>
        <pt x="51" y="693" on="0"/>
        <pt x="51" y="745" on="0"/>
        <pt x="85" y="779" on="0"/>
        <pt x="138" y="779" on="0"/>
        <pt x="172" y="744" on="0"/>
        <pt x="172" y="694" on="0"/>
        <pt x="138" y="659" on="0"/>
        <pt x="85" y="659" on="0"/>
      </contour>
    </TTGlyph>
    <TTGlyph name="divide" xMin="53" yMin="103" xMax="510" yMax="577">
      <contour>
        <pt x="221" y="138" on="0"/>
        <pt x="221" y="186" on="0"/>
        <pt x="256" y="222" on="0"/>
        <pt x="304" y="222" on="0"/>
        <pt x="339" y="186" on="0"/>
        <pt x="339" y="138" on="0"/>
        <pt x="304" y="103" on="0"/>
        <pt x="256" y="103" on="0"/>
      </contour>
      <contour>
        <pt x="53" y="296" on="1"/>
        <pt x="53" y="384" on="1"/>
        <pt x="510" y="384" on="1"/>
        <pt x="510" y="296" on="1"/>
      </contour>
      <contour>
        <pt x="221" y="494" on="0"/>
        <pt x="221" y="542" on="0"/>
        <pt x="256" y="577" on="0"/>
        <pt x="304" y="577" on="0"/>
        <pt x="339" y="542" on="0"/>
        <pt x="339" y="494" on="0"/>
        <pt x="304" y="458" on="0"/>
        <pt x="256" y="458" on="0"/>
      </contour>
    </TTGlyph>
    <TTGlyph name="dollar" xMin="47" yMin="-112" xMax="461" yMax="785">
      <contour>
        <pt x="274" y="587" on="1"/>
        <pt x="219" y="587" on="0"/>
        <pt x="157" y="538" on="0"/>
        <pt x="157" y="498" on="1"/>
        <pt x="157" y="454" on="0"/>
        <pt x="200" y="426" on="1"/>
        <pt x="229" y="406" on="0"/>
        <pt x="330" y="361" on="0"/>
        <pt x="378" y="334" on="0"/>
        <pt x="406" y="311" on="1"/>
        <pt x="461" y="266" on="0"/>
        <pt x="461" y="103" on="0"/>
        <pt x="359" y="4" on="0"/>
        <pt x="274" y="-5" on="1"/>
        <pt x="274" y="-112" on="1"/>
        <pt x="190" y="-112" on="1"/>
        <pt x="190" y="-5" on="1"/>
        <pt x="108" y="3" on="0"/>
        <pt x="51" y="36" on="1"/>
        <pt x="51" y="143" on="1"/>
        <pt x="130" y="84" on="0"/>
        <pt x="234" y="84" on="1"/>
        <pt x="289" y="84" on="0"/>
        <pt x="354" y="135" on="0"/>
        <pt x="354" y="180" on="1"/>
        <pt x="354" y="204" on="0"/>
        <pt x="338" y="228" on="0"/>
        <pt x="328" y="241" on="0"/>
        <pt x="305" y="256" on="0"/>
        <pt x="292" y="265" on="0"/>
        <pt x="261" y="280" on="0"/>
        <pt x="247" y="287" on="0"/>
        <pt x="228" y="295" on="1"/>
        <pt x="133" y="335" on="0"/>
        <pt x="47" y="421" on="0"/>
        <pt x="47" y="572" on="0"/>
        <pt x="153" y="670" on="0"/>
        <pt x="240" y="678" on="1"/>
        <pt x="240" y="785" on="1"/>
        <pt x="325" y="785" on="1"/>
        <pt x="325" y="676" on="1"/>
        <pt x="385" y="667" on="0"/>
        <pt x="426" y="647" on="1"/>
        <pt x="426" y="545" on="1"/>
        <pt x="360" y="587" on="0"/>
      </contour>
    </TTGlyph>
    <TTGlyph name="dotaccent" xMin="161" yMin="660" xMax="282" yMax="780">
      <contour>
        <pt x="161" y="694" on="0"/>
        <pt x="161" y="746" on="0"/>
        <pt x="196" y="780" on="0"/>
        <pt x="248" y="780" on="0"/>
        <pt x="282" y="746" on="0"/>
        <pt x="282" y="694" on="0"/>
        <pt x="248" y="660" on="0"/>
        <pt x="196" y="660" on="0"/>
      </contour>
    </TTGlyph>
    <TTGlyph name="dotlessi" xMin="73" yMin="0" xMax="172" yMax="507">
      <contour>
        <pt x="73" y="0" on="1"/>
        <pt x="73" y="507" on="1"/>
        <pt x="172" y="507" on="1"/>
        <pt x="172" y="0" on="1"/>
      </contour>
    </TTGlyph>
    <TTGlyph name="dvMatraAA_Candrabindu" xMin="-58" yMin="0" xMax="335" yMax="1016">
      <contour>
        <pt x="-24" y="570" on="1"/>
        <pt x="-24" y="650" on="1"/>
        <pt x="295" y="650" on="1"/>
        <pt x="295" y="570" on="1"/>
        <pt x="184" y="570" on="1"/>
        <pt x="184" y="0" on="1"/>
        <pt x="87" y="0" on="1"/>
        <pt x="87" y="570" on="1"/>
      </contour>
      <contour>
        <pt x="115" y="902" on="0"/>
        <pt x="83" y="934" on="0"/>
        <pt x="83" y="983" on="0"/>
        <pt x="115" y="1016" on="0"/>
        <pt x="164" y="1016" on="0"/>
        <pt x="197" y="982" on="0"/>
        <pt x="197" y="934" on="0"/>
        <pt x="164" y="902" on="0"/>
      </contour>
      <contour>
        <pt x="335" y="825" on="0"/>
        <pt x="221" y="737" on="0"/>
        <pt x="52" y="737" on="0"/>
        <pt x="-58" y="822" on="0"/>
        <pt x="-58" y="904" on="1"/>
        <pt x="37" y="904" on="1"/>
        <pt x="37" y="863" on="0"/>
        <pt x="91" y="811" on="0"/>
        <pt x="186" y="811" on="0"/>
        <pt x="240" y="863" on="0"/>
        <pt x="240" y="904" on="1"/>
        <pt x="335" y="904" on="1"/>
      </contour>
    </TTGlyph>
    <TTGlyph name="dvMatraAI_Candrabindu" xMin="-438" yMin="643" xMax="270" yMax="999">
      <contour>
        <pt x="175" y="887" on="1"/>
        <pt x="270" y="887" on="1"/>
        <pt x="270" y="808" on="0"/>
        <pt x="156" y="721" on="0"/>
        <pt x="-12" y="721" on="0"/>
        <pt x="-122" y="806" on="0"/>
        <pt x="-122" y="887" on="1"/>
        <pt x="-28" y="887" on="1"/>
        <pt x="-28" y="846" on="0"/>
        <pt x="26" y="794" on="0"/>
        <pt x="121" y="794" on="0"/>
        <pt x="175" y="846" on="0"/>
      </contour>
      <contour>
        <pt x="-370" y="924" on="1"/>
        <pt x="-258" y="924" on="0"/>
        <pt x="-193" y="821" on="1"/>
        <pt x="-81" y="643" on="1"/>
        <pt x="-203" y="643" on="1"/>
        <pt x="-257" y="681" on="0"/>
        <pt x="-337" y="718" on="0"/>
        <pt x="-414" y="718" on="0"/>
        <pt x="-438" y="710" on="1"/>
        <pt x="-438" y="789" on="1"/>
        <pt x="-410" y="797" on="0"/>
        <pt x="-337" y="797" on="0"/>
        <pt x="-261" y="759" on="0"/>
        <pt x="-200" y="705" on="1"/>
        <pt x="-162" y="671" on="1"/>
        <pt x="-254" y="787" on="1"/>
        <pt x="-302" y="846" on="0"/>
        <pt x="-376" y="846" on="1"/>
        <pt x="-414" y="846" on="0"/>
        <pt x="-438" y="838" on="1"/>
        <pt x="-438" y="917" on="1"/>
        <pt x="-413" y="924" on="0"/>
      </contour>
      <contour>
        <pt x="132" y="917" on="0"/>
        <pt x="99" y="885" on="0"/>
        <pt x="50" y="885" on="0"/>
        <pt x="18" y="917" on="0"/>
        <pt x="18" y="966" on="0"/>
        <pt x="50" y="999" on="0"/>
        <pt x="98" y="999" on="0"/>
        <pt x="132" y="966" on="0"/>
      </contour>
    </TTGlyph>
    <TTGlyph name="dvMatraE_Candrabindu" xMin="-412" yMin="643" xMax="266" yMax="999">
      <contour>
        <pt x="46" y="885" on="0"/>
        <pt x="14" y="917" on="0"/>
        <pt x="14" y="966" on="0"/>
        <pt x="46" y="999" on="0"/>
        <pt x="94" y="999" on="0"/>
        <pt x="128" y="966" on="0"/>
        <pt x="128" y="917" on="0"/>
        <pt x="95" y="885" on="0"/>
      </contour>
      <contour>
        <pt x="266" y="808" on="0"/>
        <pt x="152" y="721" on="0"/>
        <pt x="-16" y="721" on="0"/>
        <pt x="-126" y="806" on="0"/>
        <pt x="-126" y="887" on="1"/>
        <pt x="-32" y="887" on="1"/>
        <pt x="-32" y="846" on="0"/>
        <pt x="22" y="794" on="0"/>
        <pt x="117" y="794" on="0"/>
        <pt x="171" y="846" on="0"/>
        <pt x="171" y="887" on="1"/>
        <pt x="266" y="887" on="1"/>
      </contour>
      <contour>
        <pt x="-352" y="898" on="1"/>
        <pt x="-299" y="898" on="0"/>
        <pt x="-223" y="855" on="0"/>
        <pt x="-192" y="808" on="1"/>
        <pt x="-84" y="643" on="1"/>
        <pt x="-189" y="643" on="1"/>
        <pt x="-271" y="767" on="1"/>
        <pt x="-304" y="817" on="0"/>
        <pt x="-358" y="817" on="1"/>
        <pt x="-388" y="817" on="0"/>
        <pt x="-412" y="809" on="1"/>
        <pt x="-412" y="892" on="1"/>
        <pt x="-376" y="898" on="0"/>
      </contour>
    </TTGlyph>
    <TTGlyph name="dvSHA_MatraVocalicR" xMin="1" yMin="-232" xMax="722" yMax="657">
      <contour>
        <pt x="616" y="570" on="1"/>
        <pt x="616" y="-6" on="1"/>
        <pt x="559" y="-7" on="0"/>
        <pt x="498" y="-51" on="0"/>
        <pt x="498" y="-118" on="0"/>
        <pt x="546" y="-155" on="0"/>
        <pt x="651" y="-155" on="0"/>
        <pt x="697" y="-130" on="1"/>
        <pt x="697" y="-208" on="1"/>
        <pt x="649" y="-232" on="0"/>
        <pt x="502" y="-232" on="0"/>
        <pt x="402" y="-159" on="0"/>
        <pt x="402" y="-89" on="1"/>
        <pt x="402" y="-43" on="0"/>
        <pt x="466" y="28" on="0"/>
        <pt x="519" y="42" on="1"/>
        <pt x="519" y="207" on="1"/>
        <pt x="380" y="239" on="0"/>
        <pt x="285" y="279" on="1"/>
        <pt x="78" y="152" on="1"/>
        <pt x="1" y="210" on="1"/>
        <pt x="197" y="326" on="1"/>
        <pt x="85" y="398" on="0"/>
        <pt x="85" y="502" on="1"/>
        <pt x="85" y="564" on="0"/>
        <pt x="180" y="657" on="0"/>
        <pt x="336" y="657" on="0"/>
        <pt x="436" y="564" on="0"/>
        <pt x="436" y="496" on="1"/>
        <pt x="436" y="403" on="0"/>
        <pt x="362" y="340" on="1"/>
        <pt x="437" y="314" on="0"/>
        <pt x="519" y="294" on="1"/>
        <pt x="519" y="650" on="1"/>
        <pt x="722" y="650" on="1"/>
        <pt x="722" y="570" on="1"/>
      </contour>
      <contour>
        <pt x="296" y="578" on="0"/>
        <pt x="224" y="578" on="0"/>
        <pt x="181" y="533" on="0"/>
        <pt x="181" y="500" on="1"/>
        <pt x="181" y="433" on="0"/>
        <pt x="274" y="380" on="1"/>
        <pt x="340" y="427" on="0"/>
        <pt x="340" y="492" on="1"/>
        <pt x="340" y="528" on="0"/>
      </contour>
    </TTGlyph>
    <TTGlyph name="e" xMin="41" yMin="-5" xMax="479" yMax="513">
      <contour>
        <pt x="299" y="-5" on="1"/>
        <pt x="181" y="-5" on="0"/>
        <pt x="41" y="137" on="0"/>
        <pt x="41" y="374" on="0"/>
        <pt x="169" y="513" on="0"/>
        <pt x="365" y="513" on="0"/>
        <pt x="479" y="392" on="0"/>
        <pt x="479" y="278" on="1"/>
        <pt x="479" y="247" on="0"/>
        <pt x="473" y="213" on="1"/>
        <pt x="140" y="213" on="1"/>
        <pt x="150" y="147" on="0"/>
        <pt x="242" y="77" on="0"/>
        <pt x="393" y="77" on="0"/>
        <pt x="447" y="115" on="1"/>
        <pt x="447" y="27" on="1"/>
        <pt x="391" y="-5" on="0"/>
      </contour>
      <contour>
        <pt x="384" y="290" on="1"/>
        <pt x="384" y="308" on="1"/>
        <pt x="382" y="365" on="0"/>
        <pt x="324" y="432" on="0"/>
        <pt x="220" y="432" on="0"/>
        <pt x="148" y="359" on="0"/>
        <pt x="139" y="290" on="1"/>
      </contour>
    </TTGlyph>
    <TTGlyph name="eacute" xMin="41" yMin="-5" xMax="479" yMax="720">
      <contour>
        <pt x="299" y="-5" on="1"/>
        <pt x="181" y="-5" on="0"/>
        <pt x="41" y="137" on="0"/>
        <pt x="41" y="374" on="0"/>
        <pt x="169" y="513" on="0"/>
        <pt x="365" y="513" on="0"/>
        <pt x="479" y="392" on="0"/>
        <pt x="479" y="278" on="1"/>
        <pt x="479" y="247" on="0"/>
        <pt x="473" y="213" on="1"/>
        <pt x="140" y="213" on="1"/>
        <pt x="150" y="147" on="0"/>
        <pt x="242" y="77" on="0"/>
        <pt x="393" y="77" on="0"/>
        <pt x="447" y="115" on="1"/>
        <pt x="447" y="27" on="1"/>
        <pt x="391" y="-5" on="0"/>
      </contour>
      <contour>
        <pt x="384" y="290" on="1"/>
        <pt x="384" y="308" on="1"/>
        <pt x="382" y="365" on="0"/>
        <pt x="324" y="432" on="0"/>
        <pt x="220" y="432" on="0"/>
        <pt x="148" y="359" on="0"/>
        <pt x="139" y="290" on="1"/>
      </contour>
      <contour>
        <pt x="448" y="720" on="1"/>
        <pt x="328" y="558" on="1"/>
        <pt x="244" y="558" on="1"/>
        <pt x="339" y="720" on="1"/>
      </contour>
    </TTGlyph>
    <TTGlyph name="ebreve" xMin="41" yMin="-5" xMax="479" yMax="720">
      <contour>
        <pt x="299" y="-5" on="1"/>
        <pt x="181" y="-5" on="0"/>
        <pt x="41" y="137" on="0"/>
        <pt x="41" y="374" on="0"/>
        <pt x="169" y="513" on="0"/>
        <pt x="365" y="513" on="0"/>
        <pt x="479" y="392" on="0"/>
        <pt x="479" y="278" on="1"/>
        <pt x="479" y="247" on="0"/>
        <pt x="473" y="213" on="1"/>
        <pt x="140" y="213" on="1"/>
        <pt x="150" y="147" on="0"/>
        <pt x="242" y="77" on="0"/>
        <pt x="393" y="77" on="0"/>
        <pt x="447" y="115" on="1"/>
        <pt x="447" y="27" on="1"/>
        <pt x="391" y="-5" on="0"/>
      </contour>
      <contour>
        <pt x="384" y="290" on="1"/>
        <pt x="384" y="308" on="1"/>
        <pt x="382" y="365" on="0"/>
        <pt x="324" y="432" on="0"/>
        <pt x="220" y="432" on="0"/>
        <pt x="148" y="359" on="0"/>
        <pt x="139" y="290" on="1"/>
      </contour>
      <contour>
        <pt x="369" y="720" on="1"/>
        <pt x="447" y="720" on="1"/>
        <pt x="447" y="641" on="0"/>
        <pt x="357" y="555" on="0"/>
        <pt x="189" y="555" on="0"/>
        <pt x="99" y="641" on="0"/>
        <pt x="99" y="720" on="1"/>
        <pt x="177" y="720" on="1"/>
        <pt x="177" y="676" on="0"/>
        <pt x="225" y="622" on="0"/>
        <pt x="321" y="622" on="0"/>
        <pt x="369" y="676" on="0"/>
      </contour>
    </TTGlyph>
    <TTGlyph name="ecaron" xMin="41" yMin="-5" xMax="479" yMax="720">
      <contour>
        <pt x="299" y="-5" on="1"/>
        <pt x="181" y="-5" on="0"/>
        <pt x="41" y="137" on="0"/>
        <pt x="41" y="374" on="0"/>
        <pt x="169" y="513" on="0"/>
        <pt x="365" y="513" on="0"/>
        <pt x="479" y="392" on="0"/>
        <pt x="479" y="278" on="1"/>
        <pt x="479" y="247" on="0"/>
        <pt x="473" y="213" on="1"/>
        <pt x="140" y="213" on="1"/>
        <pt x="150" y="147" on="0"/>
        <pt x="242" y="77" on="0"/>
        <pt x="393" y="77" on="0"/>
        <pt x="447" y="115" on="1"/>
        <pt x="447" y="27" on="1"/>
        <pt x="391" y="-5" on="0"/>
      </contour>
      <contour>
        <pt x="384" y="290" on="1"/>
        <pt x="384" y="308" on="1"/>
        <pt x="382" y="365" on="0"/>
        <pt x="324" y="432" on="0"/>
        <pt x="220" y="432" on="0"/>
        <pt x="148" y="359" on="0"/>
        <pt x="139" y="290" on="1"/>
      </contour>
      <contour>
        <pt x="319" y="558" on="1"/>
        <pt x="229" y="558" on="1"/>
        <pt x="94" y="720" on="1"/>
        <pt x="191" y="720" on="1"/>
        <pt x="274" y="618" on="1"/>
        <pt x="357" y="720" on="1"/>
        <pt x="454" y="720" on="1"/>
      </contour>
    </TTGlyph>
    <TTGlyph name="ecircumflex" xMin="41" yMin="-5" xMax="479" yMax="720">
      <contour>
        <pt x="299" y="-5" on="1"/>
        <pt x="181" y="-5" on="0"/>
        <pt x="41" y="137" on="0"/>
        <pt x="41" y="374" on="0"/>
        <pt x="169" y="513" on="0"/>
        <pt x="365" y="513" on="0"/>
        <pt x="479" y="392" on="0"/>
        <pt x="479" y="278" on="1"/>
        <pt x="479" y="247" on="0"/>
        <pt x="473" y="213" on="1"/>
        <pt x="140" y="213" on="1"/>
        <pt x="150" y="147" on="0"/>
        <pt x="242" y="77" on="0"/>
        <pt x="393" y="77" on="0"/>
        <pt x="447" y="115" on="1"/>
        <pt x="447" y="27" on="1"/>
        <pt x="391" y="-5" on="0"/>
      </contour>
      <contour>
        <pt x="384" y="290" on="1"/>
        <pt x="384" y="308" on="1"/>
        <pt x="382" y="365" on="0"/>
        <pt x="324" y="432" on="0"/>
        <pt x="220" y="432" on="0"/>
        <pt x="148" y="359" on="0"/>
        <pt x="139" y="290" on="1"/>
      </contour>
      <contour>
        <pt x="277" y="660" on="1"/>
        <pt x="195" y="558" on="1"/>
        <pt x="98" y="558" on="1"/>
        <pt x="233" y="720" on="1"/>
        <pt x="323" y="720" on="1"/>
        <pt x="458" y="558" on="1"/>
        <pt x="361" y="558" on="1"/>
      </contour>
    </TTGlyph>
    <TTGlyph name="edieresis" xMin="41" yMin="-5" xMax="479" yMax="700">
      <contour>
        <pt x="299" y="-5" on="1"/>
        <pt x="181" y="-5" on="0"/>
        <pt x="41" y="137" on="0"/>
        <pt x="41" y="374" on="0"/>
        <pt x="169" y="513" on="0"/>
        <pt x="365" y="513" on="0"/>
        <pt x="479" y="392" on="0"/>
        <pt x="479" y="278" on="1"/>
        <pt x="479" y="247" on="0"/>
        <pt x="473" y="213" on="1"/>
        <pt x="140" y="213" on="1"/>
        <pt x="150" y="147" on="0"/>
        <pt x="242" y="77" on="0"/>
        <pt x="393" y="77" on="0"/>
        <pt x="447" y="115" on="1"/>
        <pt x="447" y="27" on="1"/>
        <pt x="391" y="-5" on="0"/>
      </contour>
      <contour>
        <pt x="384" y="290" on="1"/>
        <pt x="384" y="308" on="1"/>
        <pt x="382" y="365" on="0"/>
        <pt x="324" y="432" on="0"/>
        <pt x="220" y="432" on="0"/>
        <pt x="148" y="359" on="0"/>
        <pt x="139" y="290" on="1"/>
      </contour>
      <contour>
        <pt x="232" y="614" on="0"/>
        <pt x="198" y="580" on="0"/>
        <pt x="145" y="580" on="0"/>
        <pt x="111" y="614" on="0"/>
        <pt x="111" y="666" on="0"/>
        <pt x="145" y="700" on="0"/>
        <pt x="198" y="700" on="0"/>
        <pt x="232" y="666" on="0"/>
      </contour>
      <contour>
        <pt x="418" y="580" on="0"/>
        <pt x="366" y="580" on="0"/>
        <pt x="332" y="614" on="0"/>
        <pt x="332" y="666" on="0"/>
        <pt x="366" y="700" on="0"/>
        <pt x="418" y="700" on="0"/>
        <pt x="453" y="666" on="0"/>
        <pt x="453" y="614" on="0"/>
      </contour>
    </TTGlyph>
    <TTGlyph name="edotaccent" xMin="41" yMin="-5" xMax="479" yMax="700">
      <contour>
        <pt x="299" y="-5" on="1"/>
        <pt x="181" y="-5" on="0"/>
        <pt x="41" y="137" on="0"/>
        <pt x="41" y="374" on="0"/>
        <pt x="169" y="513" on="0"/>
        <pt x="365" y="513" on="0"/>
        <pt x="479" y="392" on="0"/>
        <pt x="479" y="278" on="1"/>
        <pt x="479" y="247" on="0"/>
        <pt x="473" y="213" on="1"/>
        <pt x="140" y="213" on="1"/>
        <pt x="150" y="147" on="0"/>
        <pt x="242" y="77" on="0"/>
        <pt x="393" y="77" on="0"/>
        <pt x="447" y="115" on="1"/>
        <pt x="447" y="27" on="1"/>
        <pt x="391" y="-5" on="0"/>
      </contour>
      <contour>
        <pt x="384" y="290" on="1"/>
        <pt x="384" y="308" on="1"/>
        <pt x="382" y="365" on="0"/>
        <pt x="324" y="432" on="0"/>
        <pt x="220" y="432" on="0"/>
        <pt x="148" y="359" on="0"/>
        <pt x="139" y="290" on="1"/>
      </contour>
      <contour>
        <pt x="307" y="580" on="0"/>
        <pt x="255" y="580" on="0"/>
        <pt x="220" y="614" on="0"/>
        <pt x="220" y="666" on="0"/>
        <pt x="255" y="700" on="0"/>
        <pt x="307" y="700" on="0"/>
        <pt x="341" y="666" on="0"/>
        <pt x="341" y="614" on="0"/>
      </contour>
    </TTGlyph>
    <TTGlyph name="egrave" xMin="41" yMin="-5" xMax="479" yMax="720">
      <contour>
        <pt x="299" y="-5" on="1"/>
        <pt x="181" y="-5" on="0"/>
        <pt x="41" y="137" on="0"/>
        <pt x="41" y="374" on="0"/>
        <pt x="169" y="513" on="0"/>
        <pt x="365" y="513" on="0"/>
        <pt x="479" y="392" on="0"/>
        <pt x="479" y="278" on="1"/>
        <pt x="479" y="247" on="0"/>
        <pt x="473" y="213" on="1"/>
        <pt x="140" y="213" on="1"/>
        <pt x="150" y="147" on="0"/>
        <pt x="242" y="77" on="0"/>
        <pt x="393" y="77" on="0"/>
        <pt x="447" y="115" on="1"/>
        <pt x="447" y="27" on="1"/>
        <pt x="391" y="-5" on="0"/>
      </contour>
      <contour>
        <pt x="384" y="290" on="1"/>
        <pt x="384" y="308" on="1"/>
        <pt x="382" y="365" on="0"/>
        <pt x="324" y="432" on="0"/>
        <pt x="220" y="432" on="0"/>
        <pt x="148" y="359" on="0"/>
        <pt x="139" y="290" on="1"/>
      </contour>
      <contour>
        <pt x="324" y="558" on="1"/>
        <pt x="240" y="558" on="1"/>
        <pt x="120" y="720" on="1"/>
        <pt x="229" y="720" on="1"/>
      </contour>
    </TTGlyph>
    <TTGlyph name="eight" xMin="46" yMin="-9" xMax="492" yMax="663">
      <contour>
        <pt x="492" y="174" on="1"/>
        <pt x="492" y="91" on="0"/>
        <pt x="364" y="-9" on="0"/>
        <pt x="170" y="-9" on="0"/>
        <pt x="46" y="88" on="0"/>
        <pt x="46" y="169" on="1"/>
        <pt x="46" y="285" on="0"/>
        <pt x="157" y="328" on="1"/>
        <pt x="110" y="348" on="0"/>
        <pt x="57" y="424" on="0"/>
        <pt x="57" y="475" on="1"/>
        <pt x="57" y="563" on="0"/>
        <pt x="179" y="663" on="0"/>
        <pt x="356" y="663" on="0"/>
        <pt x="478" y="566" on="0"/>
        <pt x="478" y="375" on="0"/>
        <pt x="380" y="329" on="1"/>
        <pt x="492" y="291" on="0"/>
      </contour>
      <contour>
        <pt x="378" y="521" on="0"/>
        <pt x="323" y="579" on="0"/>
        <pt x="215" y="579" on="0"/>
        <pt x="157" y="519" on="0"/>
        <pt x="157" y="425" on="0"/>
        <pt x="220" y="372" on="0"/>
        <pt x="317" y="372" on="0"/>
        <pt x="378" y="427" on="0"/>
      </contour>
      <contour>
        <pt x="146" y="131" on="0"/>
        <pt x="208" y="75" on="0"/>
        <pt x="328" y="75" on="0"/>
        <pt x="393" y="135" on="0"/>
        <pt x="393" y="223" on="0"/>
        <pt x="329" y="283" on="0"/>
        <pt x="207" y="282" on="0"/>
        <pt x="146" y="219" on="0"/>
      </contour>
    </TTGlyph>
    <TTGlyph name="ellipsis" xMin="43" yMin="-8" xMax="740" yMax="127">
      <contour>
        <pt x="605" y="32" on="0"/>
        <pt x="605" y="88" on="0"/>
        <pt x="644" y="127" on="0"/>
        <pt x="701" y="127" on="0"/>
        <pt x="740" y="88" on="0"/>
        <pt x="740" y="32" on="0"/>
        <pt x="701" y="-8" on="0"/>
        <pt x="644" y="-8" on="0"/>
      </contour>
      <contour>
        <pt x="324" y="32" on="0"/>
        <pt x="324" y="88" on="0"/>
        <pt x="363" y="127" on="0"/>
        <pt x="420" y="127" on="0"/>
        <pt x="459" y="88" on="0"/>
        <pt x="459" y="32" on="0"/>
        <pt x="420" y="-8" on="0"/>
        <pt x="364" y="-8" on="0"/>
      </contour>
      <contour>
        <pt x="43" y="32" on="0"/>
        <pt x="43" y="88" on="0"/>
        <pt x="82" y="127" on="0"/>
        <pt x="139" y="127" on="0"/>
        <pt x="178" y="88" on="0"/>
        <pt x="178" y="32" on="0"/>
        <pt x="139" y="-8" on="0"/>
        <pt x="82" y="-8" on="0"/>
      </contour>
    </TTGlyph>
    <TTGlyph name="emacron" xMin="41" yMin="-5" xMax="479" yMax="673">
      <contour>
        <pt x="299" y="-5" on="1"/>
        <pt x="181" y="-5" on="0"/>
        <pt x="41" y="137" on="0"/>
        <pt x="41" y="374" on="0"/>
        <pt x="169" y="513" on="0"/>
        <pt x="365" y="513" on="0"/>
        <pt x="479" y="392" on="0"/>
        <pt x="479" y="278" on="1"/>
        <pt x="479" y="247" on="0"/>
        <pt x="473" y="213" on="1"/>
        <pt x="140" y="213" on="1"/>
        <pt x="150" y="147" on="0"/>
        <pt x="242" y="77" on="0"/>
        <pt x="393" y="77" on="0"/>
        <pt x="447" y="115" on="1"/>
        <pt x="447" y="27" on="1"/>
        <pt x="391" y="-5" on="0"/>
      </contour>
      <contour>
        <pt x="384" y="290" on="1"/>
        <pt x="384" y="308" on="1"/>
        <pt x="382" y="365" on="0"/>
        <pt x="324" y="432" on="0"/>
        <pt x="220" y="432" on="0"/>
        <pt x="148" y="359" on="0"/>
        <pt x="139" y="290" on="1"/>
      </contour>
      <contour>
        <pt x="426" y="673" on="1"/>
        <pt x="426" y="605" on="1"/>
        <pt x="122" y="605" on="1"/>
        <pt x="122" y="673" on="1"/>
      </contour>
    </TTGlyph>
    <TTGlyph name="emdash" xMin="53" yMin="233" xMax="773" yMax="311">
      <contour>
        <pt x="53" y="233" on="1"/>
        <pt x="53" y="311" on="1"/>
        <pt x="773" y="311" on="1"/>
        <pt x="773" y="233" on="1"/>
      </contour>
    </TTGlyph>
    <TTGlyph name="endash" xMin="53" yMin="231" xMax="491" yMax="309">
      <contour>
        <pt x="53" y="231" on="1"/>
        <pt x="53" y="309" on="1"/>
        <pt x="491" y="309" on="1"/>
        <pt x="491" y="231" on="1"/>
      </contour>
    </TTGlyph>
    <TTGlyph name="eng" xMin="69" yMin="-196" xMax="489" yMax="514">
      <contour>
        <pt x="488" y="233" on="1"/>
        <pt x="489" y="233" on="1"/>
        <pt x="489" y="-45" on="1"/>
        <pt x="489" y="-115" on="0"/>
        <pt x="413" y="-196" on="0"/>
        <pt x="345" y="-196" on="1"/>
        <pt x="312" y="-196" on="0"/>
        <pt x="272" y="-181" on="1"/>
        <pt x="272" y="-98" on="1"/>
        <pt x="304" y="-114" on="0"/>
        <pt x="336" y="-114" on="1"/>
        <pt x="390" y="-114" on="0"/>
        <pt x="390" y="-43" on="1"/>
        <pt x="390" y="320" on="1"/>
        <pt x="390" y="373" on="0"/>
        <pt x="337" y="429" on="0"/>
        <pt x="241" y="429" on="0"/>
        <pt x="167" y="348" on="0"/>
        <pt x="167" y="275" on="1"/>
        <pt x="167" y="0" on="1"/>
        <pt x="69" y="0" on="1"/>
        <pt x="69" y="507" on="1"/>
        <pt x="167" y="507" on="1"/>
        <pt x="167" y="420" on="1"/>
        <pt x="212" y="514" on="0"/>
        <pt x="325" y="514" on="1"/>
        <pt x="400" y="514" on="0"/>
        <pt x="488" y="422" on="0"/>
        <pt x="488" y="343" on="1"/>
      </contour>
    </TTGlyph>
    <TTGlyph name="eogonek" xMin="41" yMin="-238" xMax="479" yMax="513">
      <contour>
        <pt x="407" y="-217" on="1"/>
        <pt x="371" y="-238" on="0"/>
        <pt x="258" y="-238" on="0"/>
        <pt x="193" y="-175" on="0"/>
        <pt x="193" y="-126" on="1"/>
        <pt x="193" y="-59" on="0"/>
        <pt x="257" y="-2" on="1"/>
        <pt x="157" y="11" on="0"/>
        <pt x="41" y="149" on="0"/>
        <pt x="41" y="374" on="0"/>
        <pt x="169" y="513" on="0"/>
        <pt x="365" y="513" on="0"/>
        <pt x="479" y="392" on="0"/>
        <pt x="479" y="278" on="1"/>
        <pt x="479" y="247" on="0"/>
        <pt x="473" y="213" on="1"/>
        <pt x="140" y="213" on="1"/>
        <pt x="150" y="147" on="0"/>
        <pt x="242" y="77" on="0"/>
        <pt x="393" y="77" on="0"/>
        <pt x="447" y="115" on="1"/>
        <pt x="447" y="27" on="1"/>
        <pt x="420" y="12" on="0"/>
        <pt x="379" y="4" on="1"/>
        <pt x="275" y="-55" on="0"/>
        <pt x="275" y="-118" on="1"/>
        <pt x="275" y="-169" on="0"/>
        <pt x="333" y="-169" on="1"/>
        <pt x="374" y="-169" on="0"/>
        <pt x="407" y="-145" on="1"/>
      </contour>
      <contour>
        <pt x="384" y="290" on="1"/>
        <pt x="384" y="308" on="1"/>
        <pt x="382" y="365" on="0"/>
        <pt x="324" y="432" on="0"/>
        <pt x="220" y="432" on="0"/>
        <pt x="148" y="359" on="0"/>
        <pt x="139" y="290" on="1"/>
      </contour>
    </TTGlyph>
    <TTGlyph name="equal" xMin="53" yMin="193" xMax="510" yMax="487">
      <contour>
        <pt x="53" y="193" on="1"/>
        <pt x="53" y="278" on="1"/>
        <pt x="510" y="278" on="1"/>
        <pt x="510" y="193" on="1"/>
      </contour>
      <contour>
        <pt x="53" y="403" on="1"/>
        <pt x="53" y="487" on="1"/>
        <pt x="510" y="487" on="1"/>
        <pt x="510" y="403" on="1"/>
      </contour>
    </TTGlyph>
    <TTGlyph name="eth" xMin="37" yMin="-9" xMax="483" yMax="676">
      <contour>
        <pt x="483" y="275" on="1"/>
        <pt x="483" y="140" on="0"/>
        <pt x="363" y="-9" on="0"/>
        <pt x="157" y="-9" on="0"/>
        <pt x="37" y="115" on="0"/>
        <pt x="37" y="296" on="0"/>
        <pt x="152" y="406" on="0"/>
        <pt x="323" y="406" on="0"/>
        <pt x="382" y="344" on="1"/>
        <pt x="365" y="443" on="0"/>
        <pt x="301" y="529" on="1"/>
        <pt x="160" y="458" on="1"/>
        <pt x="160" y="525" on="1"/>
        <pt x="260" y="575" on="1"/>
        <pt x="203" y="633" on="0"/>
        <pt x="130" y="674" on="1"/>
        <pt x="272" y="674" on="1"/>
        <pt x="309" y="649" on="0"/>
        <pt x="341" y="616" on="1"/>
        <pt x="461" y="676" on="1"/>
        <pt x="461" y="609" on="1"/>
        <pt x="381" y="569" on="1"/>
        <pt x="483" y="435" on="0"/>
      </contour>
      <contour>
        <pt x="139" y="144" on="0"/>
        <pt x="204" y="80" on="0"/>
        <pt x="309" y="80" on="0"/>
        <pt x="381" y="160" on="0"/>
        <pt x="386" y="250" on="1"/>
        <pt x="332" y="319" on="0"/>
        <pt x="251" y="319" on="1"/>
        <pt x="201" y="319" on="0"/>
        <pt x="139" y="255" on="0"/>
      </contour>
    </TTGlyph>
    <TTGlyph name="exclam" xMin="62" yMin="-8" xMax="199" yMax="674">
      <contour>
        <pt x="62" y="31" on="0"/>
        <pt x="62" y="89" on="0"/>
        <pt x="101" y="129" on="0"/>
        <pt x="158" y="129" on="0"/>
        <pt x="199" y="88" on="0"/>
        <pt x="199" y="31" on="0"/>
        <pt x="159" y="-8" on="0"/>
        <pt x="101" y="-8" on="0"/>
      </contour>
      <contour>
        <pt x="83" y="214" on="1"/>
        <pt x="83" y="674" on="1"/>
        <pt x="179" y="674" on="1"/>
        <pt x="179" y="214" on="1"/>
      </contour>
    </TTGlyph>
    <TTGlyph name="exclamdown" xMin="62" yMin="-165" xMax="199" yMax="517">
      <contour>
        <pt x="83" y="-165" on="1"/>
        <pt x="83" y="295" on="1"/>
        <pt x="179" y="295" on="1"/>
        <pt x="179" y="-165" on="1"/>
      </contour>
      <contour>
        <pt x="62" y="420" on="0"/>
        <pt x="62" y="478" on="0"/>
        <pt x="101" y="517" on="0"/>
        <pt x="159" y="517" on="0"/>
        <pt x="199" y="478" on="0"/>
        <pt x="199" y="420" on="0"/>
        <pt x="158" y="380" on="0"/>
        <pt x="101" y="380" on="0"/>
      </contour>
    </TTGlyph>
    <TTGlyph name="f" xMin="30" yMin="0" xMax="330" yMax="716">
      <contour>
        <pt x="282" y="632" on="1"/>
        <pt x="209" y="632" on="0"/>
        <pt x="209" y="545" on="1"/>
        <pt x="209" y="507" on="1"/>
        <pt x="316" y="507" on="1"/>
        <pt x="316" y="431" on="1"/>
        <pt x="209" y="431" on="1"/>
        <pt x="209" y="0" on="1"/>
        <pt x="111" y="0" on="1"/>
        <pt x="111" y="431" on="1"/>
        <pt x="30" y="431" on="1"/>
        <pt x="30" y="507" on="1"/>
        <pt x="111" y="507" on="1"/>
        <pt x="111" y="546" on="1"/>
        <pt x="111" y="625" on="0"/>
        <pt x="196" y="716" on="0"/>
        <pt x="273" y="716" on="1"/>
        <pt x="301" y="716" on="0"/>
        <pt x="330" y="708" on="1"/>
        <pt x="330" y="622" on="1"/>
        <pt x="307" y="632" on="0"/>
      </contour>
    </TTGlyph>
    <TTGlyph name="ff" xMin="30" yMin="0" xMax="590" yMax="716">
      <contour>
        <pt x="543" y="632" on="1"/>
        <pt x="470" y="632" on="0"/>
        <pt x="470" y="545" on="1"/>
        <pt x="470" y="507" on="1"/>
        <pt x="577" y="507" on="1"/>
        <pt x="577" y="431" on="1"/>
        <pt x="470" y="431" on="1"/>
        <pt x="470" y="0" on="1"/>
        <pt x="372" y="0" on="1"/>
        <pt x="372" y="431" on="1"/>
        <pt x="209" y="431" on="1"/>
        <pt x="209" y="0" on="1"/>
        <pt x="111" y="0" on="1"/>
        <pt x="111" y="431" on="1"/>
        <pt x="30" y="431" on="1"/>
        <pt x="30" y="507" on="1"/>
        <pt x="111" y="507" on="1"/>
        <pt x="111" y="546" on="1"/>
        <pt x="111" y="626" on="0"/>
        <pt x="198" y="716" on="0"/>
        <pt x="355" y="716" on="0"/>
        <pt x="425" y="681" on="1"/>
        <pt x="466" y="716" on="0"/>
        <pt x="534" y="716" on="1"/>
        <pt x="563" y="716" on="0"/>
        <pt x="590" y="708" on="1"/>
        <pt x="590" y="622" on="1"/>
        <pt x="567" y="632" on="0"/>
      </contour>
      <contour>
        <pt x="372" y="507" on="1"/>
        <pt x="372" y="546" on="1"/>
        <pt x="372" y="582" on="0"/>
        <pt x="381" y="612" on="1"/>
        <pt x="330" y="632" on="0"/>
        <pt x="288" y="632" on="1"/>
        <pt x="209" y="632" on="0"/>
        <pt x="209" y="545" on="1"/>
        <pt x="209" y="507" on="1"/>
      </contour>
    </TTGlyph>
    <TTGlyph name="ffi" xMin="30" yMin="0" xMax="731" yMax="716">
      <contour>
        <pt x="731" y="507" on="1"/>
        <pt x="731" y="0" on="1"/>
        <pt x="633" y="0" on="1"/>
        <pt x="633" y="431" on="1"/>
        <pt x="470" y="431" on="1"/>
        <pt x="470" y="0" on="1"/>
        <pt x="372" y="0" on="1"/>
        <pt x="372" y="431" on="1"/>
        <pt x="209" y="431" on="1"/>
        <pt x="209" y="0" on="1"/>
        <pt x="111" y="0" on="1"/>
        <pt x="111" y="431" on="1"/>
        <pt x="30" y="431" on="1"/>
        <pt x="30" y="507" on="1"/>
        <pt x="111" y="507" on="1"/>
        <pt x="111" y="546" on="1"/>
        <pt x="111" y="626" on="0"/>
        <pt x="198" y="716" on="0"/>
        <pt x="354" y="716" on="0"/>
        <pt x="426" y="681" on="1"/>
        <pt x="469" y="716" on="0"/>
        <pt x="616" y="716" on="0"/>
        <pt x="690" y="679" on="1"/>
        <pt x="690" y="594" on="1"/>
        <pt x="609" y="632" on="0"/>
        <pt x="546" y="632" on="1"/>
        <pt x="470" y="632" on="0"/>
        <pt x="470" y="545" on="1"/>
        <pt x="470" y="507" on="1"/>
      </contour>
      <contour>
        <pt x="372" y="507" on="1"/>
        <pt x="372" y="546" on="1"/>
        <pt x="372" y="582" on="0"/>
        <pt x="381" y="612" on="1"/>
        <pt x="330" y="632" on="0"/>
        <pt x="288" y="632" on="1"/>
        <pt x="209" y="632" on="0"/>
        <pt x="209" y="545" on="1"/>
        <pt x="209" y="507" on="1"/>
      </contour>
    </TTGlyph>
    <TTGlyph name="ffl" xMin="30" yMin="0" xMax="727" yMax="716">
      <contour>
        <pt x="111" y="507" on="1"/>
        <pt x="111" y="546" on="1"/>
        <pt x="111" y="626" on="0"/>
        <pt x="198" y="716" on="0"/>
        <pt x="356" y="716" on="0"/>
        <pt x="426" y="680" on="1"/>
        <pt x="466" y="716" on="0"/>
        <pt x="626" y="716" on="0"/>
        <pt x="727" y="663" on="1"/>
        <pt x="727" y="0" on="1"/>
        <pt x="628" y="0" on="1"/>
        <pt x="628" y="618" on="1"/>
        <pt x="588" y="632" on="0"/>
        <pt x="513" y="632" on="0"/>
        <pt x="471" y="593" on="0"/>
        <pt x="471" y="545" on="1"/>
        <pt x="471" y="507" on="1"/>
        <pt x="577" y="507" on="1"/>
        <pt x="577" y="431" on="1"/>
        <pt x="471" y="431" on="1"/>
        <pt x="471" y="0" on="1"/>
        <pt x="373" y="0" on="1"/>
        <pt x="373" y="431" on="1"/>
        <pt x="209" y="431" on="1"/>
        <pt x="209" y="0" on="1"/>
        <pt x="111" y="0" on="1"/>
        <pt x="111" y="431" on="1"/>
        <pt x="30" y="431" on="1"/>
        <pt x="30" y="507" on="1"/>
      </contour>
      <contour>
        <pt x="373" y="507" on="1"/>
        <pt x="373" y="546" on="1"/>
        <pt x="373" y="582" on="0"/>
        <pt x="382" y="612" on="1"/>
        <pt x="331" y="632" on="0"/>
        <pt x="288" y="632" on="1"/>
        <pt x="209" y="632" on="0"/>
        <pt x="209" y="545" on="1"/>
        <pt x="209" y="507" on="1"/>
      </contour>
    </TTGlyph>
</ttFont>
